<?xml version="1.0" encoding="UTF-8" standalone="no"?>
<!DOCTYPE svg PUBLIC "-//W3C//DTD SVG 1.1//EN"
 "http://www.w3.org/Graphics/SVG/1.1/DTD/svg11.dtd">
<!-- Generated by graphviz version 2.26.3 (20100126.1600)
 -->
<!-- Title: models_diagram Pages: 1 -->
<svg width="262pt" height="998pt"
 viewBox="0.00 0.00 262.00 998.00" xmlns="http://www.w3.org/2000/svg" xmlns:xlink="http://www.w3.org/1999/xlink">
<g id="graph1" class="graph" transform="scale(1 1) rotate(0) translate(4 994)">
<title>models_diagram</title>
<polygon fill="white" stroke="white" points="-4,5 -4,-994 259,-994 259,5 -4,5"/>
<!-- Role -->
<g id="node1" class="node"><title>Role</title>
<polyline fill="none" stroke="black" points="56.5,-883 197.5,-883 "/>
<path fill="none" stroke="black" d="M197.5,-883C203.5,-883 209.5,-889 209.5,-895"/>
<polyline fill="none" stroke="black" points="209.5,-895 209.5,-977 "/>
<path fill="none" stroke="black" d="M209.5,-977C209.5,-983 203.5,-989 197.5,-989"/>
<polyline fill="none" stroke="black" points="197.5,-989 56.5,-989 "/>
<path fill="none" stroke="black" d="M56.5,-989C50.5,-989 44.5,-983 44.5,-977"/>
<polyline fill="none" stroke="black" points="44.5,-977 44.5,-895 "/>
<path fill="none" stroke="black" d="M44.5,-895C44.5,-889 50.5,-883 56.5,-883"/>
<text text-anchor="middle" x="127" y="-972.4" font-family="Times Roman,serif" font-size="14.00">Role</text>
<polyline fill="none" stroke="black" points="44.5,-963 209.5,-963 "/>
<text text-anchor="start" x="52.5" y="-946.4" font-family="Times Roman,serif" font-size="14.00">id :integer</text>
<text text-anchor="start" x="52.5" y="-928.4" font-family="Times Roman,serif" font-size="14.00">name :string</text>
<text text-anchor="start" x="52.5" y="-910.4" font-family="Times Roman,serif" font-size="14.00">created_at :datetime</text>
<text text-anchor="start" x="52.5" y="-892.4" font-family="Times Roman,serif" font-size="14.00">updated_at :datetime</text>
</g>
<!-- User -->
<g id="node2" class="node"><title>User</title>
<polyline fill="none" stroke="black" points="12,-577 242,-577 "/>
<path fill="none" stroke="black" d="M242,-577C248,-577 254,-583 254,-589"/>
<polyline fill="none" stroke="black" points="254,-589 254,-833 "/>
<path fill="none" stroke="black" d="M254,-833C254,-839 248,-845 242,-845"/>
<polyline fill="none" stroke="black" points="242,-845 12,-845 "/>
<path fill="none" stroke="black" d="M12,-845C6,-845 0,-839 0,-833"/>
<polyline fill="none" stroke="black" points="0,-833 0,-589 "/>
<path fill="none" stroke="black" d="M0,-589C0,-583 6,-577 12,-577"/>
<text text-anchor="middle" x="127" y="-828.4" font-family="Times Roman,serif" font-size="14.00">User</text>
<polyline fill="none" stroke="black" points="0,-819 254,-819 "/>
<text text-anchor="start" x="8" y="-802.4" font-family="Times Roman,serif" font-size="14.00">id :integer</text>
<text text-anchor="start" x="8" y="-784.4" font-family="Times Roman,serif" font-size="14.00">email :string</text>
<text text-anchor="start" x="8" y="-766.4" font-family="Times Roman,serif" font-size="14.00">encrypted_password :string</text>
<text text-anchor="start" x="8" y="-748.4" font-family="Times Roman,serif" font-size="14.00">reset_password_token :string</text>
<text text-anchor="start" x="8" y="-730.4" font-family="Times Roman,serif" font-size="14.00">reset_password_sent_at :datetime</text>
<text text-anchor="start" x="8" y="-712.4" font-family="Times Roman,serif" font-size="14.00">remember_created_at :datetime</text>
<text text-anchor="start" x="8" y="-694.4" font-family="Times Roman,serif" font-size="14.00">sign_in_count :integer</text>
<text text-anchor="start" x="8" y="-676.4" font-family="Times Roman,serif" font-size="14.00">current_sign_in_at :datetime</text>
<text text-anchor="start" x="8" y="-658.4" font-family="Times Roman,serif" font-size="14.00">last_sign_in_at :datetime</text>
<text text-anchor="start" x="8" y="-640.4" font-family="Times Roman,serif" font-size="14.00">current_sign_in_ip :string</text>
<text text-anchor="start" x="8" y="-622.4" font-family="Times Roman,serif" font-size="14.00">last_sign_in_ip :string</text>
<text text-anchor="start" x="8" y="-604.4" font-family="Times Roman,serif" font-size="14.00">created_at :datetime</text>
<text text-anchor="start" x="8" y="-586.4" font-family="Times Roman,serif" font-size="14.00">updated_at :datetime</text>
</g>
<!-- Role&#45;&gt;User -->
<g id="edge2" class="edge"><title>Role&#45;&gt;User</title>
<path fill="none" stroke="#4d56eb" d="M127,-872.829C127,-867.162 127,-861.287 127,-855.28"/>
<polygon fill="#4d56eb" stroke="#4d56eb" points="127,-872.963 122.5,-882.963 127,-877.963 127,-882.963 127,-882.963 127,-882.963 127,-877.963 131.5,-882.963 127,-872.963 127,-872.963"/>
<polygon fill="#4d56eb" stroke="#4d56eb" points="127,-855.06 131.5,-845.06 127,-850.06 127,-845.06 127,-845.06 127,-845.06 127,-850.06 122.5,-845.06 127,-855.06 127,-855.06"/>
</g>
<!-- Order -->
<g id="node3" class="node"><title>Order</title>
<polyline fill="none" stroke="black" points="56.5,-361 197.5,-361 "/>
<path fill="none" stroke="black" d="M197.5,-361C203.5,-361 209.5,-367 209.5,-373"/>
<polyline fill="none" stroke="black" points="209.5,-373 209.5,-527 "/>
<path fill="none" stroke="black" d="M209.5,-527C209.5,-533 203.5,-539 197.5,-539"/>
<polyline fill="none" stroke="black" points="197.5,-539 56.5,-539 "/>
<path fill="none" stroke="black" d="M56.5,-539C50.5,-539 44.5,-533 44.5,-527"/>
<polyline fill="none" stroke="black" points="44.5,-527 44.5,-373 "/>
<path fill="none" stroke="black" d="M44.5,-373C44.5,-367 50.5,-361 56.5,-361"/>
<text text-anchor="middle" x="127" y="-522.4" font-family="Times Roman,serif" font-size="14.00">Order</text>
<polyline fill="none" stroke="black" points="44.5,-513 209.5,-513 "/>
<text text-anchor="start" x="52.5" y="-496.4" font-family="Times Roman,serif" font-size="14.00">id :integer</text>
<text text-anchor="start" x="52.5" y="-478.4" font-family="Times Roman,serif" font-size="14.00">user_id :string</text>
<text text-anchor="start" x="52.5" y="-460.4" font-family="Times Roman,serif" font-size="14.00">addr :text</text>
<text text-anchor="start" x="52.5" y="-442.4" font-family="Times Roman,serif" font-size="14.00">time :datetime</text>
<text text-anchor="start" x="52.5" y="-424.4" font-family="Times Roman,serif" font-size="14.00">status :string</text>
<text text-anchor="start" x="52.5" y="-406.4" font-family="Times Roman,serif" font-size="14.00">info :text</text>
<text text-anchor="start" x="52.5" y="-388.4" font-family="Times Roman,serif" font-size="14.00">created_at :datetime</text>
<text text-anchor="start" x="52.5" y="-370.4" font-family="Times Roman,serif" font-size="14.00">updated_at :datetime</text>
</g>
<!-- User&#45;&gt;Order -->
<g id="edge4" class="edge"><title>User&#45;&gt;Order</title>
<path fill="none" stroke="#b67d7a" d="M127,-566.544C127,-560.724 127,-554.942 127,-549.244"/>
<polygon fill="#b67d7a" stroke="#b67d7a" points="127,-566.677 122.5,-576.677 127,-571.677 127,-576.677 127,-576.677 127,-576.677 127,-571.677 131.5,-576.677 127,-566.677 127,-566.677"/>
<polygon fill="#b67d7a" stroke="#b67d7a" points="127,-549.089 131.5,-539.089 127,-544.089 127,-539.089 127,-539.089 127,-539.089 127,-544.089 122.5,-539.089 127,-549.089 127,-549.089"/>
</g>
<!-- Item -->
<g id="node4" class="node"><title>Item</title>
<polyline fill="none" stroke="black" points="53,-163 201,-163 "/>
<path fill="none" stroke="black" d="M201,-163C207,-163 213,-169 213,-175"/>
<polyline fill="none" stroke="black" points="213,-175 213,-311 "/>
<path fill="none" stroke="black" d="M213,-311C213,-317 207,-323 201,-323"/>
<polyline fill="none" stroke="black" points="201,-323 53,-323 "/>
<path fill="none" stroke="black" d="M53,-323C47,-323 41,-317 41,-311"/>
<polyline fill="none" stroke="black" points="41,-311 41,-175 "/>
<path fill="none" stroke="black" d="M41,-175C41,-169 47,-163 53,-163"/>
<text text-anchor="middle" x="127" y="-306.4" font-family="Times Roman,serif" font-size="14.00">Item</text>
<polyline fill="none" stroke="black" points="41,-297 213,-297 "/>
<text text-anchor="start" x="49" y="-280.4" font-family="Times Roman,serif" font-size="14.00">id :integer</text>
<text text-anchor="start" x="49" y="-262.4" font-family="Times Roman,serif" font-size="14.00">name :string</text>
<text text-anchor="start" x="49" y="-244.4" font-family="Times Roman,serif" font-size="14.00">description :text</text>
<text text-anchor="start" x="49" y="-226.4" font-family="Times Roman,serif" font-size="14.00">status :string</text>
<text text-anchor="start" x="49" y="-208.4" font-family="Times Roman,serif" font-size="14.00">created_at :datetime</text>
<text text-anchor="start" x="49" y="-190.4" font-family="Times Roman,serif" font-size="14.00">updated_at :datetime</text>
<text text-anchor="start" x="49" y="-172.4" font-family="Times Roman,serif" font-size="14.00">ingredients_id :integer</text>
</g>
<!-- Order&#45;&gt;Item -->
<g id="edge6" class="edge"><title>Order&#45;&gt;Item</title>
<path fill="none" stroke="#ad8d32" d="M127,-350.431C127,-344.722 127,-338.997 127,-333.326"/>
<polygon fill="#ad8d32" stroke="#ad8d32" points="127,-350.711 122.5,-360.711 127,-355.711 127,-360.711 127,-360.711 127,-360.711 127,-355.711 131.5,-360.711 127,-350.711 127,-350.711"/>
<polygon fill="#ad8d32" stroke="#ad8d32" points="127,-333.19 131.5,-323.19 127,-328.19 127,-323.19 127,-323.19 127,-323.19 127,-328.19 122.5,-323.19 127,-333.19 127,-333.19"/>
</g>
<!-- Ingredient -->
<g id="node5" class="node"><title>Ingredient</title>
<polyline fill="none" stroke="black" points="56.5,-1 197.5,-1 "/>
<path fill="none" stroke="black" d="M197.5,-1C203.5,-1 209.5,-7 209.5,-13"/>
<polyline fill="none" stroke="black" points="209.5,-13 209.5,-113 "/>
<path fill="none" stroke="black" d="M209.5,-113C209.5,-119 203.5,-125 197.5,-125"/>
<polyline fill="none" stroke="black" points="197.5,-125 56.5,-125 "/>
<path fill="none" stroke="black" d="M56.5,-125C50.5,-125 44.5,-119 44.5,-113"/>
<polyline fill="none" stroke="black" points="44.5,-113 44.5,-13 "/>
<path fill="none" stroke="black" d="M44.5,-13C44.5,-7 50.5,-1 56.5,-1"/>
<text text-anchor="middle" x="127" y="-108.4" font-family="Times Roman,serif" font-size="14.00">Ingredient</text>
<polyline fill="none" stroke="black" points="44.5,-99 209.5,-99 "/>
<text text-anchor="start" x="52.5" y="-82.4" font-family="Times Roman,serif" font-size="14.00">id :integer</text>
<text text-anchor="start" x="52.5" y="-64.4" font-family="Times Roman,serif" font-size="14.00">name :string</text>
<text text-anchor="start" x="52.5" y="-46.4" font-family="Times Roman,serif" font-size="14.00">description :text</text>
<text text-anchor="start" x="52.5" y="-28.4" font-family="Times Roman,serif" font-size="14.00">created_at :datetime</text>
<text text-anchor="start" x="52.5" y="-10.4" font-family="Times Roman,serif" font-size="14.00">updated_at :datetime</text>
</g>
<!-- Item&#45;&gt;Ingredient -->
<g id="edge8" class="edge"><title>Item&#45;&gt;Ingredient</title>
<path fill="none" stroke="#c19429" d="M127,-152.617C127,-146.778 127,-140.941 127,-135.204"/>
<polygon fill="#c19429" stroke="#c19429" points="127,-152.739 122.5,-162.739 127,-157.739 127,-162.739 127,-162.739 127,-162.739 127,-157.739 131.5,-162.739 127,-152.739 127,-152.739"/>
<polygon fill="#c19429" stroke="#c19429" points="127,-135.007 131.5,-125.007 127,-130.007 127,-125.007 127,-125.007 127,-125.007 127,-130.007 122.5,-125.007 127,-135.007 127,-135.007"/>
</g>
</g>
</svg>
