<?xml version="1.0" encoding="UTF-8" standalone="no"?>
<!DOCTYPE svg PUBLIC "-//W3C//DTD SVG 1.1//EN"
 "http://www.w3.org/Graphics/SVG/1.1/DTD/svg11.dtd">
<!-- Generated by graphviz version 2.26.3 (20100126.1600)
 -->
<!-- Title: models_diagram Pages: 1 -->
<svg width="2363pt" height="1016pt"
 viewBox="0.00 0.00 2363.00 1016.00" xmlns="http://www.w3.org/2000/svg" xmlns:xlink="http://www.w3.org/1999/xlink">
<g id="graph1" class="graph" transform="scale(1 1) rotate(0) translate(4 1012)">
<title>models_diagram</title>
<polygon fill="white" stroke="white" points="-4,5 -4,-1012 2360,-1012 2360,5 -4,5"/>
<!-- Foam -->
<g id="node1" class="node"><title>Foam</title>
<polyline fill="none" stroke="black" points="284.5,-820 425.5,-820 "/>
<path fill="none" stroke="black" d="M425.5,-820C431.5,-820 437.5,-826 437.5,-832"/>
<polyline fill="none" stroke="black" points="437.5,-832 437.5,-914 "/>
<path fill="none" stroke="black" d="M437.5,-914C437.5,-920 431.5,-926 425.5,-926"/>
<polyline fill="none" stroke="black" points="425.5,-926 284.5,-926 "/>
<path fill="none" stroke="black" d="M284.5,-926C278.5,-926 272.5,-920 272.5,-914"/>
<polyline fill="none" stroke="black" points="272.5,-914 272.5,-832 "/>
<path fill="none" stroke="black" d="M272.5,-832C272.5,-826 278.5,-820 284.5,-820"/>
<text text-anchor="middle" x="355" y="-909.4" font-family="Times Roman,serif" font-size="14.00">Foam</text>
<polyline fill="none" stroke="black" points="272.5,-900 437.5,-900 "/>
<text text-anchor="start" x="280.5" y="-883.4" font-family="Times Roman,serif" font-size="14.00">id :integer</text>
<text text-anchor="start" x="280.5" y="-865.4" font-family="Times Roman,serif" font-size="14.00">name :string</text>
<text text-anchor="start" x="280.5" y="-847.4" font-family="Times Roman,serif" font-size="14.00">created_at :datetime</text>
<text text-anchor="start" x="280.5" y="-829.4" font-family="Times Roman,serif" font-size="14.00">updated_at :datetime</text>
</g>
<!-- Beer -->
<g id="node6" class="node"><title>Beer</title>
<polyline fill="none" stroke="black" points="244.5,-361 465.5,-361 "/>
<path fill="none" stroke="black" d="M465.5,-361C471.5,-361 477.5,-367 477.5,-373"/>
<polyline fill="none" stroke="black" points="477.5,-373 477.5,-689 "/>
<path fill="none" stroke="black" d="M477.5,-689C477.5,-695 471.5,-701 465.5,-701"/>
<polyline fill="none" stroke="black" points="465.5,-701 244.5,-701 "/>
<path fill="none" stroke="black" d="M244.5,-701C238.5,-701 232.5,-695 232.5,-689"/>
<polyline fill="none" stroke="black" points="232.5,-689 232.5,-373 "/>
<path fill="none" stroke="black" d="M232.5,-373C232.5,-367 238.5,-361 244.5,-361"/>
<text text-anchor="middle" x="355" y="-684.4" font-family="Times Roman,serif" font-size="14.00">Beer</text>
<polyline fill="none" stroke="black" points="232.5,-675 477.5,-675 "/>
<text text-anchor="start" x="240.5" y="-658.4" font-family="Times Roman,serif" font-size="14.00">id :integer</text>
<text text-anchor="start" x="240.5" y="-640.4" font-family="Times Roman,serif" font-size="14.00">name :string</text>
<text text-anchor="start" x="240.5" y="-622.4" font-family="Times Roman,serif" font-size="14.00">manufacturer_id :integer</text>
<text text-anchor="start" x="240.5" y="-604.4" font-family="Times Roman,serif" font-size="14.00">strength :decimal</text>
<text text-anchor="start" x="240.5" y="-586.4" font-family="Times Roman,serif" font-size="14.00">container_id :integer</text>
<text text-anchor="start" x="240.5" y="-568.4" font-family="Times Roman,serif" font-size="14.00">lid_id :integer</text>
<text text-anchor="start" x="240.5" y="-550.4" font-family="Times Roman,serif" font-size="14.00">added_by :integer</text>
<text text-anchor="start" x="240.5" y="-532.4" font-family="Times Roman,serif" font-size="14.00">updated_by :integer</text>
<text text-anchor="start" x="240.5" y="-514.4" font-family="Times Roman,serif" font-size="14.00">created_at :datetime</text>
<text text-anchor="start" x="240.5" y="-496.4" font-family="Times Roman,serif" font-size="14.00">updated_at :datetime</text>
<text text-anchor="start" x="240.5" y="-478.4" font-family="Times Roman,serif" font-size="14.00">volume :decimal</text>
<text text-anchor="start" x="240.5" y="-460.4" font-family="Times Roman,serif" font-size="14.00">description :text</text>
<text text-anchor="start" x="240.5" y="-442.4" font-family="Times Roman,serif" font-size="14.00">imagebeer_file_name :string</text>
<text text-anchor="start" x="240.5" y="-424.4" font-family="Times Roman,serif" font-size="14.00">imagebeer_content_type :string</text>
<text text-anchor="start" x="240.5" y="-406.4" font-family="Times Roman,serif" font-size="14.00">imagebeer_file_size :integer</text>
<text text-anchor="start" x="240.5" y="-388.4" font-family="Times Roman,serif" font-size="14.00">imagebeer_updated_at :datetime</text>
<text text-anchor="start" x="240.5" y="-370.4" font-family="Times Roman,serif" font-size="14.00">price :decimal</text>
</g>
<!-- Foam&#45;&gt;Beer -->
<g id="edge2" class="edge"><title>Foam&#45;&gt;Beer</title>
<path fill="none" stroke="#8b54c1" d="M355,-809.779C355,-781.668 355,-746.998 355,-711.773"/>
<polygon fill="#8b54c1" stroke="#8b54c1" points="355,-809.938 350.5,-819.938 355,-814.938 355,-819.938 355,-819.938 355,-819.938 355,-814.938 359.5,-819.938 355,-809.938 355,-809.938"/>
<polygon fill="#8b54c1" stroke="#8b54c1" points="355,-711.331 359.5,-701.331 355,-706.331 355,-701.331 355,-701.331 355,-701.331 355,-706.331 350.5,-701.331 355,-711.331 355,-711.331"/>
</g>
<!-- User -->
<g id="node2" class="node"><title>User</title>
<polyline fill="none" stroke="black" points="841,-739 1071,-739 "/>
<path fill="none" stroke="black" d="M1071,-739C1077,-739 1083,-745 1083,-751"/>
<polyline fill="none" stroke="black" points="1083,-751 1083,-995 "/>
<path fill="none" stroke="black" d="M1083,-995C1083,-1001 1077,-1007 1071,-1007"/>
<polyline fill="none" stroke="black" points="1071,-1007 841,-1007 "/>
<path fill="none" stroke="black" d="M841,-1007C835,-1007 829,-1001 829,-995"/>
<polyline fill="none" stroke="black" points="829,-995 829,-751 "/>
<path fill="none" stroke="black" d="M829,-751C829,-745 835,-739 841,-739"/>
<text text-anchor="middle" x="956" y="-990.4" font-family="Times Roman,serif" font-size="14.00">User</text>
<polyline fill="none" stroke="black" points="829,-981 1083,-981 "/>
<text text-anchor="start" x="837" y="-964.4" font-family="Times Roman,serif" font-size="14.00">id :integer</text>
<text text-anchor="start" x="837" y="-946.4" font-family="Times Roman,serif" font-size="14.00">email :string</text>
<text text-anchor="start" x="837" y="-928.4" font-family="Times Roman,serif" font-size="14.00">encrypted_password :string</text>
<text text-anchor="start" x="837" y="-910.4" font-family="Times Roman,serif" font-size="14.00">reset_password_token :string</text>
<text text-anchor="start" x="837" y="-892.4" font-family="Times Roman,serif" font-size="14.00">reset_password_sent_at :datetime</text>
<text text-anchor="start" x="837" y="-874.4" font-family="Times Roman,serif" font-size="14.00">remember_created_at :datetime</text>
<text text-anchor="start" x="837" y="-856.4" font-family="Times Roman,serif" font-size="14.00">sign_in_count :integer</text>
<text text-anchor="start" x="837" y="-838.4" font-family="Times Roman,serif" font-size="14.00">current_sign_in_at :datetime</text>
<text text-anchor="start" x="837" y="-820.4" font-family="Times Roman,serif" font-size="14.00">last_sign_in_at :datetime</text>
<text text-anchor="start" x="837" y="-802.4" font-family="Times Roman,serif" font-size="14.00">current_sign_in_ip :string</text>
<text text-anchor="start" x="837" y="-784.4" font-family="Times Roman,serif" font-size="14.00">last_sign_in_ip :string</text>
<text text-anchor="start" x="837" y="-766.4" font-family="Times Roman,serif" font-size="14.00">created_at :datetime</text>
<text text-anchor="start" x="837" y="-748.4" font-family="Times Roman,serif" font-size="14.00">updated_at :datetime</text>
</g>
<!-- Order -->
<g id="node4" class="node"><title>Order</title>
<polyline fill="none" stroke="black" points="794.5,-424 935.5,-424 "/>
<path fill="none" stroke="black" d="M935.5,-424C941.5,-424 947.5,-430 947.5,-436"/>
<polyline fill="none" stroke="black" points="947.5,-436 947.5,-626 "/>
<path fill="none" stroke="black" d="M947.5,-626C947.5,-632 941.5,-638 935.5,-638"/>
<polyline fill="none" stroke="black" points="935.5,-638 794.5,-638 "/>
<path fill="none" stroke="black" d="M794.5,-638C788.5,-638 782.5,-632 782.5,-626"/>
<polyline fill="none" stroke="black" points="782.5,-626 782.5,-436 "/>
<path fill="none" stroke="black" d="M782.5,-436C782.5,-430 788.5,-424 794.5,-424"/>
<text text-anchor="middle" x="865" y="-621.4" font-family="Times Roman,serif" font-size="14.00">Order</text>
<polyline fill="none" stroke="black" points="782.5,-612 947.5,-612 "/>
<text text-anchor="start" x="790.5" y="-595.4" font-family="Times Roman,serif" font-size="14.00">id :integer</text>
<text text-anchor="start" x="790.5" y="-577.4" font-family="Times Roman,serif" font-size="14.00">addr :text</text>
<text text-anchor="start" x="790.5" y="-559.4" font-family="Times Roman,serif" font-size="14.00">time :datetime</text>
<text text-anchor="start" x="790.5" y="-541.4" font-family="Times Roman,serif" font-size="14.00">info :text</text>
<text text-anchor="start" x="790.5" y="-523.4" font-family="Times Roman,serif" font-size="14.00">created_at :datetime</text>
<text text-anchor="start" x="790.5" y="-505.4" font-family="Times Roman,serif" font-size="14.00">updated_at :datetime</text>
<text text-anchor="start" x="790.5" y="-487.4" font-family="Times Roman,serif" font-size="14.00">telephone :string</text>
<text text-anchor="start" x="790.5" y="-469.4" font-family="Times Roman,serif" font-size="14.00">secretPhrase :string</text>
<text text-anchor="start" x="790.5" y="-451.4" font-family="Times Roman,serif" font-size="14.00">name :string</text>
<text text-anchor="start" x="790.5" y="-433.4" font-family="Times Roman,serif" font-size="14.00">price :decimal</text>
</g>
<!-- User&#45;&gt;Order -->
<g id="edge6" class="edge"><title>User&#45;&gt;Order</title>
<path fill="none" stroke="#9b3367" d="M917.678,-728.977C910.496,-701.984 903.068,-674.07 896.137,-648.02"/>
<polygon fill="#9b3367" stroke="#9b3367" points="917.724,-729.15 915.947,-739.971 919.01,-733.982 920.296,-738.814 920.296,-738.814 920.296,-738.814 919.01,-733.982 924.644,-737.657 917.724,-729.15 917.724,-729.15"/>
<polygon fill="#9b3367" stroke="#9b3367" points="896.077,-647.796 897.855,-636.975 894.792,-642.964 893.506,-638.133 893.506,-638.133 893.506,-638.133 894.792,-642.964 889.157,-639.29 896.077,-647.796 896.077,-647.796"/>
</g>
<!-- Role -->
<g id="node8" class="node"><title>Role</title>
<polyline fill="none" stroke="black" points="976.5,-478 1117.5,-478 "/>
<path fill="none" stroke="black" d="M1117.5,-478C1123.5,-478 1129.5,-484 1129.5,-490"/>
<polyline fill="none" stroke="black" points="1129.5,-490 1129.5,-572 "/>
<path fill="none" stroke="black" d="M1129.5,-572C1129.5,-578 1123.5,-584 1117.5,-584"/>
<polyline fill="none" stroke="black" points="1117.5,-584 976.5,-584 "/>
<path fill="none" stroke="black" d="M976.5,-584C970.5,-584 964.5,-578 964.5,-572"/>
<polyline fill="none" stroke="black" points="964.5,-572 964.5,-490 "/>
<path fill="none" stroke="black" d="M964.5,-490C964.5,-484 970.5,-478 976.5,-478"/>
<text text-anchor="middle" x="1047" y="-567.4" font-family="Times Roman,serif" font-size="14.00">Role</text>
<polyline fill="none" stroke="black" points="964.5,-558 1129.5,-558 "/>
<text text-anchor="start" x="972.5" y="-541.4" font-family="Times Roman,serif" font-size="14.00">id :integer</text>
<text text-anchor="start" x="972.5" y="-523.4" font-family="Times Roman,serif" font-size="14.00">name :string</text>
<text text-anchor="start" x="972.5" y="-505.4" font-family="Times Roman,serif" font-size="14.00">created_at :datetime</text>
<text text-anchor="start" x="972.5" y="-487.4" font-family="Times Roman,serif" font-size="14.00">updated_at :datetime</text>
</g>
<!-- User&#45;&gt;Role -->
<g id="edge4" class="edge"><title>User&#45;&gt;Role</title>
<path fill="none" stroke="#f4955a" d="M994.332,-728.939C1006.87,-681.834 1020.14,-631.93 1030.23,-594.015"/>
<polygon fill="#f4955a" stroke="#f4955a" points="994.276,-729.15 987.356,-737.657 992.99,-733.982 991.704,-738.814 991.704,-738.814 991.704,-738.814 992.99,-733.982 996.053,-739.971 994.276,-729.15 994.276,-729.15"/>
<polygon fill="#f4955a" stroke="#f4955a" points="1030.29,-593.812 1037.21,-585.306 1031.57,-588.981 1032.86,-584.149 1032.86,-584.149 1032.86,-584.149 1031.57,-588.981 1028.51,-582.992 1030.29,-593.812 1030.29,-593.812"/>
</g>
<!-- Status -->
<g id="node3" class="node"><title>Status</title>
<polyline fill="none" stroke="black" points="739.5,-199 880.5,-199 "/>
<path fill="none" stroke="black" d="M880.5,-199C886.5,-199 892.5,-205 892.5,-211"/>
<polyline fill="none" stroke="black" points="892.5,-211 892.5,-293 "/>
<path fill="none" stroke="black" d="M892.5,-293C892.5,-299 886.5,-305 880.5,-305"/>
<polyline fill="none" stroke="black" points="880.5,-305 739.5,-305 "/>
<path fill="none" stroke="black" d="M739.5,-305C733.5,-305 727.5,-299 727.5,-293"/>
<polyline fill="none" stroke="black" points="727.5,-293 727.5,-211 "/>
<path fill="none" stroke="black" d="M727.5,-211C727.5,-205 733.5,-199 739.5,-199"/>
<text text-anchor="middle" x="810" y="-288.4" font-family="Times Roman,serif" font-size="14.00">Status</text>
<polyline fill="none" stroke="black" points="727.5,-279 892.5,-279 "/>
<text text-anchor="start" x="735.5" y="-262.4" font-family="Times Roman,serif" font-size="14.00">id :integer</text>
<text text-anchor="start" x="735.5" y="-244.4" font-family="Times Roman,serif" font-size="14.00">name :string</text>
<text text-anchor="start" x="735.5" y="-226.4" font-family="Times Roman,serif" font-size="14.00">created_at :datetime</text>
<text text-anchor="start" x="735.5" y="-208.4" font-family="Times Roman,serif" font-size="14.00">updated_at :datetime</text>
</g>
<!-- Tracking -->
<g id="node11" class="node"><title>Tracking</title>
<polyline fill="none" stroke="black" points="794.5,-1 935.5,-1 "/>
<path fill="none" stroke="black" d="M935.5,-1C941.5,-1 947.5,-7 947.5,-13"/>
<polyline fill="none" stroke="black" points="947.5,-13 947.5,-131 "/>
<path fill="none" stroke="black" d="M947.5,-131C947.5,-137 941.5,-143 935.5,-143"/>
<polyline fill="none" stroke="black" points="935.5,-143 794.5,-143 "/>
<path fill="none" stroke="black" d="M794.5,-143C788.5,-143 782.5,-137 782.5,-131"/>
<polyline fill="none" stroke="black" points="782.5,-131 782.5,-13 "/>
<path fill="none" stroke="black" d="M782.5,-13C782.5,-7 788.5,-1 794.5,-1"/>
<text text-anchor="middle" x="865" y="-126.4" font-family="Times Roman,serif" font-size="14.00">Tracking</text>
<polyline fill="none" stroke="black" points="782.5,-117 947.5,-117 "/>
<text text-anchor="start" x="790.5" y="-100.4" font-family="Times Roman,serif" font-size="14.00">id :integer</text>
<text text-anchor="start" x="790.5" y="-82.4" font-family="Times Roman,serif" font-size="14.00">order_id :integer</text>
<text text-anchor="start" x="790.5" y="-64.4" font-family="Times Roman,serif" font-size="14.00">status_id :integer</text>
<text text-anchor="start" x="790.5" y="-46.4" font-family="Times Roman,serif" font-size="14.00">info :text</text>
<text text-anchor="start" x="790.5" y="-28.4" font-family="Times Roman,serif" font-size="14.00">created_at :datetime</text>
<text text-anchor="start" x="790.5" y="-10.4" font-family="Times Roman,serif" font-size="14.00">updated_at :datetime</text>
</g>
<!-- Status&#45;&gt;Tracking -->
<g id="edge8" class="edge"><title>Status&#45;&gt;Tracking</title>
<path fill="none" stroke="#12655e" d="M828.631,-191.025C832.389,-178.727 836.394,-165.619 840.322,-152.766"/>
<ellipse fill="none" stroke="#12655e" cx="827.373" cy="-195.142" rx="4.00001" ry="4.00001"/>
<polygon fill="#12655e" stroke="#12655e" points="840.382,-152.567 847.608,-144.318 841.843,-147.785 843.304,-143.003 843.304,-143.003 843.304,-143.003 841.843,-147.785 839.001,-141.688 840.382,-152.567 840.382,-152.567"/>
</g>
<!-- Order&#45;&gt;Status -->
<g id="edge14" class="edge"><title>Order&#45;&gt;Status</title>
<path fill="none" stroke="#6ee898" d="M841.903,-413.837C835.224,-379.954 828.189,-344.266 822.429,-315.051"/>
<polygon fill="#6ee898" stroke="#6ee898" points="841.959,-414.118 839.478,-424.8 842.926,-419.024 843.893,-423.929 843.893,-423.929 843.893,-423.929 842.926,-419.024 848.308,-423.059 841.959,-414.118 841.959,-414.118"/>
<polygon fill="#6ee898" stroke="#6ee898" points="822.382,-314.812 824.863,-304.13 821.415,-309.906 820.448,-305.001 820.448,-305.001 820.448,-305.001 821.415,-309.906 816.033,-305.871 822.382,-314.812 822.382,-314.812"/>
</g>
<!-- Ordercontent -->
<g id="node10" class="node"><title>Ordercontent</title>
<polyline fill="none" stroke="black" points="1058.5,-181 1199.5,-181 "/>
<path fill="none" stroke="black" d="M1199.5,-181C1205.5,-181 1211.5,-187 1211.5,-193"/>
<polyline fill="none" stroke="black" points="1211.5,-193 1211.5,-311 "/>
<path fill="none" stroke="black" d="M1211.5,-311C1211.5,-317 1205.5,-323 1199.5,-323"/>
<polyline fill="none" stroke="black" points="1199.5,-323 1058.5,-323 "/>
<path fill="none" stroke="black" d="M1058.5,-323C1052.5,-323 1046.5,-317 1046.5,-311"/>
<polyline fill="none" stroke="black" points="1046.5,-311 1046.5,-193 "/>
<path fill="none" stroke="black" d="M1046.5,-193C1046.5,-187 1052.5,-181 1058.5,-181"/>
<text text-anchor="middle" x="1129" y="-306.4" font-family="Times Roman,serif" font-size="14.00">Ordercontent</text>
<polyline fill="none" stroke="black" points="1046.5,-297 1211.5,-297 "/>
<text text-anchor="start" x="1054.5" y="-280.4" font-family="Times Roman,serif" font-size="14.00">id :integer</text>
<text text-anchor="start" x="1054.5" y="-262.4" font-family="Times Roman,serif" font-size="14.00">order_id :integer</text>
<text text-anchor="start" x="1054.5" y="-244.4" font-family="Times Roman,serif" font-size="14.00">item_id :integer</text>
<text text-anchor="start" x="1054.5" y="-226.4" font-family="Times Roman,serif" font-size="14.00">quantity :integer</text>
<text text-anchor="start" x="1054.5" y="-208.4" font-family="Times Roman,serif" font-size="14.00">created_at :datetime</text>
<text text-anchor="start" x="1054.5" y="-190.4" font-family="Times Roman,serif" font-size="14.00">updated_at :datetime</text>
</g>
<!-- Order&#45;&gt;Ordercontent -->
<g id="edge10" class="edge"><title>Order&#45;&gt;Ordercontent</title>
<path fill="none" stroke="#d6fec3" d="M914.914,-416.821C926.669,-396.611 940.401,-376.715 956,-360 979.097,-335.251 1009.07,-313.924 1037.57,-296.915"/>
<ellipse fill="none" stroke="#d6fec3" cx="912.817" cy="-420.502" rx="4.00002" ry="4.00002"/>
<polygon fill="#d6fec3" stroke="#d6fec3" points="1037.72,-296.825 1048.62,-295.661 1042.04,-294.301 1046.35,-291.776 1046.35,-291.776 1046.35,-291.776 1042.04,-294.301 1044.08,-287.892 1037.72,-296.825 1037.72,-296.825"/>
</g>
<!-- Order&#45;&gt;Tracking -->
<g id="edge12" class="edge"><title>Order&#45;&gt;Tracking</title>
<path fill="none" stroke="#b4a3ea" d="M892.064,-415.54C904.382,-346.856 913.682,-258.15 901,-180 899.559,-171.117 897.491,-161.978 895.066,-152.954"/>
<ellipse fill="none" stroke="#b4a3ea" cx="891.269" cy="-419.88" rx="4.00001" ry="4.00001"/>
<polygon fill="#b4a3ea" stroke="#b4a3ea" points="895.035,-152.846 896.636,-141.998 893.671,-148.036 892.306,-143.225 892.306,-143.225 892.306,-143.225 893.671,-148.036 887.977,-144.453 895.035,-152.846 895.035,-152.846"/>
</g>
<!-- Sandwich -->
<g id="node5" class="node"><title>Sandwich</title>
<polyline fill="none" stroke="black" points="1400.5,-811 1541.5,-811 "/>
<path fill="none" stroke="black" d="M1541.5,-811C1547.5,-811 1553.5,-817 1553.5,-823"/>
<polyline fill="none" stroke="black" points="1553.5,-823 1553.5,-923 "/>
<path fill="none" stroke="black" d="M1553.5,-923C1553.5,-929 1547.5,-935 1541.5,-935"/>
<polyline fill="none" stroke="black" points="1541.5,-935 1400.5,-935 "/>
<path fill="none" stroke="black" d="M1400.5,-935C1394.5,-935 1388.5,-929 1388.5,-923"/>
<polyline fill="none" stroke="black" points="1388.5,-923 1388.5,-823 "/>
<path fill="none" stroke="black" d="M1388.5,-823C1388.5,-817 1394.5,-811 1400.5,-811"/>
<text text-anchor="middle" x="1471" y="-918.4" font-family="Times Roman,serif" font-size="14.00">Sandwich</text>
<polyline fill="none" stroke="black" points="1388.5,-909 1553.5,-909 "/>
<text text-anchor="start" x="1396.5" y="-892.4" font-family="Times Roman,serif" font-size="14.00">id :integer</text>
<text text-anchor="start" x="1396.5" y="-874.4" font-family="Times Roman,serif" font-size="14.00">name :string</text>
<text text-anchor="start" x="1396.5" y="-856.4" font-family="Times Roman,serif" font-size="14.00">created_at :datetime</text>
<text text-anchor="start" x="1396.5" y="-838.4" font-family="Times Roman,serif" font-size="14.00">updated_at :datetime</text>
<text text-anchor="start" x="1396.5" y="-820.4" font-family="Times Roman,serif" font-size="14.00">price :decimal</text>
</g>
<!-- Ingredient -->
<g id="node7" class="node"><title>Ingredient</title>
<polyline fill="none" stroke="black" points="1341,-433 1601,-433 "/>
<path fill="none" stroke="black" d="M1601,-433C1607,-433 1613,-439 1613,-445"/>
<polyline fill="none" stroke="black" points="1613,-445 1613,-617 "/>
<path fill="none" stroke="black" d="M1613,-617C1613,-623 1607,-629 1601,-629"/>
<polyline fill="none" stroke="black" points="1601,-629 1341,-629 "/>
<path fill="none" stroke="black" d="M1341,-629C1335,-629 1329,-623 1329,-617"/>
<polyline fill="none" stroke="black" points="1329,-617 1329,-445 "/>
<path fill="none" stroke="black" d="M1329,-445C1329,-439 1335,-433 1341,-433"/>
<text text-anchor="middle" x="1471" y="-612.4" font-family="Times Roman,serif" font-size="14.00">Ingredient</text>
<polyline fill="none" stroke="black" points="1329,-603 1613,-603 "/>
<text text-anchor="start" x="1337" y="-586.4" font-family="Times Roman,serif" font-size="14.00">id :integer</text>
<text text-anchor="start" x="1337" y="-568.4" font-family="Times Roman,serif" font-size="14.00">name :string</text>
<text text-anchor="start" x="1337" y="-550.4" font-family="Times Roman,serif" font-size="14.00">description :text</text>
<text text-anchor="start" x="1337" y="-532.4" font-family="Times Roman,serif" font-size="14.00">created_at :datetime</text>
<text text-anchor="start" x="1337" y="-514.4" font-family="Times Roman,serif" font-size="14.00">updated_at :datetime</text>
<text text-anchor="start" x="1337" y="-496.4" font-family="Times Roman,serif" font-size="14.00">ingredientimage_file_name :string</text>
<text text-anchor="start" x="1337" y="-478.4" font-family="Times Roman,serif" font-size="14.00">ingredientimage_content_type :string</text>
<text text-anchor="start" x="1337" y="-460.4" font-family="Times Roman,serif" font-size="14.00">ingredientimage_file_size :integer</text>
<text text-anchor="start" x="1337" y="-442.4" font-family="Times Roman,serif" font-size="14.00">ingredientimage_updated_at :datetime</text>
</g>
<!-- Sandwich&#45;&gt;Ingredient -->
<g id="edge16" class="edge"><title>Sandwich&#45;&gt;Ingredient</title>
<path fill="none" stroke="#85c6f1" d="M1471,-800.611C1471,-753.743 1471,-691.863 1471,-639.207"/>
<polygon fill="#85c6f1" stroke="#85c6f1" points="1471,-800.67 1466.5,-810.67 1471,-805.67 1471,-810.67 1471,-810.67 1471,-810.67 1471,-805.67 1475.5,-810.67 1471,-800.67 1471,-800.67"/>
<polygon fill="#85c6f1" stroke="#85c6f1" points="1471,-639.148 1475.5,-629.147 1471,-634.148 1471,-629.148 1471,-629.148 1471,-629.148 1471,-634.148 1466.5,-629.148 1471,-639.148 1471,-639.148"/>
</g>
<!-- Color -->
<g id="node9" class="node"><title>Color</title>
<polyline fill="none" stroke="black" points="11.5,-199 152.5,-199 "/>
<path fill="none" stroke="black" d="M152.5,-199C158.5,-199 164.5,-205 164.5,-211"/>
<polyline fill="none" stroke="black" points="164.5,-211 164.5,-293 "/>
<path fill="none" stroke="black" d="M164.5,-293C164.5,-299 158.5,-305 152.5,-305"/>
<polyline fill="none" stroke="black" points="152.5,-305 11.5,-305 "/>
<path fill="none" stroke="black" d="M11.5,-305C5.5,-305 -0.5,-299 -0.5,-293"/>
<polyline fill="none" stroke="black" points="-0.5,-293 -0.5,-211 "/>
<path fill="none" stroke="black" d="M-0.5,-211C-0.5,-205 5.5,-199 11.5,-199"/>
<text text-anchor="middle" x="82" y="-288.4" font-family="Times Roman,serif" font-size="14.00">Color</text>
<polyline fill="none" stroke="black" points="-0.5,-279 164.5,-279 "/>
<text text-anchor="start" x="7.5" y="-262.4" font-family="Times Roman,serif" font-size="14.00">id :integer</text>
<text text-anchor="start" x="7.5" y="-244.4" font-family="Times Roman,serif" font-size="14.00">name :string</text>
<text text-anchor="start" x="7.5" y="-226.4" font-family="Times Roman,serif" font-size="14.00">created_at :datetime</text>
<text text-anchor="start" x="7.5" y="-208.4" font-family="Times Roman,serif" font-size="14.00">updated_at :datetime</text>
</g>
<!-- Beer&#45;&gt;Color -->
<g id="edge24" class="edge"><title>Beer&#45;&gt;Color</title>
<path fill="none" stroke="#b16331" d="M225.164,-398.311C195.792,-368.293 166.008,-337.854 141.269,-312.571"/>
<polygon fill="#b16331" stroke="#b16331" points="225.481,-398.634 229.258,-408.929 228.978,-402.208 232.475,-405.782 232.475,-405.782 232.475,-405.782 228.978,-402.208 235.691,-402.635 225.481,-398.634 225.481,-398.634"/>
<polygon fill="#b16331" stroke="#b16331" points="141.089,-312.387 137.311,-302.093 137.592,-308.814 134.095,-305.24 134.095,-305.24 134.095,-305.24 137.592,-308.814 130.879,-308.387 141.089,-312.387 141.089,-312.387"/>
</g>
<!-- Aroma -->
<g id="node13" class="node"><title>Aroma</title>
<polyline fill="none" stroke="black" points="193.5,-199 334.5,-199 "/>
<path fill="none" stroke="black" d="M334.5,-199C340.5,-199 346.5,-205 346.5,-211"/>
<polyline fill="none" stroke="black" points="346.5,-211 346.5,-293 "/>
<path fill="none" stroke="black" d="M346.5,-293C346.5,-299 340.5,-305 334.5,-305"/>
<polyline fill="none" stroke="black" points="334.5,-305 193.5,-305 "/>
<path fill="none" stroke="black" d="M193.5,-305C187.5,-305 181.5,-299 181.5,-293"/>
<polyline fill="none" stroke="black" points="181.5,-293 181.5,-211 "/>
<path fill="none" stroke="black" d="M181.5,-211C181.5,-205 187.5,-199 193.5,-199"/>
<text text-anchor="middle" x="264" y="-288.4" font-family="Times Roman,serif" font-size="14.00">Aroma</text>
<polyline fill="none" stroke="black" points="181.5,-279 346.5,-279 "/>
<text text-anchor="start" x="189.5" y="-262.4" font-family="Times Roman,serif" font-size="14.00">id :integer</text>
<text text-anchor="start" x="189.5" y="-244.4" font-family="Times Roman,serif" font-size="14.00">name :string</text>
<text text-anchor="start" x="189.5" y="-226.4" font-family="Times Roman,serif" font-size="14.00">created_at :datetime</text>
<text text-anchor="start" x="189.5" y="-208.4" font-family="Times Roman,serif" font-size="14.00">updated_at :datetime</text>
</g>
<!-- Beer&#45;&gt;Aroma -->
<g id="edge20" class="edge"><title>Beer&#45;&gt;Aroma</title>
<path fill="none" stroke="#d39fc9" d="M296.264,-350.919C292.124,-338.228 288.145,-326.027 284.48,-314.79"/>
<polygon fill="#d39fc9" stroke="#d39fc9" points="296.343,-351.16 295.165,-362.063 297.893,-355.914 299.444,-360.668 299.444,-360.668 299.444,-360.668 297.893,-355.914 303.722,-359.272 296.343,-351.16 296.343,-351.16"/>
<polygon fill="#d39fc9" stroke="#d39fc9" points="284.445,-314.683 285.622,-303.78 282.894,-309.929 281.344,-305.176 281.344,-305.176 281.344,-305.176 282.894,-309.929 277.066,-306.571 284.445,-314.683 284.445,-314.683"/>
</g>
<!-- Taste -->
<g id="node16" class="node"><title>Taste</title>
<polyline fill="none" stroke="black" points="375.5,-199 516.5,-199 "/>
<path fill="none" stroke="black" d="M516.5,-199C522.5,-199 528.5,-205 528.5,-211"/>
<polyline fill="none" stroke="black" points="528.5,-211 528.5,-293 "/>
<path fill="none" stroke="black" d="M528.5,-293C528.5,-299 522.5,-305 516.5,-305"/>
<polyline fill="none" stroke="black" points="516.5,-305 375.5,-305 "/>
<path fill="none" stroke="black" d="M375.5,-305C369.5,-305 363.5,-299 363.5,-293"/>
<polyline fill="none" stroke="black" points="363.5,-293 363.5,-211 "/>
<path fill="none" stroke="black" d="M363.5,-211C363.5,-205 369.5,-199 375.5,-199"/>
<text text-anchor="middle" x="446" y="-288.4" font-family="Times Roman,serif" font-size="14.00">Taste</text>
<polyline fill="none" stroke="black" points="363.5,-279 528.5,-279 "/>
<text text-anchor="start" x="371.5" y="-262.4" font-family="Times Roman,serif" font-size="14.00">id :integer</text>
<text text-anchor="start" x="371.5" y="-244.4" font-family="Times Roman,serif" font-size="14.00">name :string</text>
<text text-anchor="start" x="371.5" y="-226.4" font-family="Times Roman,serif" font-size="14.00">created_at :datetime</text>
<text text-anchor="start" x="371.5" y="-208.4" font-family="Times Roman,serif" font-size="14.00">updated_at :datetime</text>
</g>
<!-- Beer&#45;&gt;Taste -->
<g id="edge22" class="edge"><title>Beer&#45;&gt;Taste</title>
<path fill="none" stroke="#7a6748" d="M413.736,-350.919C417.876,-338.228 421.855,-326.027 425.52,-314.79"/>
<polygon fill="#7a6748" stroke="#7a6748" points="413.657,-351.16 406.278,-359.272 412.107,-355.914 410.556,-360.668 410.556,-360.668 410.556,-360.668 412.107,-355.914 414.835,-362.063 413.657,-351.16 413.657,-351.16"/>
<polygon fill="#7a6748" stroke="#7a6748" points="425.555,-314.683 432.934,-306.571 427.106,-309.929 428.656,-305.176 428.656,-305.176 428.656,-305.176 427.106,-309.929 424.378,-303.78 425.555,-314.683 425.555,-314.683"/>
</g>
<!-- Beerstyle -->
<g id="node18" class="node"><title>Beerstyle</title>
<polyline fill="none" stroke="black" points="557.5,-199 698.5,-199 "/>
<path fill="none" stroke="black" d="M698.5,-199C704.5,-199 710.5,-205 710.5,-211"/>
<polyline fill="none" stroke="black" points="710.5,-211 710.5,-293 "/>
<path fill="none" stroke="black" d="M710.5,-293C710.5,-299 704.5,-305 698.5,-305"/>
<polyline fill="none" stroke="black" points="698.5,-305 557.5,-305 "/>
<path fill="none" stroke="black" d="M557.5,-305C551.5,-305 545.5,-299 545.5,-293"/>
<polyline fill="none" stroke="black" points="545.5,-293 545.5,-211 "/>
<path fill="none" stroke="black" d="M545.5,-211C545.5,-205 551.5,-199 557.5,-199"/>
<text text-anchor="middle" x="628" y="-288.4" font-family="Times Roman,serif" font-size="14.00">Beerstyle</text>
<polyline fill="none" stroke="black" points="545.5,-279 710.5,-279 "/>
<text text-anchor="start" x="553.5" y="-262.4" font-family="Times Roman,serif" font-size="14.00">id :integer</text>
<text text-anchor="start" x="553.5" y="-244.4" font-family="Times Roman,serif" font-size="14.00">name :string</text>
<text text-anchor="start" x="553.5" y="-226.4" font-family="Times Roman,serif" font-size="14.00">created_at :datetime</text>
<text text-anchor="start" x="553.5" y="-208.4" font-family="Times Roman,serif" font-size="14.00">updated_at :datetime</text>
</g>
<!-- Beer&#45;&gt;Beerstyle -->
<g id="edge18" class="edge"><title>Beer&#45;&gt;Beerstyle</title>
<path fill="none" stroke="#9499fa" d="M484.836,-398.311C514.208,-368.293 543.992,-337.854 568.731,-312.571"/>
<polygon fill="#9499fa" stroke="#9499fa" points="484.519,-398.634 474.309,-402.635 481.022,-402.208 477.525,-405.782 477.525,-405.782 477.525,-405.782 481.022,-402.208 480.742,-408.929 484.519,-398.634 484.519,-398.634"/>
<polygon fill="#9499fa" stroke="#9499fa" points="568.911,-312.387 579.121,-308.387 572.408,-308.814 575.905,-305.24 575.905,-305.24 575.905,-305.24 572.408,-308.814 572.689,-302.093 568.911,-312.387 568.911,-312.387"/>
</g>
<!-- Container -->
<g id="node12" class="node"><title>Container</title>
<polyline fill="none" stroke="black" points="1582.5,-820 1723.5,-820 "/>
<path fill="none" stroke="black" d="M1723.5,-820C1729.5,-820 1735.5,-826 1735.5,-832"/>
<polyline fill="none" stroke="black" points="1735.5,-832 1735.5,-914 "/>
<path fill="none" stroke="black" d="M1735.5,-914C1735.5,-920 1729.5,-926 1723.5,-926"/>
<polyline fill="none" stroke="black" points="1723.5,-926 1582.5,-926 "/>
<path fill="none" stroke="black" d="M1582.5,-926C1576.5,-926 1570.5,-920 1570.5,-914"/>
<polyline fill="none" stroke="black" points="1570.5,-914 1570.5,-832 "/>
<path fill="none" stroke="black" d="M1570.5,-832C1570.5,-826 1576.5,-820 1582.5,-820"/>
<text text-anchor="middle" x="1653" y="-909.4" font-family="Times Roman,serif" font-size="14.00">Container</text>
<polyline fill="none" stroke="black" points="1570.5,-900 1735.5,-900 "/>
<text text-anchor="start" x="1578.5" y="-883.4" font-family="Times Roman,serif" font-size="14.00">id :integer</text>
<text text-anchor="start" x="1578.5" y="-865.4" font-family="Times Roman,serif" font-size="14.00">name :string</text>
<text text-anchor="start" x="1578.5" y="-847.4" font-family="Times Roman,serif" font-size="14.00">created_at :datetime</text>
<text text-anchor="start" x="1578.5" y="-829.4" font-family="Times Roman,serif" font-size="14.00">updated_at :datetime</text>
</g>
<!-- Manufacturer -->
<g id="node14" class="node"><title>Manufacturer</title>
<polyline fill="none" stroke="black" points="1764.5,-811 1905.5,-811 "/>
<path fill="none" stroke="black" d="M1905.5,-811C1911.5,-811 1917.5,-817 1917.5,-823"/>
<polyline fill="none" stroke="black" points="1917.5,-823 1917.5,-923 "/>
<path fill="none" stroke="black" d="M1917.5,-923C1917.5,-929 1911.5,-935 1905.5,-935"/>
<polyline fill="none" stroke="black" points="1905.5,-935 1764.5,-935 "/>
<path fill="none" stroke="black" d="M1764.5,-935C1758.5,-935 1752.5,-929 1752.5,-923"/>
<polyline fill="none" stroke="black" points="1752.5,-923 1752.5,-823 "/>
<path fill="none" stroke="black" d="M1752.5,-823C1752.5,-817 1758.5,-811 1764.5,-811"/>
<text text-anchor="middle" x="1835" y="-918.4" font-family="Times Roman,serif" font-size="14.00">Manufacturer</text>
<polyline fill="none" stroke="black" points="1752.5,-909 1917.5,-909 "/>
<text text-anchor="start" x="1760.5" y="-892.4" font-family="Times Roman,serif" font-size="14.00">id :integer</text>
<text text-anchor="start" x="1760.5" y="-874.4" font-family="Times Roman,serif" font-size="14.00">name :string</text>
<text text-anchor="start" x="1760.5" y="-856.4" font-family="Times Roman,serif" font-size="14.00">created_at :datetime</text>
<text text-anchor="start" x="1760.5" y="-838.4" font-family="Times Roman,serif" font-size="14.00">updated_at :datetime</text>
<text text-anchor="start" x="1760.5" y="-820.4" font-family="Times Roman,serif" font-size="14.00">country_id :integer</text>
</g>
<!-- Lid -->
<g id="node15" class="node"><title>Lid</title>
<polyline fill="none" stroke="black" points="1946.5,-820 2087.5,-820 "/>
<path fill="none" stroke="black" d="M2087.5,-820C2093.5,-820 2099.5,-826 2099.5,-832"/>
<polyline fill="none" stroke="black" points="2099.5,-832 2099.5,-914 "/>
<path fill="none" stroke="black" d="M2099.5,-914C2099.5,-920 2093.5,-926 2087.5,-926"/>
<polyline fill="none" stroke="black" points="2087.5,-926 1946.5,-926 "/>
<path fill="none" stroke="black" d="M1946.5,-926C1940.5,-926 1934.5,-920 1934.5,-914"/>
<polyline fill="none" stroke="black" points="1934.5,-914 1934.5,-832 "/>
<path fill="none" stroke="black" d="M1934.5,-832C1934.5,-826 1940.5,-820 1946.5,-820"/>
<text text-anchor="middle" x="2017" y="-909.4" font-family="Times Roman,serif" font-size="14.00">Lid</text>
<polyline fill="none" stroke="black" points="1934.5,-900 2099.5,-900 "/>
<text text-anchor="start" x="1942.5" y="-883.4" font-family="Times Roman,serif" font-size="14.00">id :integer</text>
<text text-anchor="start" x="1942.5" y="-865.4" font-family="Times Roman,serif" font-size="14.00">name :string</text>
<text text-anchor="start" x="1942.5" y="-847.4" font-family="Times Roman,serif" font-size="14.00">created_at :datetime</text>
<text text-anchor="start" x="1942.5" y="-829.4" font-family="Times Roman,serif" font-size="14.00">updated_at :datetime</text>
</g>
<!-- Item -->
<g id="node17" class="node"><title>Item</title>
<polyline fill="none" stroke="black" points="1158.5,-460 1299.5,-460 "/>
<path fill="none" stroke="black" d="M1299.5,-460C1305.5,-460 1311.5,-466 1311.5,-472"/>
<polyline fill="none" stroke="black" points="1311.5,-472 1311.5,-590 "/>
<path fill="none" stroke="black" d="M1311.5,-590C1311.5,-596 1305.5,-602 1299.5,-602"/>
<polyline fill="none" stroke="black" points="1299.5,-602 1158.5,-602 "/>
<path fill="none" stroke="black" d="M1158.5,-602C1152.5,-602 1146.5,-596 1146.5,-590"/>
<polyline fill="none" stroke="black" points="1146.5,-590 1146.5,-472 "/>
<path fill="none" stroke="black" d="M1146.5,-472C1146.5,-466 1152.5,-460 1158.5,-460"/>
<text text-anchor="middle" x="1229" y="-585.4" font-family="Times Roman,serif" font-size="14.00">Item</text>
<polyline fill="none" stroke="black" points="1146.5,-576 1311.5,-576 "/>
<text text-anchor="start" x="1154.5" y="-559.4" font-family="Times Roman,serif" font-size="14.00">id :integer</text>
<text text-anchor="start" x="1154.5" y="-541.4" font-family="Times Roman,serif" font-size="14.00">name :string</text>
<text text-anchor="start" x="1154.5" y="-523.4" font-family="Times Roman,serif" font-size="14.00">status :string</text>
<text text-anchor="start" x="1154.5" y="-505.4" font-family="Times Roman,serif" font-size="14.00">created_at :datetime</text>
<text text-anchor="start" x="1154.5" y="-487.4" font-family="Times Roman,serif" font-size="14.00">updated_at :datetime</text>
<text text-anchor="start" x="1154.5" y="-469.4" font-family="Times Roman,serif" font-size="14.00">iid :integer</text>
</g>
<!-- Item&#45;&gt;Ordercontent -->
<g id="edge26" class="edge"><title>Item&#45;&gt;Ordercontent</title>
<path fill="none" stroke="#caade2" d="M1200.74,-452.164C1187.44,-415.035 1171.58,-370.786 1158.16,-333.345"/>
<ellipse fill="none" stroke="#caade2" cx="1202.16" cy="-456.109" rx="4.00001" ry="4.00001"/>
<polygon fill="#caade2" stroke="#caade2" points="1157.99,-332.894 1158.86,-321.962 1156.31,-328.187 1154.62,-323.48 1154.62,-323.48 1154.62,-323.48 1156.31,-328.187 1150.38,-324.998 1157.99,-332.894 1157.99,-332.894"/>
</g>
<!-- Country -->
<g id="node19" class="node"><title>Country</title>
<polyline fill="none" stroke="black" points="2128.5,-775 2343.5,-775 "/>
<path fill="none" stroke="black" d="M2343.5,-775C2349.5,-775 2355.5,-781 2355.5,-787"/>
<polyline fill="none" stroke="black" points="2355.5,-787 2355.5,-959 "/>
<path fill="none" stroke="black" d="M2355.5,-959C2355.5,-965 2349.5,-971 2343.5,-971"/>
<polyline fill="none" stroke="black" points="2343.5,-971 2128.5,-971 "/>
<path fill="none" stroke="black" d="M2128.5,-971C2122.5,-971 2116.5,-965 2116.5,-959"/>
<polyline fill="none" stroke="black" points="2116.5,-959 2116.5,-787 "/>
<path fill="none" stroke="black" d="M2116.5,-787C2116.5,-781 2122.5,-775 2128.5,-775"/>
<text text-anchor="middle" x="2236" y="-954.4" font-family="Times Roman,serif" font-size="14.00">Country</text>
<polyline fill="none" stroke="black" points="2116.5,-945 2355.5,-945 "/>
<text text-anchor="start" x="2124.5" y="-928.4" font-family="Times Roman,serif" font-size="14.00">id :integer</text>
<text text-anchor="start" x="2124.5" y="-910.4" font-family="Times Roman,serif" font-size="14.00">name :string</text>
<text text-anchor="start" x="2124.5" y="-892.4" font-family="Times Roman,serif" font-size="14.00">description :text</text>
<text text-anchor="start" x="2124.5" y="-874.4" font-family="Times Roman,serif" font-size="14.00">created_at :datetime</text>
<text text-anchor="start" x="2124.5" y="-856.4" font-family="Times Roman,serif" font-size="14.00">updated_at :datetime</text>
<text text-anchor="start" x="2124.5" y="-838.4" font-family="Times Roman,serif" font-size="14.00">flagimage_file_name :string</text>
<text text-anchor="start" x="2124.5" y="-820.4" font-family="Times Roman,serif" font-size="14.00">flagimage_content_type :string</text>
<text text-anchor="start" x="2124.5" y="-802.4" font-family="Times Roman,serif" font-size="14.00">flagimage_file_size :integer</text>
<text text-anchor="start" x="2124.5" y="-784.4" font-family="Times Roman,serif" font-size="14.00">flagimage_updated_at :datetime</text>
</g>
</g>
</svg>
