<?xml version="1.0" encoding="UTF-8" standalone="no"?>
<!DOCTYPE svg PUBLIC "-//W3C//DTD SVG 1.1//EN"
 "http://www.w3.org/Graphics/SVG/1.1/DTD/svg11.dtd">
<!-- Generated by graphviz version 2.26.3 (20100126.1600)
 -->
<!-- Title: models_diagram Pages: 1 -->
<svg width="763pt" height="494pt"
 viewBox="0.00 0.00 763.00 494.00" xmlns="http://www.w3.org/2000/svg" xmlns:xlink="http://www.w3.org/1999/xlink">
<g id="graph1" class="graph" transform="scale(1 1) rotate(0) translate(4 490)">
<title>models_diagram</title>
<polygon fill="white" stroke="white" points="-4,5 -4,-490 760,-490 760,5 -4,5"/>
<!-- Role -->
<g id="node1" class="node"><title>Role</title>
<polyline fill="none" stroke="black" points="56.5,-343 197.5,-343 "/>
<path fill="none" stroke="black" d="M197.5,-343C203.5,-343 209.5,-349 209.5,-355"/>
<polyline fill="none" stroke="black" points="209.5,-355 209.5,-437 "/>
<path fill="none" stroke="black" d="M209.5,-437C209.5,-443 203.5,-449 197.5,-449"/>
<polyline fill="none" stroke="black" points="197.5,-449 56.5,-449 "/>
<path fill="none" stroke="black" d="M56.5,-449C50.5,-449 44.5,-443 44.5,-437"/>
<polyline fill="none" stroke="black" points="44.5,-437 44.5,-355 "/>
<path fill="none" stroke="black" d="M44.5,-355C44.5,-349 50.5,-343 56.5,-343"/>
<text text-anchor="middle" x="127" y="-432.4" font-family="Times Roman,serif" font-size="14.00">Role</text>
<polyline fill="none" stroke="black" points="44.5,-423 209.5,-423 "/>
<text text-anchor="start" x="52.5" y="-406.4" font-family="Times Roman,serif" font-size="14.00">id :integer</text>
<text text-anchor="start" x="52.5" y="-388.4" font-family="Times Roman,serif" font-size="14.00">name :string</text>
<text text-anchor="start" x="52.5" y="-370.4" font-family="Times Roman,serif" font-size="14.00">created_at :datetime</text>
<text text-anchor="start" x="52.5" y="-352.4" font-family="Times Roman,serif" font-size="14.00">updated_at :datetime</text>
</g>
<!-- User -->
<g id="node2" class="node"><title>User</title>
<polyline fill="none" stroke="black" points="12,-1 242,-1 "/>
<path fill="none" stroke="black" d="M242,-1C248,-1 254,-7 254,-13"/>
<polyline fill="none" stroke="black" points="254,-13 254,-257 "/>
<path fill="none" stroke="black" d="M254,-257C254,-263 248,-269 242,-269"/>
<polyline fill="none" stroke="black" points="242,-269 12,-269 "/>
<path fill="none" stroke="black" d="M12,-269C6,-269 0,-263 0,-257"/>
<polyline fill="none" stroke="black" points="0,-257 0,-13 "/>
<path fill="none" stroke="black" d="M0,-13C0,-7 6,-1 12,-1"/>
<text text-anchor="middle" x="127" y="-252.4" font-family="Times Roman,serif" font-size="14.00">User</text>
<polyline fill="none" stroke="black" points="0,-243 254,-243 "/>
<text text-anchor="start" x="8" y="-226.4" font-family="Times Roman,serif" font-size="14.00">id :integer</text>
<text text-anchor="start" x="8" y="-208.4" font-family="Times Roman,serif" font-size="14.00">email :string</text>
<text text-anchor="start" x="8" y="-190.4" font-family="Times Roman,serif" font-size="14.00">encrypted_password :string</text>
<text text-anchor="start" x="8" y="-172.4" font-family="Times Roman,serif" font-size="14.00">reset_password_token :string</text>
<text text-anchor="start" x="8" y="-154.4" font-family="Times Roman,serif" font-size="14.00">reset_password_sent_at :datetime</text>
<text text-anchor="start" x="8" y="-136.4" font-family="Times Roman,serif" font-size="14.00">remember_created_at :datetime</text>
<text text-anchor="start" x="8" y="-118.4" font-family="Times Roman,serif" font-size="14.00">sign_in_count :integer</text>
<text text-anchor="start" x="8" y="-100.4" font-family="Times Roman,serif" font-size="14.00">current_sign_in_at :datetime</text>
<text text-anchor="start" x="8" y="-82.4" font-family="Times Roman,serif" font-size="14.00">last_sign_in_at :datetime</text>
<text text-anchor="start" x="8" y="-64.4" font-family="Times Roman,serif" font-size="14.00">current_sign_in_ip :string</text>
<text text-anchor="start" x="8" y="-46.4" font-family="Times Roman,serif" font-size="14.00">last_sign_in_ip :string</text>
<text text-anchor="start" x="8" y="-28.4" font-family="Times Roman,serif" font-size="14.00">created_at :datetime</text>
<text text-anchor="start" x="8" y="-10.4" font-family="Times Roman,serif" font-size="14.00">updated_at :datetime</text>
</g>
<!-- Role&#45;&gt;User -->
<g id="edge2" class="edge"><title>Role&#45;&gt;User</title>
<path fill="none" stroke="#fd4bcb" d="M127,-332.733C127,-316.365 127,-298.055 127,-279.362"/>
<polygon fill="#fd4bcb" stroke="#fd4bcb" points="127,-332.868 122.5,-342.868 127,-337.868 127,-342.868 127,-342.868 127,-342.868 127,-337.868 131.5,-342.868 127,-332.868 127,-332.868"/>
<polygon fill="#fd4bcb" stroke="#fd4bcb" points="127,-279.254 131.5,-269.254 127,-274.254 127,-269.254 127,-269.254 127,-269.254 127,-274.254 122.5,-269.255 127,-279.254 127,-279.254"/>
</g>
<!-- Order -->
<g id="node3" class="node"><title>Order</title>
<polyline fill="none" stroke="black" points="238.5,-307 379.5,-307 "/>
<path fill="none" stroke="black" d="M379.5,-307C385.5,-307 391.5,-313 391.5,-319"/>
<polyline fill="none" stroke="black" points="391.5,-319 391.5,-473 "/>
<path fill="none" stroke="black" d="M391.5,-473C391.5,-479 385.5,-485 379.5,-485"/>
<polyline fill="none" stroke="black" points="379.5,-485 238.5,-485 "/>
<path fill="none" stroke="black" d="M238.5,-485C232.5,-485 226.5,-479 226.5,-473"/>
<polyline fill="none" stroke="black" points="226.5,-473 226.5,-319 "/>
<path fill="none" stroke="black" d="M226.5,-319C226.5,-313 232.5,-307 238.5,-307"/>
<text text-anchor="middle" x="309" y="-468.4" font-family="Times Roman,serif" font-size="14.00">Order</text>
<polyline fill="none" stroke="black" points="226.5,-459 391.5,-459 "/>
<text text-anchor="start" x="234.5" y="-442.4" font-family="Times Roman,serif" font-size="14.00">id :integer</text>
<text text-anchor="start" x="234.5" y="-424.4" font-family="Times Roman,serif" font-size="14.00">user_id :string</text>
<text text-anchor="start" x="234.5" y="-406.4" font-family="Times Roman,serif" font-size="14.00">addr :text</text>
<text text-anchor="start" x="234.5" y="-388.4" font-family="Times Roman,serif" font-size="14.00">time :datetime</text>
<text text-anchor="start" x="234.5" y="-370.4" font-family="Times Roman,serif" font-size="14.00">status :string</text>
<text text-anchor="start" x="234.5" y="-352.4" font-family="Times Roman,serif" font-size="14.00">info :text</text>
<text text-anchor="start" x="234.5" y="-334.4" font-family="Times Roman,serif" font-size="14.00">created_at :datetime</text>
<text text-anchor="start" x="234.5" y="-316.4" font-family="Times Roman,serif" font-size="14.00">updated_at :datetime</text>
</g>
<!-- Item -->
<g id="node4" class="node"><title>Item</title>
<polyline fill="none" stroke="black" points="420.5,-325 561.5,-325 "/>
<path fill="none" stroke="black" d="M561.5,-325C567.5,-325 573.5,-331 573.5,-337"/>
<polyline fill="none" stroke="black" points="573.5,-337 573.5,-455 "/>
<path fill="none" stroke="black" d="M573.5,-455C573.5,-461 567.5,-467 561.5,-467"/>
<polyline fill="none" stroke="black" points="561.5,-467 420.5,-467 "/>
<path fill="none" stroke="black" d="M420.5,-467C414.5,-467 408.5,-461 408.5,-455"/>
<polyline fill="none" stroke="black" points="408.5,-455 408.5,-337 "/>
<path fill="none" stroke="black" d="M408.5,-337C408.5,-331 414.5,-325 420.5,-325"/>
<text text-anchor="middle" x="491" y="-450.4" font-family="Times Roman,serif" font-size="14.00">Item</text>
<polyline fill="none" stroke="black" points="408.5,-441 573.5,-441 "/>
<text text-anchor="start" x="416.5" y="-424.4" font-family="Times Roman,serif" font-size="14.00">id :integer</text>
<text text-anchor="start" x="416.5" y="-406.4" font-family="Times Roman,serif" font-size="14.00">name :string</text>
<text text-anchor="start" x="416.5" y="-388.4" font-family="Times Roman,serif" font-size="14.00">description :text</text>
<text text-anchor="start" x="416.5" y="-370.4" font-family="Times Roman,serif" font-size="14.00">status :string</text>
<text text-anchor="start" x="416.5" y="-352.4" font-family="Times Roman,serif" font-size="14.00">created_at :datetime</text>
<text text-anchor="start" x="416.5" y="-334.4" font-family="Times Roman,serif" font-size="14.00">updated_at :datetime</text>
</g>
<!-- Ingredient -->
<g id="node5" class="node"><title>Ingredient</title>
<polyline fill="none" stroke="black" points="602.5,-334 743.5,-334 "/>
<path fill="none" stroke="black" d="M743.5,-334C749.5,-334 755.5,-340 755.5,-346"/>
<polyline fill="none" stroke="black" points="755.5,-346 755.5,-446 "/>
<path fill="none" stroke="black" d="M755.5,-446C755.5,-452 749.5,-458 743.5,-458"/>
<polyline fill="none" stroke="black" points="743.5,-458 602.5,-458 "/>
<path fill="none" stroke="black" d="M602.5,-458C596.5,-458 590.5,-452 590.5,-446"/>
<polyline fill="none" stroke="black" points="590.5,-446 590.5,-346 "/>
<path fill="none" stroke="black" d="M590.5,-346C590.5,-340 596.5,-334 602.5,-334"/>
<text text-anchor="middle" x="673" y="-441.4" font-family="Times Roman,serif" font-size="14.00">Ingredient</text>
<polyline fill="none" stroke="black" points="590.5,-432 755.5,-432 "/>
<text text-anchor="start" x="598.5" y="-415.4" font-family="Times Roman,serif" font-size="14.00">id :integer</text>
<text text-anchor="start" x="598.5" y="-397.4" font-family="Times Roman,serif" font-size="14.00">name :string</text>
<text text-anchor="start" x="598.5" y="-379.4" font-family="Times Roman,serif" font-size="14.00">description :text</text>
<text text-anchor="start" x="598.5" y="-361.4" font-family="Times Roman,serif" font-size="14.00">created_at :datetime</text>
<text text-anchor="start" x="598.5" y="-343.4" font-family="Times Roman,serif" font-size="14.00">updated_at :datetime</text>
</g>
</g>
</svg>
