<?xml version="1.0" encoding="UTF-8" standalone="no"?>
<!DOCTYPE svg PUBLIC "-//W3C//DTD SVG 1.1//EN"
 "http://www.w3.org/Graphics/SVG/1.1/DTD/svg11.dtd">
<!-- Generated by graphviz version 2.26.3 (20100126.1600)
 -->
<!-- Title: controllers_diagram Pages: 1 -->
<svg width="1684pt" height="1423pt"
 viewBox="0.00 0.00 1684.00 1422.61" xmlns="http://www.w3.org/2000/svg" xmlns:xlink="http://www.w3.org/1999/xlink">
<g id="graph1" class="graph" transform="scale(1 1) rotate(0) translate(4 1418.61)">
<title>controllers_diagram</title>
<polygon fill="white" stroke="white" points="-4,5 -4,-1418.61 1681,-1418.61 1681,5 -4,5"/>
<!-- _diagram_info -->
<g id="node1" class="node"><title>_diagram_info</title>
<text text-anchor="start" x="1433" y="-523.3" font-family="Times Roman,serif" font-size="13.00">Controllers diagram</text>
<text text-anchor="start" x="1433" y="-506.3" font-family="Times Roman,serif" font-size="13.00">Date: Apr 13 2013 &#45; 08:08</text>
<text text-anchor="start" x="1433" y="-489.3" font-family="Times Roman,serif" font-size="13.00">Migration version: 20130413055332</text>
<text text-anchor="start" x="1433" y="-472.3" font-family="Times Roman,serif" font-size="13.00">Generated by RailRoady 1.1.0</text>
<text text-anchor="start" x="1433" y="-455.3" font-family="Times Roman,serif" font-size="13.00">http://railroady.prestonlee.com</text>
</g>
<!-- SandwichesController -->
<g id="node2" class="node"><title>SandwichesController</title>
<polyline fill="none" stroke="black" points="15.6634,-405.414 229.663,-405.414 "/>
<path fill="none" stroke="black" d="M229.663,-405.414C235.663,-405.414 241.663,-411.414 241.663,-417.414"/>
<polyline fill="none" stroke="black" points="241.663,-417.414 241.663,-639.414 "/>
<path fill="none" stroke="black" d="M241.663,-639.414C241.663,-645.414 235.663,-651.414 229.663,-651.414"/>
<polyline fill="none" stroke="black" points="229.663,-651.414 15.6634,-651.414 "/>
<path fill="none" stroke="black" d="M15.6634,-651.414C9.66345,-651.414 3.66345,-645.414 3.66345,-639.414"/>
<polyline fill="none" stroke="black" points="3.66345,-639.414 3.66345,-417.414 "/>
<path fill="none" stroke="black" d="M3.66345,-417.414C3.66345,-411.414 9.66345,-405.414 15.6634,-405.414"/>
<text text-anchor="middle" x="122.663" y="-634.814" font-family="Times Roman,serif" font-size="14.00">SandwichesController</text>
<polyline fill="none" stroke="black" points="3.66345,-625.414 241.663,-625.414 "/>
<text text-anchor="start" x="11.6634" y="-608.814" font-family="Times Roman,serif" font-size="14.00">_one_time_conditions_valid_80?</text>
<text text-anchor="start" x="11.6634" y="-590.814" font-family="Times Roman,serif" font-size="14.00">create</text>
<text text-anchor="start" x="11.6634" y="-572.814" font-family="Times Roman,serif" font-size="14.00">destroy</text>
<text text-anchor="start" x="11.6634" y="-554.814" font-family="Times Roman,serif" font-size="14.00">edit</text>
<text text-anchor="start" x="11.6634" y="-536.814" font-family="Times Roman,serif" font-size="14.00">index</text>
<text text-anchor="start" x="11.6634" y="-518.814" font-family="Times Roman,serif" font-size="14.00">new</text>
<text text-anchor="start" x="11.6634" y="-500.814" font-family="Times Roman,serif" font-size="14.00">show</text>
<text text-anchor="start" x="11.6634" y="-482.814" font-family="Times Roman,serif" font-size="14.00">update</text>
<polyline fill="none" stroke="black" points="3.66345,-473.414 241.663,-473.414 "/>
<polyline fill="none" stroke="black" points="3.66345,-449.414 241.663,-449.414 "/>
<text text-anchor="start" x="11.6634" y="-432.814" font-family="Times Roman,serif" font-size="14.00">_layout</text>
<text text-anchor="start" x="11.6634" y="-414.814" font-family="Times Roman,serif" font-size="14.00">_run_process_action_callbacks</text>
</g>
<!-- FoamsController -->
<g id="node3" class="node"><title>FoamsController</title>
<polyline fill="none" stroke="black" points="1139,-782.82 1353,-782.82 "/>
<path fill="none" stroke="black" d="M1353,-782.82C1359,-782.82 1365,-788.82 1365,-794.82"/>
<polyline fill="none" stroke="black" points="1365,-794.82 1365,-1016.82 "/>
<path fill="none" stroke="black" d="M1365,-1016.82C1365,-1022.82 1359,-1028.82 1353,-1028.82"/>
<polyline fill="none" stroke="black" points="1353,-1028.82 1139,-1028.82 "/>
<path fill="none" stroke="black" d="M1139,-1028.82C1133,-1028.82 1127,-1022.82 1127,-1016.82"/>
<polyline fill="none" stroke="black" points="1127,-1016.82 1127,-794.82 "/>
<path fill="none" stroke="black" d="M1127,-794.82C1127,-788.82 1133,-782.82 1139,-782.82"/>
<text text-anchor="middle" x="1246" y="-1012.22" font-family="Times Roman,serif" font-size="14.00">FoamsController</text>
<polyline fill="none" stroke="black" points="1127,-1002.82 1365,-1002.82 "/>
<text text-anchor="start" x="1135" y="-986.22" font-family="Times Roman,serif" font-size="14.00">_one_time_conditions_valid_96?</text>
<text text-anchor="start" x="1135" y="-968.22" font-family="Times Roman,serif" font-size="14.00">create</text>
<text text-anchor="start" x="1135" y="-950.22" font-family="Times Roman,serif" font-size="14.00">destroy</text>
<text text-anchor="start" x="1135" y="-932.22" font-family="Times Roman,serif" font-size="14.00">edit</text>
<text text-anchor="start" x="1135" y="-914.22" font-family="Times Roman,serif" font-size="14.00">index</text>
<text text-anchor="start" x="1135" y="-896.22" font-family="Times Roman,serif" font-size="14.00">new</text>
<text text-anchor="start" x="1135" y="-878.22" font-family="Times Roman,serif" font-size="14.00">show</text>
<text text-anchor="start" x="1135" y="-860.22" font-family="Times Roman,serif" font-size="14.00">update</text>
<polyline fill="none" stroke="black" points="1127,-850.82 1365,-850.82 "/>
<polyline fill="none" stroke="black" points="1127,-826.82 1365,-826.82 "/>
<text text-anchor="start" x="1135" y="-810.22" font-family="Times Roman,serif" font-size="14.00">_layout</text>
<text text-anchor="start" x="1135" y="-792.22" font-family="Times Roman,serif" font-size="14.00">_run_process_action_callbacks</text>
</g>
<!-- ApplicationController -->
<g id="node4" class="node"><title>ApplicationController</title>
<polyline fill="none" stroke="black" points="580.656,-649.535 794.656,-649.535 "/>
<path fill="none" stroke="black" d="M794.656,-649.535C800.656,-649.535 806.656,-655.535 806.656,-661.535"/>
<polyline fill="none" stroke="black" points="806.656,-661.535 806.656,-793.535 "/>
<path fill="none" stroke="black" d="M806.656,-793.535C806.656,-799.535 800.656,-805.535 794.656,-805.535"/>
<polyline fill="none" stroke="black" points="794.656,-805.535 580.656,-805.535 "/>
<path fill="none" stroke="black" d="M580.656,-805.535C574.656,-805.535 568.656,-799.535 568.656,-793.535"/>
<polyline fill="none" stroke="black" points="568.656,-793.535 568.656,-661.535 "/>
<path fill="none" stroke="black" d="M568.656,-661.535C568.656,-655.535 574.656,-649.535 580.656,-649.535"/>
<text text-anchor="middle" x="687.656" y="-788.935" font-family="Times Roman,serif" font-size="14.00">ApplicationController</text>
<polyline fill="none" stroke="black" points="568.656,-779.535 806.656,-779.535 "/>
<text text-anchor="start" x="576.656" y="-762.935" font-family="Times Roman,serif" font-size="14.00">_one_time_conditions_valid_60?</text>
<text text-anchor="start" x="576.656" y="-744.935" font-family="Times Roman,serif" font-size="14.00">has_role?</text>
<text text-anchor="start" x="576.656" y="-726.935" font-family="Times Roman,serif" font-size="14.00">verify_admin</text>
<polyline fill="none" stroke="black" points="568.656,-717.535 806.656,-717.535 "/>
<polyline fill="none" stroke="black" points="568.656,-693.535 806.656,-693.535 "/>
<text text-anchor="start" x="576.656" y="-676.935" font-family="Times Roman,serif" font-size="14.00">_layout</text>
<text text-anchor="start" x="576.656" y="-658.935" font-family="Times Roman,serif" font-size="14.00">_run_process_action_callbacks</text>
</g>
<!-- ApplicationController&#45;&gt;SandwichesController -->
<g id="edge2" class="edge"><title>ApplicationController&#45;&gt;SandwichesController</title>
<path fill="none" stroke="black" d="M568.481,-703.945C499.173,-688.521 410.817,-665.902 335.021,-637.191 304.031,-625.452 271.672,-610.427 241.826,-595.316"/>
</g>
<!-- ApplicationController&#45;&gt;FoamsController -->
<g id="edge4" class="edge"><title>ApplicationController&#45;&gt;FoamsController</title>
<path fill="none" stroke="black" d="M806.8,-760.481C872.418,-779.112 955.14,-803.395 1028.2,-827.244 1060.39,-837.753 1094.98,-849.856 1126.91,-861.365"/>
</g>
<!-- BeersController -->
<g id="node5" class="node"><title>BeersController</title>
<polyline fill="none" stroke="black" points="74.5792,-1155.06 297.579,-1155.06 "/>
<path fill="none" stroke="black" d="M297.579,-1155.06C303.579,-1155.06 309.579,-1161.06 309.579,-1167.06"/>
<polyline fill="none" stroke="black" points="309.579,-1167.06 309.579,-1389.06 "/>
<path fill="none" stroke="black" d="M309.579,-1389.06C309.579,-1395.06 303.579,-1401.06 297.579,-1401.06"/>
<polyline fill="none" stroke="black" points="297.579,-1401.06 74.5792,-1401.06 "/>
<path fill="none" stroke="black" d="M74.5792,-1401.06C68.5792,-1401.06 62.5792,-1395.06 62.5792,-1389.06"/>
<polyline fill="none" stroke="black" points="62.5792,-1389.06 62.5792,-1167.06 "/>
<path fill="none" stroke="black" d="M62.5792,-1167.06C62.5792,-1161.06 68.5792,-1155.06 74.5792,-1155.06"/>
<text text-anchor="middle" x="186.079" y="-1384.46" font-family="Times Roman,serif" font-size="14.00">BeersController</text>
<polyline fill="none" stroke="black" points="62.5792,-1375.06 309.579,-1375.06 "/>
<text text-anchor="start" x="70.5792" y="-1358.46" font-family="Times Roman,serif" font-size="14.00">_one_time_conditions_valid_196?</text>
<text text-anchor="start" x="70.5792" y="-1340.46" font-family="Times Roman,serif" font-size="14.00">create</text>
<text text-anchor="start" x="70.5792" y="-1322.46" font-family="Times Roman,serif" font-size="14.00">destroy</text>
<text text-anchor="start" x="70.5792" y="-1304.46" font-family="Times Roman,serif" font-size="14.00">edit</text>
<text text-anchor="start" x="70.5792" y="-1286.46" font-family="Times Roman,serif" font-size="14.00">index</text>
<text text-anchor="start" x="70.5792" y="-1268.46" font-family="Times Roman,serif" font-size="14.00">new</text>
<text text-anchor="start" x="70.5792" y="-1250.46" font-family="Times Roman,serif" font-size="14.00">show</text>
<text text-anchor="start" x="70.5792" y="-1232.46" font-family="Times Roman,serif" font-size="14.00">update</text>
<polyline fill="none" stroke="black" points="62.5792,-1223.06 309.579,-1223.06 "/>
<polyline fill="none" stroke="black" points="62.5792,-1199.06 309.579,-1199.06 "/>
<text text-anchor="start" x="70.5792" y="-1182.46" font-family="Times Roman,serif" font-size="14.00">_layout</text>
<text text-anchor="start" x="70.5792" y="-1164.46" font-family="Times Roman,serif" font-size="14.00">_run_process_action_callbacks</text>
</g>
<!-- ApplicationController&#45;&gt;BeersController -->
<g id="edge6" class="edge"><title>ApplicationController&#45;&gt;BeersController</title>
<path fill="none" stroke="black" d="M687.397,-805.756C683.146,-885.88 665.007,-1009.85 597.746,-1090.8 524.866,-1178.52 402.162,-1226.98 309.635,-1252.5"/>
</g>
<!-- LidsController -->
<g id="node6" class="node"><title>LidsController</title>
<polyline fill="none" stroke="black" points="789.996,-830.444 1013,-830.444 "/>
<path fill="none" stroke="black" d="M1013,-830.444C1019,-830.444 1025,-836.444 1025,-842.444"/>
<polyline fill="none" stroke="black" points="1025,-842.444 1025,-1064.44 "/>
<path fill="none" stroke="black" d="M1025,-1064.44C1025,-1070.44 1019,-1076.44 1013,-1076.44"/>
<polyline fill="none" stroke="black" points="1013,-1076.44 789.996,-1076.44 "/>
<path fill="none" stroke="black" d="M789.996,-1076.44C783.996,-1076.44 777.996,-1070.44 777.996,-1064.44"/>
<polyline fill="none" stroke="black" points="777.996,-1064.44 777.996,-842.444 "/>
<path fill="none" stroke="black" d="M777.996,-842.444C777.996,-836.444 783.996,-830.444 789.996,-830.444"/>
<text text-anchor="middle" x="901.496" y="-1059.84" font-family="Times Roman,serif" font-size="14.00">LidsController</text>
<polyline fill="none" stroke="black" points="777.996,-1050.44 1025,-1050.44 "/>
<text text-anchor="start" x="785.996" y="-1033.84" font-family="Times Roman,serif" font-size="14.00">_one_time_conditions_valid_202?</text>
<text text-anchor="start" x="785.996" y="-1015.84" font-family="Times Roman,serif" font-size="14.00">create</text>
<text text-anchor="start" x="785.996" y="-997.844" font-family="Times Roman,serif" font-size="14.00">destroy</text>
<text text-anchor="start" x="785.996" y="-979.844" font-family="Times Roman,serif" font-size="14.00">edit</text>
<text text-anchor="start" x="785.996" y="-961.844" font-family="Times Roman,serif" font-size="14.00">index</text>
<text text-anchor="start" x="785.996" y="-943.844" font-family="Times Roman,serif" font-size="14.00">new</text>
<text text-anchor="start" x="785.996" y="-925.844" font-family="Times Roman,serif" font-size="14.00">show</text>
<text text-anchor="start" x="785.996" y="-907.844" font-family="Times Roman,serif" font-size="14.00">update</text>
<polyline fill="none" stroke="black" points="777.996,-898.444 1025,-898.444 "/>
<polyline fill="none" stroke="black" points="777.996,-874.444 1025,-874.444 "/>
<text text-anchor="start" x="785.996" y="-857.844" font-family="Times Roman,serif" font-size="14.00">_layout</text>
<text text-anchor="start" x="785.996" y="-839.844" font-family="Times Roman,serif" font-size="14.00">_run_process_action_callbacks</text>
</g>
<!-- ApplicationController&#45;&gt;LidsController -->
<g id="edge8" class="edge"><title>ApplicationController&#45;&gt;LidsController</title>
<path fill="none" stroke="black" d="M761.547,-805.596C769.153,-813.631 777.005,-821.927 784.929,-830.298"/>
</g>
<!-- ColorsController -->
<g id="node7" class="node"><title>ColorsController</title>
<polyline fill="none" stroke="black" points="359.546,-841.603 582.546,-841.603 "/>
<path fill="none" stroke="black" d="M582.546,-841.603C588.546,-841.603 594.546,-847.603 594.546,-853.603"/>
<polyline fill="none" stroke="black" points="594.546,-853.603 594.546,-1075.6 "/>
<path fill="none" stroke="black" d="M594.546,-1075.6C594.546,-1081.6 588.546,-1087.6 582.546,-1087.6"/>
<polyline fill="none" stroke="black" points="582.546,-1087.6 359.546,-1087.6 "/>
<path fill="none" stroke="black" d="M359.546,-1087.6C353.546,-1087.6 347.546,-1081.6 347.546,-1075.6"/>
<polyline fill="none" stroke="black" points="347.546,-1075.6 347.546,-853.603 "/>
<path fill="none" stroke="black" d="M347.546,-853.603C347.546,-847.603 353.546,-841.603 359.546,-841.603"/>
<text text-anchor="middle" x="471.046" y="-1071" font-family="Times Roman,serif" font-size="14.00">ColorsController</text>
<polyline fill="none" stroke="black" points="347.546,-1061.6 594.546,-1061.6 "/>
<text text-anchor="start" x="355.546" y="-1045" font-family="Times Roman,serif" font-size="14.00">_one_time_conditions_valid_218?</text>
<text text-anchor="start" x="355.546" y="-1027" font-family="Times Roman,serif" font-size="14.00">create</text>
<text text-anchor="start" x="355.546" y="-1009" font-family="Times Roman,serif" font-size="14.00">destroy</text>
<text text-anchor="start" x="355.546" y="-991.003" font-family="Times Roman,serif" font-size="14.00">edit</text>
<text text-anchor="start" x="355.546" y="-973.003" font-family="Times Roman,serif" font-size="14.00">index</text>
<text text-anchor="start" x="355.546" y="-955.003" font-family="Times Roman,serif" font-size="14.00">new</text>
<text text-anchor="start" x="355.546" y="-937.003" font-family="Times Roman,serif" font-size="14.00">show</text>
<text text-anchor="start" x="355.546" y="-919.003" font-family="Times Roman,serif" font-size="14.00">update</text>
<polyline fill="none" stroke="black" points="347.546,-909.603 594.546,-909.603 "/>
<polyline fill="none" stroke="black" points="347.546,-885.603 594.546,-885.603 "/>
<text text-anchor="start" x="355.546" y="-869.003" font-family="Times Roman,serif" font-size="14.00">_layout</text>
<text text-anchor="start" x="355.546" y="-851.003" font-family="Times Roman,serif" font-size="14.00">_run_process_action_callbacks</text>
</g>
<!-- ApplicationController&#45;&gt;ColorsController -->
<g id="edge10" class="edge"><title>ApplicationController&#45;&gt;ColorsController</title>
<path fill="none" stroke="black" d="M616.13,-805.817C605.655,-817.281 594.66,-829.315 583.605,-841.413"/>
</g>
<!-- BeerstylesController -->
<g id="node8" class="node"><title>BeerstylesController</title>
<polyline fill="none" stroke="black" points="29.3078,-19.5638 252.308,-19.5638 "/>
<path fill="none" stroke="black" d="M252.308,-19.5638C258.308,-19.5638 264.308,-25.5638 264.308,-31.5638"/>
<polyline fill="none" stroke="black" points="264.308,-31.5638 264.308,-253.564 "/>
<path fill="none" stroke="black" d="M264.308,-253.564C264.308,-259.564 258.308,-265.564 252.308,-265.564"/>
<polyline fill="none" stroke="black" points="252.308,-265.564 29.3078,-265.564 "/>
<path fill="none" stroke="black" d="M29.3078,-265.564C23.3078,-265.564 17.3078,-259.564 17.3078,-253.564"/>
<polyline fill="none" stroke="black" points="17.3078,-253.564 17.3078,-31.5638 "/>
<path fill="none" stroke="black" d="M17.3078,-31.5638C17.3078,-25.5638 23.3078,-19.5638 29.3078,-19.5638"/>
<text text-anchor="middle" x="140.808" y="-248.964" font-family="Times Roman,serif" font-size="14.00">BeerstylesController</text>
<polyline fill="none" stroke="black" points="17.3078,-239.564 264.308,-239.564 "/>
<text text-anchor="start" x="25.3078" y="-222.964" font-family="Times Roman,serif" font-size="14.00">_one_time_conditions_valid_234?</text>
<text text-anchor="start" x="25.3078" y="-204.964" font-family="Times Roman,serif" font-size="14.00">create</text>
<text text-anchor="start" x="25.3078" y="-186.964" font-family="Times Roman,serif" font-size="14.00">destroy</text>
<text text-anchor="start" x="25.3078" y="-168.964" font-family="Times Roman,serif" font-size="14.00">edit</text>
<text text-anchor="start" x="25.3078" y="-150.964" font-family="Times Roman,serif" font-size="14.00">index</text>
<text text-anchor="start" x="25.3078" y="-132.964" font-family="Times Roman,serif" font-size="14.00">new</text>
<text text-anchor="start" x="25.3078" y="-114.964" font-family="Times Roman,serif" font-size="14.00">show</text>
<text text-anchor="start" x="25.3078" y="-96.9638" font-family="Times Roman,serif" font-size="14.00">update</text>
<polyline fill="none" stroke="black" points="17.3078,-87.5638 264.308,-87.5638 "/>
<polyline fill="none" stroke="black" points="17.3078,-63.5638 264.308,-63.5638 "/>
<text text-anchor="start" x="25.3078" y="-46.9638" font-family="Times Roman,serif" font-size="14.00">_layout</text>
<text text-anchor="start" x="25.3078" y="-28.9638" font-family="Times Roman,serif" font-size="14.00">_run_process_action_callbacks</text>
</g>
<!-- ApplicationController&#45;&gt;BeerstylesController -->
<g id="edge12" class="edge"><title>ApplicationController&#45;&gt;BeerstylesController</title>
<path fill="none" stroke="black" d="M682.247,-649.525C673.39,-574.412 650.031,-461.244 588.421,-384.791 505.187,-281.504 365.642,-216.057 264.454,-179.588"/>
</g>
<!-- ContainersController -->
<g id="node9" class="node"><title>ContainersController</title>
<polyline fill="none" stroke="black" points="1117.52,-26.8865 1340.52,-26.8865 "/>
<path fill="none" stroke="black" d="M1340.52,-26.8865C1346.52,-26.8865 1352.52,-32.8865 1352.52,-38.8865"/>
<polyline fill="none" stroke="black" points="1352.52,-38.8865 1352.52,-260.887 "/>
<path fill="none" stroke="black" d="M1352.52,-260.887C1352.52,-266.887 1346.52,-272.887 1340.52,-272.887"/>
<polyline fill="none" stroke="black" points="1340.52,-272.887 1117.52,-272.887 "/>
<path fill="none" stroke="black" d="M1117.52,-272.887C1111.52,-272.887 1105.52,-266.887 1105.52,-260.887"/>
<polyline fill="none" stroke="black" points="1105.52,-260.887 1105.52,-38.8865 "/>
<path fill="none" stroke="black" d="M1105.52,-38.8865C1105.52,-32.8865 1111.52,-26.8865 1117.52,-26.8865"/>
<text text-anchor="middle" x="1229.02" y="-256.287" font-family="Times Roman,serif" font-size="14.00">ContainersController</text>
<polyline fill="none" stroke="black" points="1105.52,-246.887 1352.52,-246.887 "/>
<text text-anchor="start" x="1113.52" y="-230.287" font-family="Times Roman,serif" font-size="14.00">_one_time_conditions_valid_240?</text>
<text text-anchor="start" x="1113.52" y="-212.287" font-family="Times Roman,serif" font-size="14.00">create</text>
<text text-anchor="start" x="1113.52" y="-194.287" font-family="Times Roman,serif" font-size="14.00">destroy</text>
<text text-anchor="start" x="1113.52" y="-176.287" font-family="Times Roman,serif" font-size="14.00">edit</text>
<text text-anchor="start" x="1113.52" y="-158.287" font-family="Times Roman,serif" font-size="14.00">index</text>
<text text-anchor="start" x="1113.52" y="-140.287" font-family="Times Roman,serif" font-size="14.00">new</text>
<text text-anchor="start" x="1113.52" y="-122.287" font-family="Times Roman,serif" font-size="14.00">show</text>
<text text-anchor="start" x="1113.52" y="-104.287" font-family="Times Roman,serif" font-size="14.00">update</text>
<polyline fill="none" stroke="black" points="1105.52,-94.8865 1352.52,-94.8865 "/>
<polyline fill="none" stroke="black" points="1105.52,-70.8865 1352.52,-70.8865 "/>
<text text-anchor="start" x="1113.52" y="-54.2865" font-family="Times Roman,serif" font-size="14.00">_layout</text>
<text text-anchor="start" x="1113.52" y="-36.2865" font-family="Times Roman,serif" font-size="14.00">_run_process_action_callbacks</text>
</g>
<!-- ApplicationController&#45;&gt;ContainersController -->
<g id="edge14" class="edge"><title>ApplicationController&#45;&gt;ContainersController</title>
<path fill="none" stroke="black" d="M806.797,-704.901C871.176,-687.576 948.431,-657.932 1003.04,-608.363 1102.09,-518.45 1162.85,-375.447 1196.06,-273.059"/>
</g>
<!-- ItemsController -->
<g id="node10" class="node"><title>ItemsController</title>
<polyline fill="none" stroke="black" points="350.221,-387.991 573.221,-387.991 "/>
<path fill="none" stroke="black" d="M573.221,-387.991C579.221,-387.991 585.221,-393.991 585.221,-399.991"/>
<polyline fill="none" stroke="black" points="585.221,-399.991 585.221,-621.991 "/>
<path fill="none" stroke="black" d="M585.221,-621.991C585.221,-627.991 579.221,-633.991 573.221,-633.991"/>
<polyline fill="none" stroke="black" points="573.221,-633.991 350.221,-633.991 "/>
<path fill="none" stroke="black" d="M350.221,-633.991C344.221,-633.991 338.221,-627.991 338.221,-621.991"/>
<polyline fill="none" stroke="black" points="338.221,-621.991 338.221,-399.991 "/>
<path fill="none" stroke="black" d="M338.221,-399.991C338.221,-393.991 344.221,-387.991 350.221,-387.991"/>
<text text-anchor="middle" x="461.721" y="-617.391" font-family="Times Roman,serif" font-size="14.00">ItemsController</text>
<polyline fill="none" stroke="black" points="338.221,-607.991 585.221,-607.991 "/>
<text text-anchor="start" x="346.221" y="-591.391" font-family="Times Roman,serif" font-size="14.00">_one_time_conditions_valid_256?</text>
<text text-anchor="start" x="346.221" y="-573.391" font-family="Times Roman,serif" font-size="14.00">create</text>
<text text-anchor="start" x="346.221" y="-555.391" font-family="Times Roman,serif" font-size="14.00">destroy</text>
<text text-anchor="start" x="346.221" y="-537.391" font-family="Times Roman,serif" font-size="14.00">edit</text>
<text text-anchor="start" x="346.221" y="-519.391" font-family="Times Roman,serif" font-size="14.00">index</text>
<text text-anchor="start" x="346.221" y="-501.391" font-family="Times Roman,serif" font-size="14.00">new</text>
<text text-anchor="start" x="346.221" y="-483.391" font-family="Times Roman,serif" font-size="14.00">show</text>
<text text-anchor="start" x="346.221" y="-465.391" font-family="Times Roman,serif" font-size="14.00">update</text>
<polyline fill="none" stroke="black" points="338.221,-455.991 585.221,-455.991 "/>
<polyline fill="none" stroke="black" points="338.221,-431.991 585.221,-431.991 "/>
<text text-anchor="start" x="346.221" y="-415.391" font-family="Times Roman,serif" font-size="14.00">_layout</text>
<text text-anchor="start" x="346.221" y="-397.391" font-family="Times Roman,serif" font-size="14.00">_run_process_action_callbacks</text>
</g>
<!-- ApplicationController&#45;&gt;ItemsController -->
<g id="edge16" class="edge"><title>ApplicationController&#45;&gt;ItemsController</title>
<path fill="none" stroke="black" d="M606.088,-649.358C599.263,-642.816 592.271,-636.115 585.224,-629.361"/>
</g>
<!-- IngredientsController -->
<g id="node11" class="node"><title>IngredientsController</title>
<polyline fill="none" stroke="black" points="752.246,-1.5 975.246,-1.5 "/>
<path fill="none" stroke="black" d="M975.246,-1.5C981.246,-1.5 987.246,-7.5 987.246,-13.5"/>
<polyline fill="none" stroke="black" points="987.246,-13.5 987.246,-235.5 "/>
<path fill="none" stroke="black" d="M987.246,-235.5C987.246,-241.5 981.246,-247.5 975.246,-247.5"/>
<polyline fill="none" stroke="black" points="975.246,-247.5 752.246,-247.5 "/>
<path fill="none" stroke="black" d="M752.246,-247.5C746.246,-247.5 740.246,-241.5 740.246,-235.5"/>
<polyline fill="none" stroke="black" points="740.246,-235.5 740.246,-13.5 "/>
<path fill="none" stroke="black" d="M740.246,-13.5C740.246,-7.5 746.246,-1.5 752.246,-1.5"/>
<text text-anchor="middle" x="863.746" y="-230.9" font-family="Times Roman,serif" font-size="14.00">IngredientsController</text>
<polyline fill="none" stroke="black" points="740.246,-221.5 987.246,-221.5 "/>
<text text-anchor="start" x="748.246" y="-204.9" font-family="Times Roman,serif" font-size="14.00">_one_time_conditions_valid_290?</text>
<text text-anchor="start" x="748.246" y="-186.9" font-family="Times Roman,serif" font-size="14.00">create</text>
<text text-anchor="start" x="748.246" y="-168.9" font-family="Times Roman,serif" font-size="14.00">destroy</text>
<text text-anchor="start" x="748.246" y="-150.9" font-family="Times Roman,serif" font-size="14.00">edit</text>
<text text-anchor="start" x="748.246" y="-132.9" font-family="Times Roman,serif" font-size="14.00">index</text>
<text text-anchor="start" x="748.246" y="-114.9" font-family="Times Roman,serif" font-size="14.00">new</text>
<text text-anchor="start" x="748.246" y="-96.9" font-family="Times Roman,serif" font-size="14.00">show</text>
<text text-anchor="start" x="748.246" y="-78.9" font-family="Times Roman,serif" font-size="14.00">update</text>
<polyline fill="none" stroke="black" points="740.246,-69.5 987.246,-69.5 "/>
<polyline fill="none" stroke="black" points="740.246,-45.5 987.246,-45.5 "/>
<text text-anchor="start" x="748.246" y="-28.9" font-family="Times Roman,serif" font-size="14.00">_layout</text>
<text text-anchor="start" x="748.246" y="-10.9" font-family="Times Roman,serif" font-size="14.00">_run_process_action_callbacks</text>
</g>
<!-- ApplicationController&#45;&gt;IngredientsController -->
<g id="edge18" class="edge"><title>ApplicationController&#45;&gt;IngredientsController</title>
<path fill="none" stroke="black" d="M693.985,-649.471C701.718,-573.18 717.904,-454.473 749.639,-355.963 761.351,-319.609 777.916,-281.799 794.804,-247.535"/>
</g>
<!-- OrdersController -->
<g id="node12" class="node"><title>OrdersController</title>
<polyline fill="none" stroke="black" points="459.493,-35.6751 567.493,-35.6751 "/>
<path fill="none" stroke="black" d="M567.493,-35.6751C573.493,-35.6751 579.493,-41.6751 579.493,-47.6751"/>
<polyline fill="none" stroke="black" points="579.493,-47.6751 579.493,-233.675 "/>
<path fill="none" stroke="black" d="M579.493,-233.675C579.493,-239.675 573.493,-245.675 567.493,-245.675"/>
<polyline fill="none" stroke="black" points="567.493,-245.675 459.493,-245.675 "/>
<path fill="none" stroke="black" d="M459.493,-245.675C453.493,-245.675 447.493,-239.675 447.493,-233.675"/>
<polyline fill="none" stroke="black" points="447.493,-233.675 447.493,-47.6751 "/>
<path fill="none" stroke="black" d="M447.493,-47.6751C447.493,-41.6751 453.493,-35.6751 459.493,-35.6751"/>
<text text-anchor="middle" x="513.493" y="-229.075" font-family="Times Roman,serif" font-size="14.00">OrdersController</text>
<polyline fill="none" stroke="black" points="447.493,-219.675 579.493,-219.675 "/>
<text text-anchor="start" x="455.493" y="-203.075" font-family="Times Roman,serif" font-size="14.00">create</text>
<text text-anchor="start" x="455.493" y="-185.075" font-family="Times Roman,serif" font-size="14.00">destroy</text>
<text text-anchor="start" x="455.493" y="-167.075" font-family="Times Roman,serif" font-size="14.00">edit</text>
<text text-anchor="start" x="455.493" y="-149.075" font-family="Times Roman,serif" font-size="14.00">index</text>
<text text-anchor="start" x="455.493" y="-131.075" font-family="Times Roman,serif" font-size="14.00">new</text>
<text text-anchor="start" x="455.493" y="-113.075" font-family="Times Roman,serif" font-size="14.00">show</text>
<text text-anchor="start" x="455.493" y="-95.0751" font-family="Times Roman,serif" font-size="14.00">update</text>
<polyline fill="none" stroke="black" points="447.493,-85.6751 579.493,-85.6751 "/>
<polyline fill="none" stroke="black" points="447.493,-61.6751 579.493,-61.6751 "/>
<text text-anchor="start" x="455.493" y="-45.0751" font-family="Times Roman,serif" font-size="14.00">_layout</text>
</g>
<!-- ApplicationController&#45;&gt;OrdersController -->
<g id="edge20" class="edge"><title>ApplicationController&#45;&gt;OrdersController</title>
<path fill="none" stroke="black" d="M665.447,-649.5C645.564,-579.963 615.463,-475.47 588.421,-384.791 574.801,-339.121 559.408,-288.76 546.131,-245.702"/>
</g>
<!-- Admin::AdminController -->
<g id="node13" class="node"><title>Admin::AdminController</title>
<polyline fill="none" stroke="black" points="13,-817.75 236,-817.75 "/>
<path fill="none" stroke="black" d="M236,-817.75C242,-817.75 248,-823.75 248,-829.75"/>
<polyline fill="none" stroke="black" points="248,-829.75 248,-961.75 "/>
<path fill="none" stroke="black" d="M248,-961.75C248,-967.75 242,-973.75 236,-973.75"/>
<polyline fill="none" stroke="black" points="236,-973.75 13,-973.75 "/>
<path fill="none" stroke="black" d="M13,-973.75C7,-973.75 1,-967.75 1,-961.75"/>
<polyline fill="none" stroke="black" points="1,-961.75 1,-829.75 "/>
<path fill="none" stroke="black" d="M1,-829.75C1,-823.75 7,-817.75 13,-817.75"/>
<text text-anchor="middle" x="124.5" y="-957.15" font-family="Times Roman,serif" font-size="14.00">Admin::AdminController</text>
<polyline fill="none" stroke="black" points="1,-947.75 248,-947.75 "/>
<text text-anchor="start" x="9" y="-931.15" font-family="Times Roman,serif" font-size="14.00">_one_time_conditions_valid_308?</text>
<text text-anchor="start" x="9" y="-913.15" font-family="Times Roman,serif" font-size="14.00">current_ability</text>
<text text-anchor="start" x="9" y="-895.15" font-family="Times Roman,serif" font-size="14.00">verify_admin</text>
<polyline fill="none" stroke="black" points="1,-885.75 248,-885.75 "/>
<polyline fill="none" stroke="black" points="1,-861.75 248,-861.75 "/>
<text text-anchor="start" x="9" y="-845.15" font-family="Times Roman,serif" font-size="14.00">_layout</text>
<text text-anchor="start" x="9" y="-827.15" font-family="Times Roman,serif" font-size="14.00">_run_process_action_callbacks</text>
</g>
<!-- ApplicationController&#45;&gt;Admin::AdminController -->
<g id="edge22" class="edge"><title>ApplicationController&#45;&gt;Admin::AdminController</title>
<path fill="none" stroke="black" d="M568.569,-763.107C474.477,-791.212 343.583,-830.31 248.291,-858.774"/>
</g>
<!-- HomeController -->
<g id="node15" class="node"><title>HomeController</title>
<polyline fill="none" stroke="black" points="1175.69,-492.066 1276.69,-492.066 "/>
<path fill="none" stroke="black" d="M1276.69,-492.066C1282.69,-492.066 1288.69,-498.066 1288.69,-504.066"/>
<polyline fill="none" stroke="black" points="1288.69,-504.066 1288.69,-582.066 "/>
<path fill="none" stroke="black" d="M1288.69,-582.066C1288.69,-588.066 1282.69,-594.066 1276.69,-594.066"/>
<polyline fill="none" stroke="black" points="1276.69,-594.066 1175.69,-594.066 "/>
<path fill="none" stroke="black" d="M1175.69,-594.066C1169.69,-594.066 1163.69,-588.066 1163.69,-582.066"/>
<polyline fill="none" stroke="black" points="1163.69,-582.066 1163.69,-504.066 "/>
<path fill="none" stroke="black" d="M1163.69,-504.066C1163.69,-498.066 1169.69,-492.066 1175.69,-492.066"/>
<text text-anchor="middle" x="1226.19" y="-577.466" font-family="Times Roman,serif" font-size="14.00">HomeController</text>
<polyline fill="none" stroke="black" points="1163.69,-568.066 1288.69,-568.066 "/>
<text text-anchor="start" x="1171.69" y="-551.466" font-family="Times Roman,serif" font-size="14.00">index</text>
<polyline fill="none" stroke="black" points="1163.69,-542.066 1288.69,-542.066 "/>
<polyline fill="none" stroke="black" points="1163.69,-518.066 1288.69,-518.066 "/>
<text text-anchor="start" x="1171.69" y="-501.466" font-family="Times Roman,serif" font-size="14.00">_layout</text>
</g>
<!-- ApplicationController&#45;&gt;HomeController -->
<g id="edge24" class="edge"><title>ApplicationController&#45;&gt;HomeController</title>
<path fill="none" stroke="black" d="M806.84,-686.71C916.979,-648.983 1076.34,-594.395 1163.47,-564.549"/>
</g>
<!-- AromasController -->
<g id="node16" class="node"><title>AromasController</title>
<polyline fill="none" stroke="black" points="1063.31,-1157.01 1286.31,-1157.01 "/>
<path fill="none" stroke="black" d="M1286.31,-1157.01C1292.31,-1157.01 1298.31,-1163.01 1298.31,-1169.01"/>
<polyline fill="none" stroke="black" points="1298.31,-1169.01 1298.31,-1391.01 "/>
<path fill="none" stroke="black" d="M1298.31,-1391.01C1298.31,-1397.01 1292.31,-1403.01 1286.31,-1403.01"/>
<polyline fill="none" stroke="black" points="1286.31,-1403.01 1063.31,-1403.01 "/>
<path fill="none" stroke="black" d="M1063.31,-1403.01C1057.31,-1403.01 1051.31,-1397.01 1051.31,-1391.01"/>
<polyline fill="none" stroke="black" points="1051.31,-1391.01 1051.31,-1169.01 "/>
<path fill="none" stroke="black" d="M1051.31,-1169.01C1051.31,-1163.01 1057.31,-1157.01 1063.31,-1157.01"/>
<text text-anchor="middle" x="1174.81" y="-1386.41" font-family="Times Roman,serif" font-size="14.00">AromasController</text>
<polyline fill="none" stroke="black" points="1051.31,-1377.01 1298.31,-1377.01 "/>
<text text-anchor="start" x="1059.31" y="-1360.41" font-family="Times Roman,serif" font-size="14.00">_one_time_conditions_valid_322?</text>
<text text-anchor="start" x="1059.31" y="-1342.41" font-family="Times Roman,serif" font-size="14.00">create</text>
<text text-anchor="start" x="1059.31" y="-1324.41" font-family="Times Roman,serif" font-size="14.00">destroy</text>
<text text-anchor="start" x="1059.31" y="-1306.41" font-family="Times Roman,serif" font-size="14.00">edit</text>
<text text-anchor="start" x="1059.31" y="-1288.41" font-family="Times Roman,serif" font-size="14.00">index</text>
<text text-anchor="start" x="1059.31" y="-1270.41" font-family="Times Roman,serif" font-size="14.00">new</text>
<text text-anchor="start" x="1059.31" y="-1252.41" font-family="Times Roman,serif" font-size="14.00">show</text>
<text text-anchor="start" x="1059.31" y="-1234.41" font-family="Times Roman,serif" font-size="14.00">update</text>
<polyline fill="none" stroke="black" points="1051.31,-1225.01 1298.31,-1225.01 "/>
<polyline fill="none" stroke="black" points="1051.31,-1201.01 1298.31,-1201.01 "/>
<text text-anchor="start" x="1059.31" y="-1184.41" font-family="Times Roman,serif" font-size="14.00">_layout</text>
<text text-anchor="start" x="1059.31" y="-1166.41" font-family="Times Roman,serif" font-size="14.00">_run_process_action_callbacks</text>
</g>
<!-- ApplicationController&#45;&gt;AromasController -->
<g id="edge26" class="edge"><title>ApplicationController&#45;&gt;AromasController</title>
<path fill="none" stroke="black" d="M688.681,-805.746C693.563,-883.081 711.87,-1000.95 774.796,-1079.64 844.405,-1166.69 961.666,-1219.11 1051.28,-1248.37"/>
</g>
<!-- ManufacturersController -->
<g id="node17" class="node"><title>ManufacturersController</title>
<polyline fill="none" stroke="black" points="571.391,-1167.11 794.391,-1167.11 "/>
<path fill="none" stroke="black" d="M794.391,-1167.11C800.391,-1167.11 806.391,-1173.11 806.391,-1179.11"/>
<polyline fill="none" stroke="black" points="806.391,-1179.11 806.391,-1401.11 "/>
<path fill="none" stroke="black" d="M806.391,-1401.11C806.391,-1407.11 800.391,-1413.11 794.391,-1413.11"/>
<polyline fill="none" stroke="black" points="794.391,-1413.11 571.391,-1413.11 "/>
<path fill="none" stroke="black" d="M571.391,-1413.11C565.391,-1413.11 559.391,-1407.11 559.391,-1401.11"/>
<polyline fill="none" stroke="black" points="559.391,-1401.11 559.391,-1179.11 "/>
<path fill="none" stroke="black" d="M559.391,-1179.11C559.391,-1173.11 565.391,-1167.11 571.391,-1167.11"/>
<text text-anchor="middle" x="682.891" y="-1396.51" font-family="Times Roman,serif" font-size="14.00">ManufacturersController</text>
<polyline fill="none" stroke="black" points="559.391,-1387.11 806.391,-1387.11 "/>
<text text-anchor="start" x="567.391" y="-1370.51" font-family="Times Roman,serif" font-size="14.00">_one_time_conditions_valid_328?</text>
<text text-anchor="start" x="567.391" y="-1352.51" font-family="Times Roman,serif" font-size="14.00">create</text>
<text text-anchor="start" x="567.391" y="-1334.51" font-family="Times Roman,serif" font-size="14.00">destroy</text>
<text text-anchor="start" x="567.391" y="-1316.51" font-family="Times Roman,serif" font-size="14.00">edit</text>
<text text-anchor="start" x="567.391" y="-1298.51" font-family="Times Roman,serif" font-size="14.00">index</text>
<text text-anchor="start" x="567.391" y="-1280.51" font-family="Times Roman,serif" font-size="14.00">new</text>
<text text-anchor="start" x="567.391" y="-1262.51" font-family="Times Roman,serif" font-size="14.00">show</text>
<text text-anchor="start" x="567.391" y="-1244.51" font-family="Times Roman,serif" font-size="14.00">update</text>
<polyline fill="none" stroke="black" points="559.391,-1235.11 806.391,-1235.11 "/>
<polyline fill="none" stroke="black" points="559.391,-1211.11 806.391,-1211.11 "/>
<text text-anchor="start" x="567.391" y="-1194.51" font-family="Times Roman,serif" font-size="14.00">_layout</text>
<text text-anchor="start" x="567.391" y="-1176.51" font-family="Times Roman,serif" font-size="14.00">_run_process_action_callbacks</text>
</g>
<!-- ApplicationController&#45;&gt;ManufacturersController -->
<g id="edge28" class="edge"><title>ApplicationController&#45;&gt;ManufacturersController</title>
<path fill="none" stroke="black" d="M686.993,-805.759C686.201,-899.277 684.866,-1056.91 683.935,-1166.86"/>
</g>
<!-- TastesController -->
<g id="node18" class="node"><title>TastesController</title>
<polyline fill="none" stroke="black" points="764.839,-359.163 987.839,-359.163 "/>
<path fill="none" stroke="black" d="M987.839,-359.163C993.839,-359.163 999.839,-365.163 999.839,-371.163"/>
<polyline fill="none" stroke="black" points="999.839,-371.163 999.839,-593.163 "/>
<path fill="none" stroke="black" d="M999.839,-593.163C999.839,-599.163 993.839,-605.163 987.839,-605.163"/>
<polyline fill="none" stroke="black" points="987.839,-605.163 764.839,-605.163 "/>
<path fill="none" stroke="black" d="M764.839,-605.163C758.839,-605.163 752.839,-599.163 752.839,-593.163"/>
<polyline fill="none" stroke="black" points="752.839,-593.163 752.839,-371.163 "/>
<path fill="none" stroke="black" d="M752.839,-371.163C752.839,-365.163 758.839,-359.163 764.839,-359.163"/>
<text text-anchor="middle" x="876.339" y="-588.563" font-family="Times Roman,serif" font-size="14.00">TastesController</text>
<polyline fill="none" stroke="black" points="752.839,-579.163 999.839,-579.163 "/>
<text text-anchor="start" x="760.839" y="-562.563" font-family="Times Roman,serif" font-size="14.00">_one_time_conditions_valid_344?</text>
<text text-anchor="start" x="760.839" y="-544.563" font-family="Times Roman,serif" font-size="14.00">create</text>
<text text-anchor="start" x="760.839" y="-526.563" font-family="Times Roman,serif" font-size="14.00">destroy</text>
<text text-anchor="start" x="760.839" y="-508.563" font-family="Times Roman,serif" font-size="14.00">edit</text>
<text text-anchor="start" x="760.839" y="-490.563" font-family="Times Roman,serif" font-size="14.00">index</text>
<text text-anchor="start" x="760.839" y="-472.563" font-family="Times Roman,serif" font-size="14.00">new</text>
<text text-anchor="start" x="760.839" y="-454.563" font-family="Times Roman,serif" font-size="14.00">show</text>
<text text-anchor="start" x="760.839" y="-436.563" font-family="Times Roman,serif" font-size="14.00">update</text>
<polyline fill="none" stroke="black" points="752.839,-427.163 999.839,-427.163 "/>
<polyline fill="none" stroke="black" points="752.839,-403.163 999.839,-403.163 "/>
<text text-anchor="start" x="760.839" y="-386.563" font-family="Times Roman,serif" font-size="14.00">_layout</text>
<text text-anchor="start" x="760.839" y="-368.563" font-family="Times Roman,serif" font-size="14.00">_run_process_action_callbacks</text>
</g>
<!-- ApplicationController&#45;&gt;TastesController -->
<g id="edge30" class="edge"><title>ApplicationController&#45;&gt;TastesController</title>
<path fill="none" stroke="black" d="M747.875,-649.223C758.66,-635.198 770.133,-620.278 781.613,-605.349"/>
</g>
<!-- Admin::UsersController -->
<g id="node14" class="node"><title>Admin::UsersController</title>
<polyline fill="none" stroke="black" points="1437,-1158.5 1589,-1158.5 "/>
<path fill="none" stroke="black" d="M1589,-1158.5C1595,-1158.5 1601,-1164.5 1601,-1170.5"/>
<polyline fill="none" stroke="black" points="1601,-1170.5 1601,-1356.5 "/>
<path fill="none" stroke="black" d="M1601,-1356.5C1601,-1362.5 1595,-1368.5 1589,-1368.5"/>
<polyline fill="none" stroke="black" points="1589,-1368.5 1437,-1368.5 "/>
<path fill="none" stroke="black" d="M1437,-1368.5C1431,-1368.5 1425,-1362.5 1425,-1356.5"/>
<polyline fill="none" stroke="black" points="1425,-1356.5 1425,-1170.5 "/>
<path fill="none" stroke="black" d="M1425,-1170.5C1425,-1164.5 1431,-1158.5 1437,-1158.5"/>
<text text-anchor="middle" x="1513" y="-1351.9" font-family="Times Roman,serif" font-size="14.00">Admin::UsersController</text>
<polyline fill="none" stroke="black" points="1425,-1342.5 1601,-1342.5 "/>
<text text-anchor="start" x="1433" y="-1325.9" font-family="Times Roman,serif" font-size="14.00">create</text>
<text text-anchor="start" x="1433" y="-1307.9" font-family="Times Roman,serif" font-size="14.00">destroy</text>
<text text-anchor="start" x="1433" y="-1289.9" font-family="Times Roman,serif" font-size="14.00">edit</text>
<text text-anchor="start" x="1433" y="-1271.9" font-family="Times Roman,serif" font-size="14.00">index</text>
<text text-anchor="start" x="1433" y="-1253.9" font-family="Times Roman,serif" font-size="14.00">new</text>
<text text-anchor="start" x="1433" y="-1235.9" font-family="Times Roman,serif" font-size="14.00">show</text>
<text text-anchor="start" x="1433" y="-1217.9" font-family="Times Roman,serif" font-size="14.00">update</text>
<polyline fill="none" stroke="black" points="1425,-1208.5 1601,-1208.5 "/>
<polyline fill="none" stroke="black" points="1425,-1184.5 1601,-1184.5 "/>
<text text-anchor="start" x="1433" y="-1167.9" font-family="Times Roman,serif" font-size="14.00">_layout</text>
</g>
</g>
</svg>
