<?xml version="1.0" encoding="UTF-8" standalone="no"?>
<!DOCTYPE svg PUBLIC "-//W3C//DTD SVG 1.1//EN"
 "http://www.w3.org/Graphics/SVG/1.1/DTD/svg11.dtd">
<!-- Generated by graphviz version 2.26.3 (20100126.1600)
 -->
<!-- Title: controllers_diagram Pages: 1 -->
<svg width="1980pt" height="1066pt"
 viewBox="0.00 0.00 1980.45 1065.61" xmlns="http://www.w3.org/2000/svg" xmlns:xlink="http://www.w3.org/1999/xlink">
<g id="graph1" class="graph" transform="scale(1 1) rotate(0) translate(4 1061.61)">
<title>controllers_diagram</title>
<polygon fill="white" stroke="white" points="-4,5 -4,-1061.61 1977.45,-1061.61 1977.45,5 -4,5"/>
<!-- _diagram_info -->
<g id="node1" class="node"><title>_diagram_info</title>
<text text-anchor="start" x="1269" y="-78.3" font-family="Times Roman,serif" font-size="13.00">Controllers diagram</text>
<text text-anchor="start" x="1269" y="-61.3" font-family="Times Roman,serif" font-size="13.00">Date: Aug 21 2013 &#45; 16:15</text>
<text text-anchor="start" x="1269" y="-44.3" font-family="Times Roman,serif" font-size="13.00">Migration version: 20130602104513</text>
<text text-anchor="start" x="1269" y="-27.3" font-family="Times Roman,serif" font-size="13.00">Generated by RailRoady 1.1.0</text>
<text text-anchor="start" x="1269" y="-10.3" font-family="Times Roman,serif" font-size="13.00">http://railroady.prestonlee.com</text>
</g>
<!-- SandwichesController -->
<g id="node2" class="node"><title>SandwichesController</title>
<ellipse fill="none" stroke="black" cx="143.646" cy="-265.246" rx="118.087" ry="18.3848"/>
<text text-anchor="middle" x="143.646" y="-261.646" font-family="Times Roman,serif" font-size="14.00">SandwichesController</text>
</g>
<!-- BeveragecategoriesController -->
<g id="node3" class="node"><title>BeveragecategoriesController</title>
<ellipse fill="none" stroke="black" cx="1530.04" cy="-562.473" rx="155.771" ry="18.3848"/>
<text text-anchor="middle" x="1530.04" y="-558.873" font-family="Times Roman,serif" font-size="14.00">BeveragecategoriesController</text>
</g>
<!-- BeveragesController -->
<g id="node4" class="node"><title>BeveragesController</title>
<ellipse fill="none" stroke="black" cx="761.492" cy="-219.378" rx="111.016" ry="18.3848"/>
<text text-anchor="middle" x="761.492" y="-215.778" font-family="Times Roman,serif" font-size="14.00">BeveragesController</text>
</g>
<!-- FoamsController -->
<g id="node5" class="node"><title>FoamsController</title>
<ellipse fill="none" stroke="black" cx="665.562" cy="-1033.56" rx="91.2168" ry="18.3848"/>
<text text-anchor="middle" x="665.562" y="-1029.96" font-family="Times Roman,serif" font-size="14.00">FoamsController</text>
</g>
<!-- CountriesController -->
<g id="node6" class="node"><title>CountriesController</title>
<ellipse fill="none" stroke="black" cx="1336.29" cy="-748.681" rx="106.98" ry="18.3848"/>
<text text-anchor="middle" x="1336.29" y="-745.081" font-family="Times Roman,serif" font-size="14.00">CountriesController</text>
</g>
<!-- ApplicationController -->
<g id="node7" class="node"><title>ApplicationController</title>
<ellipse fill="none" stroke="black" cx="975.612" cy="-602.121" rx="113.844" ry="18.3848"/>
<text text-anchor="middle" x="975.612" y="-598.521" font-family="Times Roman,serif" font-size="14.00">ApplicationController</text>
</g>
<!-- ApplicationController&#45;&gt;SandwichesController -->
<g id="edge2" class="edge"><title>ApplicationController&#45;&gt;SandwichesController</title>
<path fill="none" stroke="black" d="M912.487,-586.684C845.777,-569.787 737.858,-540.78 646.995,-508.614 460.333,-442.536 251.532,-327.229 174.409,-283.112"/>
</g>
<!-- ApplicationController&#45;&gt;BeveragecategoriesController -->
<g id="edge4" class="edge"><title>ApplicationController&#45;&gt;BeveragecategoriesController</title>
<path fill="none" stroke="black" d="M1080.22,-594.64C1169.81,-588.233 1299.35,-578.97 1396.43,-572.027"/>
</g>
<!-- ApplicationController&#45;&gt;BeveragesController -->
<g id="edge6" class="edge"><title>ApplicationController&#45;&gt;BeveragesController</title>
<path fill="none" stroke="black" d="M965.284,-583.66C929.113,-519.002 808.367,-303.168 771.966,-238.102"/>
</g>
<!-- ApplicationController&#45;&gt;FoamsController -->
<g id="edge8" class="edge"><title>ApplicationController&#45;&gt;FoamsController</title>
<path fill="none" stroke="black" d="M929.491,-619.147C868.848,-644.08 763.79,-696.566 710.639,-777.691 660.46,-854.281 661.517,-970.292 664.106,-1015.04"/>
</g>
<!-- ApplicationController&#45;&gt;CountriesController -->
<g id="edge10" class="edge"><title>ApplicationController&#45;&gt;CountriesController</title>
<path fill="none" stroke="black" d="M1018.05,-619.364C1087.6,-647.626 1225.03,-703.471 1294.3,-731.616"/>
</g>
<!-- BeersController -->
<g id="node8" class="node"><title>BeersController</title>
<ellipse fill="none" stroke="black" cx="494.053" cy="-232.398" rx="87.1802" ry="18.3848"/>
<text text-anchor="middle" x="494.053" y="-228.798" font-family="Times Roman,serif" font-size="14.00">BeersController</text>
</g>
<!-- ApplicationController&#45;&gt;BeersController -->
<g id="edge12" class="edge"><title>ApplicationController&#45;&gt;BeersController</title>
<path fill="none" stroke="black" d="M954.103,-583.928C928.382,-562.293 883.896,-525.253 844.799,-494.597 724.543,-400.306 576.902,-292.443 519.013,-250.448"/>
</g>
<!-- FoodsController -->
<g id="node9" class="node"><title>FoodsController</title>
<ellipse fill="none" stroke="black" cx="1847.3" cy="-266.507" rx="87.1802" ry="18.3848"/>
<text text-anchor="middle" x="1847.3" y="-262.907" font-family="Times Roman,serif" font-size="14.00">FoodsController</text>
</g>
<!-- ApplicationController&#45;&gt;FoodsController -->
<g id="edge14" class="edge"><title>ApplicationController&#45;&gt;FoodsController</title>
<path fill="none" stroke="black" d="M1000.5,-584.009C1029.85,-563.141 1080.56,-528.608 1127.24,-504.287 1142.01,-496.588 1146.3,-495.851 1161.94,-490.114 1396.66,-404.023 1682.35,-316.143 1796.57,-281.68"/>
</g>
<!-- BruschettaController -->
<g id="node10" class="node"><title>BruschettaController</title>
<ellipse fill="none" stroke="black" cx="729.201" cy="-494.483" rx="113.844" ry="18.3848"/>
<text text-anchor="middle" x="729.201" y="-490.883" font-family="Times Roman,serif" font-size="14.00">BruschettaController</text>
</g>
<!-- ApplicationController&#45;&gt;BruschettaController -->
<g id="edge16" class="edge"><title>ApplicationController&#45;&gt;BruschettaController</title>
<path fill="none" stroke="black" d="M935.748,-584.707C889.845,-564.656 814.886,-531.912 769.008,-511.871"/>
</g>
<!-- ItemstatusesController -->
<g id="node11" class="node"><title>ItemstatusesController</title>
<ellipse fill="none" stroke="black" cx="1246.52" cy="-225.181" rx="123.037" ry="18.3848"/>
<text text-anchor="middle" x="1246.52" y="-221.581" font-family="Times Roman,serif" font-size="14.00">ItemstatusesController</text>
</g>
<!-- ApplicationController&#45;&gt;ItemstatusesController -->
<g id="edge18" class="edge"><title>ApplicationController&#45;&gt;ItemstatusesController</title>
<path fill="none" stroke="black" d="M988.862,-583.685C1034.86,-519.684 1187.34,-307.528 1233.3,-243.581"/>
</g>
<!-- LidsController -->
<g id="node12" class="node"><title>LidsController</title>
<ellipse fill="none" stroke="black" cx="993.883" cy="-411.123" rx="79.196" ry="18.3848"/>
<text text-anchor="middle" x="993.883" y="-407.523" font-family="Times Roman,serif" font-size="14.00">LidsController</text>
</g>
<!-- ApplicationController&#45;&gt;LidsController -->
<g id="edge20" class="edge"><title>ApplicationController&#45;&gt;LidsController</title>
<path fill="none" stroke="black" d="M977.397,-583.459C980.89,-546.945 988.591,-466.435 992.09,-429.86"/>
</g>
<!-- ColorsController -->
<g id="node13" class="node"><title>ColorsController</title>
<ellipse fill="none" stroke="black" cx="137.263" cy="-635.507" rx="90.0096" ry="18.3848"/>
<text text-anchor="middle" x="137.263" y="-631.907" font-family="Times Roman,serif" font-size="14.00">ColorsController</text>
</g>
<!-- ApplicationController&#45;&gt;ColorsController -->
<g id="edge22" class="edge"><title>ApplicationController&#45;&gt;ColorsController</title>
<path fill="none" stroke="black" d="M864.718,-606.537C696.391,-613.24 379.743,-625.851 225.793,-631.982"/>
</g>
<!-- BeerstylesController -->
<g id="node14" class="node"><title>BeerstylesController</title>
<ellipse fill="none" stroke="black" cx="1851.11" cy="-633.093" rx="111.016" ry="18.3848"/>
<text text-anchor="middle" x="1851.11" y="-629.493" font-family="Times Roman,serif" font-size="14.00">BeerstylesController</text>
</g>
<!-- ApplicationController&#45;&gt;BeerstylesController -->
<g id="edge24" class="edge"><title>ApplicationController&#45;&gt;BeerstylesController</title>
<path fill="none" stroke="black" d="M1087.38,-606.075C1256.45,-612.056 1575.17,-623.331 1742.41,-629.248"/>
</g>
<!-- ContainersController -->
<g id="node15" class="node"><title>ContainersController</title>
<ellipse fill="none" stroke="black" cx="1858.45" cy="-990.62" rx="113.137" ry="18.3848"/>
<text text-anchor="middle" x="1858.45" y="-987.02" font-family="Times Roman,serif" font-size="14.00">ContainersController</text>
</g>
<!-- ApplicationController&#45;&gt;ContainersController -->
<g id="edge26" class="edge"><title>ApplicationController&#45;&gt;ContainersController</title>
<path fill="none" stroke="black" d="M1004.6,-620.174C1050.97,-648.774 1145.03,-705.643 1227.7,-748.492 1431.55,-854.149 1692.45,-939.794 1803.96,-974.255"/>
</g>
<!-- ItemsController -->
<g id="node16" class="node"><title>ItemsController</title>
<ellipse fill="none" stroke="black" cx="1102.17" cy="-1030.71" rx="86.9741" ry="18.3848"/>
<text text-anchor="middle" x="1102.17" y="-1027.11" font-family="Times Roman,serif" font-size="14.00">ItemsController</text>
</g>
<!-- ApplicationController&#45;&gt;ItemsController -->
<g id="edge28" class="edge"><title>ApplicationController&#45;&gt;ItemsController</title>
<path fill="none" stroke="black" d="M977.209,-620.64C980.264,-652.684 988,-720.358 1002.95,-775.742 1027.64,-867.226 1074.11,-970.964 1093.41,-1012.3"/>
</g>
<!-- IngredientsController -->
<g id="node17" class="node"><title>IngredientsController</title>
<ellipse fill="none" stroke="black" cx="1243.84" cy="-504.422" rx="114.759" ry="18.3848"/>
<text text-anchor="middle" x="1243.84" y="-500.822" font-family="Times Roman,serif" font-size="14.00">IngredientsController</text>
</g>
<!-- ApplicationController&#45;&gt;IngredientsController -->
<g id="edge30" class="edge"><title>ApplicationController&#45;&gt;IngredientsController</title>
<path fill="none" stroke="black" d="M1022.03,-585.214C1071.06,-567.355 1147.94,-539.353 1197.09,-521.448"/>
</g>
<!-- OrdersController -->
<g id="node18" class="node"><title>OrdersController</title>
<ellipse fill="none" stroke="black" cx="1504.82" cy="-240.574" rx="92.1303" ry="18.3848"/>
<text text-anchor="middle" x="1504.82" y="-236.974" font-family="Times Roman,serif" font-size="14.00">OrdersController</text>
</g>
<!-- ApplicationController&#45;&gt;OrdersController -->
<g id="edge32" class="edge"><title>ApplicationController&#45;&gt;OrdersController</title>
<path fill="none" stroke="black" d="M1002.22,-583.944C1092.87,-522.012 1389,-319.695 1478.78,-258.36"/>
</g>
<!-- LineItemsController -->
<g id="node19" class="node"><title>LineItemsController</title>
<ellipse fill="none" stroke="black" cx="428.62" cy="-961.142" rx="108.187" ry="18.3848"/>
<text text-anchor="middle" x="428.62" y="-957.542" font-family="Times Roman,serif" font-size="14.00">LineItemsController</text>
</g>
<!-- ApplicationController&#45;&gt;LineItemsController -->
<g id="edge34" class="edge"><title>ApplicationController&#45;&gt;LineItemsController</title>
<path fill="none" stroke="black" d="M948.112,-620.171C854.631,-681.527 549.738,-881.645 456.175,-943.056"/>
</g>
<!-- Admin::AdminController -->
<g id="node20" class="node"><title>Admin::AdminController</title>
<ellipse fill="none" stroke="black" cx="129" cy="-990.175" rx="127.986" ry="18.3848"/>
<text text-anchor="middle" x="129" y="-986.575" font-family="Times Roman,serif" font-size="14.00">Admin::AdminController</text>
</g>
<!-- ApplicationController&#45;&gt;Admin::AdminController -->
<g id="edge36" class="edge"><title>ApplicationController&#45;&gt;Admin::AdminController</title>
<path fill="none" stroke="black" d="M941.294,-619.994C885.906,-648.675 773.177,-706.363 675.984,-751.779 489.692,-838.827 263.435,-934.214 171.194,-972.672"/>
</g>
<!-- FoodcategoriesController -->
<g id="node22" class="node"><title>FoodcategoriesController</title>
<ellipse fill="none" stroke="black" cx="845.237" cy="-777.802" rx="132.936" ry="18.3848"/>
<text text-anchor="middle" x="845.237" y="-774.202" font-family="Times Roman,serif" font-size="14.00">FoodcategoriesController</text>
</g>
<!-- ApplicationController&#45;&gt;FoodcategoriesController -->
<g id="edge38" class="edge"><title>ApplicationController&#45;&gt;FoodcategoriesController</title>
<path fill="none" stroke="black" d="M961.906,-620.59C936.866,-654.331 884.003,-725.564 858.955,-759.317"/>
</g>
<!-- HomeController -->
<g id="node23" class="node"><title>HomeController</title>
<ellipse fill="none" stroke="black" cx="613.046" cy="-737.473" rx="87.889" ry="18.3848"/>
<text text-anchor="middle" x="613.046" y="-733.873" font-family="Times Roman,serif" font-size="14.00">HomeController</text>
</g>
<!-- ApplicationController&#45;&gt;HomeController -->
<g id="edge40" class="edge"><title>ApplicationController&#45;&gt;HomeController</title>
<path fill="none" stroke="black" d="M930.06,-619.126C859.689,-645.397 725.471,-695.502 656.435,-721.275"/>
</g>
<!-- CartsController -->
<g id="node24" class="node"><title>CartsController</title>
<ellipse fill="none" stroke="black" cx="443.949" cy="-543.549" rx="85.7684" ry="18.3848"/>
<text text-anchor="middle" x="443.949" y="-539.949" font-family="Times Roman,serif" font-size="14.00">CartsController</text>
</g>
<!-- ApplicationController&#45;&gt;CartsController -->
<g id="edge42" class="edge"><title>ApplicationController&#45;&gt;CartsController</title>
<path fill="none" stroke="black" d="M881.174,-591.717C778.376,-580.392 615.969,-562.5 520.709,-552.006"/>
</g>
<!-- AromasController -->
<g id="node25" class="node"><title>AromasController</title>
<ellipse fill="none" stroke="black" cx="1101.55" cy="-775.781" rx="96.8736" ry="18.3848"/>
<text text-anchor="middle" x="1101.55" y="-772.181" font-family="Times Roman,serif" font-size="14.00">AromasController</text>
</g>
<!-- ApplicationController&#45;&gt;AromasController -->
<g id="edge44" class="edge"><title>ApplicationController&#45;&gt;AromasController</title>
<path fill="none" stroke="black" d="M989.089,-620.705C1013.33,-654.13 1064,-724.002 1088.17,-757.33"/>
</g>
<!-- ManufacturersController -->
<g id="node26" class="node"><title>ManufacturersController</title>
<ellipse fill="none" stroke="black" cx="1328.33" cy="-1038.11" rx="130.815" ry="18.3848"/>
<text text-anchor="middle" x="1328.33" y="-1034.51" font-family="Times Roman,serif" font-size="14.00">ManufacturersController</text>
</g>
<!-- ApplicationController&#45;&gt;ManufacturersController -->
<g id="edge46" class="edge"><title>ApplicationController&#45;&gt;ManufacturersController</title>
<path fill="none" stroke="black" d="M1007.24,-620.068C1054.41,-648.139 1143.66,-706.46 1200.15,-775.82 1265.12,-855.598 1307.65,-973.781 1322.48,-1019.3"/>
</g>
<!-- TastesController -->
<g id="node27" class="node"><title>TastesController</title>
<ellipse fill="none" stroke="black" cx="895.937" cy="-1031.02" rx="90.0096" ry="18.3848"/>
<text text-anchor="middle" x="895.937" y="-1027.42" font-family="Times Roman,serif" font-size="14.00">TastesController</text>
</g>
<!-- ApplicationController&#45;&gt;TastesController -->
<g id="edge48" class="edge"><title>ApplicationController&#45;&gt;TastesController</title>
<path fill="none" stroke="black" d="M978.139,-620.726C982.054,-652.95 988.3,-721.148 979.835,-777.913 966.248,-869.031 923.088,-971.435 904.542,-1012.52"/>
</g>
<!-- TrackingsController -->
<g id="node28" class="node"><title>TrackingsController</title>
<ellipse fill="none" stroke="black" cx="1007.07" cy="-187.5" rx="104.86" ry="18.3848"/>
<text text-anchor="middle" x="1007.07" y="-183.9" font-family="Times Roman,serif" font-size="14.00">TrackingsController</text>
</g>
<!-- ApplicationController&#45;&gt;TrackingsController -->
<g id="edge50" class="edge"><title>ApplicationController&#45;&gt;TrackingsController</title>
<path fill="none" stroke="black" d="M964.632,-583.517C946.031,-550.079 910.579,-477.137 913.283,-411.082 916.622,-329.489 968.761,-243.162 993.82,-206.133"/>
</g>
<!-- StatusesController -->
<g id="node29" class="node"><title>StatusesController</title>
<ellipse fill="none" stroke="black" cx="1556.94" cy="-950.101" rx="102.03" ry="18.3848"/>
<text text-anchor="middle" x="1556.94" y="-946.501" font-family="Times Roman,serif" font-size="14.00">StatusesController</text>
</g>
<!-- ApplicationController&#45;&gt;StatusesController -->
<g id="edge52" class="edge"><title>ApplicationController&#45;&gt;StatusesController</title>
<path fill="none" stroke="black" d="M1005.64,-620.097C1105.73,-680.011 1427.26,-872.477 1527.09,-932.232"/>
</g>
<!-- Admin::UsersController -->
<g id="node21" class="node"><title>Admin::UsersController</title>
<ellipse fill="none" stroke="black" cx="629.5" cy="-103.5" rx="123.951" ry="18.3848"/>
<text text-anchor="middle" x="629.5" y="-99.9" font-family="Times Roman,serif" font-size="14.00">Admin::UsersController</text>
</g>
</g>
</svg>
