<?xml version="1.0" encoding="UTF-8" standalone="no"?>
<!DOCTYPE svg PUBLIC "-//W3C//DTD SVG 1.1//EN"
 "http://www.w3.org/Graphics/SVG/1.1/DTD/svg11.dtd">
<!-- Generated by graphviz version 2.26.3 (20100126.1600)
 -->
<!-- Title: controllers_diagram Pages: 1 -->
<svg width="1324pt" height="693pt"
 viewBox="0.00 0.00 1324.00 692.83" xmlns="http://www.w3.org/2000/svg" xmlns:xlink="http://www.w3.org/1999/xlink">
<g id="graph1" class="graph" transform="scale(1 1) rotate(0) translate(4 688.825)">
<title>controllers_diagram</title>
<polygon fill="white" stroke="white" points="-4,5 -4,-688.825 1321,-688.825 1321,5 -4,5"/>
<!-- _diagram_info -->
<g id="node1" class="node"><title>_diagram_info</title>
<text text-anchor="start" x="1073" y="-78.3" font-family="Times Roman,serif" font-size="13.00">Controllers diagram</text>
<text text-anchor="start" x="1073" y="-61.3" font-family="Times Roman,serif" font-size="13.00">Date: Apr 13 2013 &#45; 08:08</text>
<text text-anchor="start" x="1073" y="-44.3" font-family="Times Roman,serif" font-size="13.00">Migration version: 20130413055332</text>
<text text-anchor="start" x="1073" y="-27.3" font-family="Times Roman,serif" font-size="13.00">Generated by RailRoady 1.1.0</text>
<text text-anchor="start" x="1073" y="-10.3" font-family="Times Roman,serif" font-size="13.00">http://railroady.prestonlee.com</text>
</g>
<!-- SandwichesController -->
<g id="node2" class="node"><title>SandwichesController</title>
<ellipse fill="none" stroke="black" cx="131.865" cy="-214.69" rx="118.087" ry="18.3848"/>
<text text-anchor="middle" x="131.865" y="-211.09" font-family="Times Roman,serif" font-size="14.00">SandwichesController</text>
</g>
<!-- FoamsController -->
<g id="node3" class="node"><title>FoamsController</title>
<ellipse fill="none" stroke="black" cx="941.388" cy="-484.226" rx="91.2168" ry="18.3848"/>
<text text-anchor="middle" x="941.388" y="-480.626" font-family="Times Roman,serif" font-size="14.00">FoamsController</text>
</g>
<!-- ApplicationController -->
<g id="node4" class="node"><title>ApplicationController</title>
<ellipse fill="none" stroke="black" cx="717.696" cy="-431.543" rx="113.844" ry="18.3848"/>
<text text-anchor="middle" x="717.696" y="-427.943" font-family="Times Roman,serif" font-size="14.00">ApplicationController</text>
</g>
<!-- ApplicationController&#45;&gt;SandwichesController -->
<g id="edge2" class="edge"><title>ApplicationController&#45;&gt;SandwichesController</title>
<path fill="none" stroke="black" d="M671.987,-414.495C651.724,-406.944 627.592,-397.962 605.831,-389.889 449.146,-331.759 263.196,-263.127 178.299,-231.813"/>
</g>
<!-- ApplicationController&#45;&gt;FoamsController -->
<g id="edge4" class="edge"><title>ApplicationController&#45;&gt;FoamsController</title>
<path fill="none" stroke="black" d="M782.397,-446.781C813.752,-454.166 851.157,-462.975 881.808,-470.194"/>
</g>
<!-- BeersController -->
<g id="node5" class="node"><title>BeersController</title>
<ellipse fill="none" stroke="black" cx="400.987" cy="-648.045" rx="87.889" ry="18.3848"/>
<text text-anchor="middle" x="400.987" y="-644.445" font-family="Times Roman,serif" font-size="14.00">BeersController</text>
</g>
<!-- ApplicationController&#45;&gt;BeersController -->
<g id="edge6" class="edge"><title>ApplicationController&#45;&gt;BeersController</title>
<path fill="none" stroke="black" d="M691.238,-449.629C631.474,-490.484 486.627,-589.501 427.147,-630.162"/>
</g>
<!-- LidsController -->
<g id="node6" class="node"><title>LidsController</title>
<ellipse fill="none" stroke="black" cx="858.075" cy="-665.325" rx="79.9031" ry="18.3848"/>
<text text-anchor="middle" x="858.075" y="-661.725" font-family="Times Roman,serif" font-size="14.00">LidsController</text>
</g>
<!-- ApplicationController&#45;&gt;LidsController -->
<g id="edge8" class="edge"><title>ApplicationController&#45;&gt;LidsController</title>
<path fill="none" stroke="black" d="M728.946,-450.279C755.296,-494.161 820.756,-603.176 846.966,-646.824"/>
</g>
<!-- ColorsController -->
<g id="node7" class="node"><title>ColorsController</title>
<ellipse fill="none" stroke="black" cx="540.576" cy="-403.995" rx="90.0096" ry="18.3848"/>
<text text-anchor="middle" x="540.576" y="-400.395" font-family="Times Roman,serif" font-size="14.00">ColorsController</text>
</g>
<!-- ApplicationController&#45;&gt;ColorsController -->
<g id="edge10" class="edge"><title>ApplicationController&#45;&gt;ColorsController</title>
<path fill="none" stroke="black" d="M635.358,-418.736C627.679,-417.542 619.938,-416.338 612.366,-415.16"/>
</g>
<!-- BeerstylesController -->
<g id="node8" class="node"><title>BeerstylesController</title>
<ellipse fill="none" stroke="black" cx="411.278" cy="-156.772" rx="111.222" ry="18.3848"/>
<text text-anchor="middle" x="411.278" y="-153.172" font-family="Times Roman,serif" font-size="14.00">BeerstylesController</text>
</g>
<!-- ApplicationController&#45;&gt;BeerstylesController -->
<g id="edge12" class="edge"><title>ApplicationController&#45;&gt;BeerstylesController</title>
<path fill="none" stroke="black" d="M697.115,-413.087C641.294,-363.032 487.485,-225.108 431.769,-175.147"/>
</g>
<!-- ContainersController -->
<g id="node9" class="node"><title>ContainersController</title>
<ellipse fill="none" stroke="black" cx="1159.09" cy="-162.705" rx="113.844" ry="18.3848"/>
<text text-anchor="middle" x="1159.09" y="-159.105" font-family="Times Roman,serif" font-size="14.00">ContainersController</text>
</g>
<!-- ApplicationController&#45;&gt;ContainersController -->
<g id="edge14" class="edge"><title>ApplicationController&#45;&gt;ContainersController</title>
<path fill="none" stroke="black" d="M761.803,-414.447C815.503,-392.728 907.974,-352.373 980.306,-305.422 1041.43,-265.744 1106.79,-209.62 1138.9,-181.014"/>
</g>
<!-- ItemsController -->
<g id="node10" class="node"><title>ItemsController</title>
<ellipse fill="none" stroke="black" cx="332.753" cy="-400.66" rx="87.1802" ry="18.3848"/>
<text text-anchor="middle" x="332.753" y="-397.06" font-family="Times Roman,serif" font-size="14.00">ItemsController</text>
</g>
<!-- ApplicationController&#45;&gt;ItemsController -->
<g id="edge16" class="edge"><title>ApplicationController&#45;&gt;ItemsController</title>
<path fill="none" stroke="black" d="M605.725,-427.718C583.88,-426.727 561.158,-425.526 539.888,-424.094 511.133,-422.159 503.975,-421.183 475.32,-418.1 453.255,-415.727 429.3,-412.896 407.437,-410.212"/>
</g>
<!-- IngredientsController -->
<g id="node11" class="node"><title>IngredientsController</title>
<ellipse fill="none" stroke="black" cx="868.847" cy="-131.5" rx="115.966" ry="18.3848"/>
<text text-anchor="middle" x="868.847" y="-127.9" font-family="Times Roman,serif" font-size="14.00">IngredientsController</text>
</g>
<!-- ApplicationController&#45;&gt;IngredientsController -->
<g id="edge18" class="edge"><title>ApplicationController&#45;&gt;IngredientsController</title>
<path fill="none" stroke="black" d="M727.151,-412.774C754.296,-358.89 832.255,-204.137 859.395,-150.262"/>
</g>
<!-- OrdersController -->
<g id="node12" class="node"><title>OrdersController</title>
<ellipse fill="none" stroke="black" cx="642.426" cy="-174.151" rx="92.839" ry="18.3848"/>
<text text-anchor="middle" x="642.426" y="-170.551" font-family="Times Roman,serif" font-size="14.00">OrdersController</text>
</g>
<!-- ApplicationController&#45;&gt;OrdersController -->
<g id="edge20" class="edge"><title>ApplicationController&#45;&gt;OrdersController</title>
<path fill="none" stroke="black" d="M712.283,-413.032C698.428,-365.656 661.802,-240.41 647.891,-192.84"/>
</g>
<!-- Admin::AdminController -->
<g id="node13" class="node"><title>Admin::AdminController</title>
<ellipse fill="none" stroke="black" cx="129.5" cy="-589.505" rx="128.193" ry="18.3848"/>
<text text-anchor="middle" x="129.5" y="-585.905" font-family="Times Roman,serif" font-size="14.00">Admin::AdminController</text>
</g>
<!-- ApplicationController&#45;&gt;Admin::AdminController -->
<g id="edge22" class="edge"><title>ApplicationController&#45;&gt;Admin::AdminController</title>
<path fill="none" stroke="black" d="M658.604,-447.412C546.444,-477.533 303.789,-542.699 190.31,-573.174"/>
</g>
<!-- HomeController -->
<g id="node15" class="node"><title>HomeController</title>
<ellipse fill="none" stroke="black" cx="1187.47" cy="-400.08" rx="87.889" ry="18.3848"/>
<text text-anchor="middle" x="1187.47" y="-396.48" font-family="Times Roman,serif" font-size="14.00">HomeController</text>
</g>
<!-- ApplicationController&#45;&gt;HomeController -->
<g id="edge24" class="edge"><title>ApplicationController&#45;&gt;HomeController</title>
<path fill="none" stroke="black" d="M823.123,-424.482C907.796,-418.811 1025.11,-410.954 1103.51,-405.703"/>
</g>
<!-- AromasController -->
<g id="node16" class="node"><title>AromasController</title>
<ellipse fill="none" stroke="black" cx="1161.87" cy="-646.657" rx="96.8736" ry="18.3848"/>
<text text-anchor="middle" x="1161.87" y="-643.057" font-family="Times Roman,serif" font-size="14.00">AromasController</text>
</g>
<!-- ApplicationController&#45;&gt;AromasController -->
<g id="edge26" class="edge"><title>ApplicationController&#45;&gt;AromasController</title>
<path fill="none" stroke="black" d="M754.045,-449.146C837.75,-489.685 1043.28,-589.223 1126.26,-629.411"/>
</g>
<!-- ManufacturersController -->
<g id="node17" class="node"><title>ManufacturersController</title>
<ellipse fill="none" stroke="black" cx="629.193" cy="-646.242" rx="130.815" ry="18.3848"/>
<text text-anchor="middle" x="629.193" y="-642.642" font-family="Times Roman,serif" font-size="14.00">ManufacturersController</text>
</g>
<!-- ApplicationController&#45;&gt;ManufacturersController -->
<g id="edge28" class="edge"><title>ApplicationController&#45;&gt;ManufacturersController</title>
<path fill="none" stroke="black" d="M709.997,-450.22C693.217,-490.927 653.517,-587.233 636.811,-627.76"/>
</g>
<!-- TastesController -->
<g id="node18" class="node"><title>TastesController</title>
<ellipse fill="none" stroke="black" cx="888.709" cy="-305.258" rx="90.0096" ry="18.3848"/>
<text text-anchor="middle" x="888.709" y="-301.658" font-family="Times Roman,serif" font-size="14.00">TastesController</text>
</g>
<!-- ApplicationController&#45;&gt;TastesController -->
<g id="edge30" class="edge"><title>ApplicationController&#45;&gt;TastesController</title>
<path fill="none" stroke="black" d="M742.198,-413.449C774.8,-389.374 832.09,-347.068 864.529,-323.114"/>
</g>
<!-- Admin::UsersController -->
<g id="node14" class="node"><title>Admin::UsersController</title>
<ellipse fill="none" stroke="black" cx="461.5" cy="-75.5" rx="123.951" ry="18.3848"/>
<text text-anchor="middle" x="461.5" y="-71.9" font-family="Times Roman,serif" font-size="14.00">Admin::UsersController</text>
</g>
</g>
</svg>
