<?xml version="1.0" encoding="UTF-8" standalone="no"?>
<!DOCTYPE svg PUBLIC "-//W3C//DTD SVG 1.1//EN"
 "http://www.w3.org/Graphics/SVG/1.1/DTD/svg11.dtd">
<!-- Generated by graphviz version 2.26.3 (20100126.1600)
 -->
<!-- Title: controllers_diagram Pages: 1 -->
<svg width="2219pt" height="1012pt"
 viewBox="0.00 0.00 2218.73 1011.81" xmlns="http://www.w3.org/2000/svg" xmlns:xlink="http://www.w3.org/1999/xlink">
<g id="graph1" class="graph" transform="scale(1 1) rotate(0) translate(4 1007.81)">
<title>controllers_diagram</title>
<polygon fill="white" stroke="white" points="-4,5 -4,-1007.81 2215.73,-1007.81 2215.73,5 -4,5"/>
<!-- _diagram_info -->
<g id="node1" class="node"><title>_diagram_info</title>
<text text-anchor="start" x="1329" y="-78.3" font-family="Times Roman,serif" font-size="13.00">Controllers diagram</text>
<text text-anchor="start" x="1329" y="-61.3" font-family="Times Roman,serif" font-size="13.00">Date: Aug 28 2013 &#45; 09:37</text>
<text text-anchor="start" x="1329" y="-44.3" font-family="Times Roman,serif" font-size="13.00">Migration version: 20130602104513</text>
<text text-anchor="start" x="1329" y="-27.3" font-family="Times Roman,serif" font-size="13.00">Generated by RailRoady 1.1.1</text>
<text text-anchor="start" x="1329" y="-10.3" font-family="Times Roman,serif" font-size="13.00">http://railroady.prestonlee.com</text>
</g>
<!-- SandwichesController -->
<g id="node2" class="node"><title>SandwichesController</title>
<ellipse fill="none" stroke="black" cx="129.707" cy="-269.793" rx="118.087" ry="18.3848"/>
<text text-anchor="middle" x="129.707" y="-266.193" font-family="Times Roman,serif" font-size="14.00">SandwichesController</text>
</g>
<!-- BeveragecategoriesController -->
<g id="node3" class="node"><title>BeveragecategoriesController</title>
<ellipse fill="none" stroke="black" cx="1722.95" cy="-521.34" rx="155.771" ry="18.3848"/>
<text text-anchor="middle" x="1722.95" y="-517.74" font-family="Times Roman,serif" font-size="14.00">BeveragecategoriesController</text>
</g>
<!-- BeveragesController -->
<g id="node4" class="node"><title>BeveragesController</title>
<ellipse fill="none" stroke="black" cx="827.417" cy="-144.413" rx="111.016" ry="18.3848"/>
<text text-anchor="middle" x="827.417" y="-140.813" font-family="Times Roman,serif" font-size="14.00">BeveragesController</text>
</g>
<!-- FoamsController -->
<g id="node5" class="node"><title>FoamsController</title>
<ellipse fill="none" stroke="black" cx="786.826" cy="-957.942" rx="91.2168" ry="18.3848"/>
<text text-anchor="middle" x="786.826" y="-954.342" font-family="Times Roman,serif" font-size="14.00">FoamsController</text>
</g>
<!-- CountriesController -->
<g id="node6" class="node"><title>CountriesController</title>
<ellipse fill="none" stroke="black" cx="1498.17" cy="-677.779" rx="106.98" ry="18.3848"/>
<text text-anchor="middle" x="1498.17" y="-674.179" font-family="Times Roman,serif" font-size="14.00">CountriesController</text>
</g>
<!-- ApplicationController -->
<g id="node7" class="node"><title>ApplicationController</title>
<ellipse fill="none" stroke="black" cx="1166.42" cy="-546.198" rx="113.844" ry="18.3848"/>
<text text-anchor="middle" x="1166.42" y="-542.598" font-family="Times Roman,serif" font-size="14.00">ApplicationController</text>
</g>
<!-- ApplicationController&#45;&gt;SandwichesController -->
<g id="edge2" class="edge"><title>ApplicationController&#45;&gt;SandwichesController</title>
<path fill="none" stroke="black" d="M1091.61,-532.199C991.3,-512.922 807.962,-475.905 653.672,-434.943 476.678,-387.953 270.445,-318.551 178.39,-286.787"/>
</g>
<!-- ApplicationController&#45;&gt;BeveragecategoriesController -->
<g id="edge4" class="edge"><title>ApplicationController&#45;&gt;BeveragecategoriesController</title>
<path fill="none" stroke="black" d="M1276.37,-541.286C1362.38,-537.445 1482.74,-532.069 1576.85,-527.866"/>
</g>
<!-- ApplicationController&#45;&gt;BeveragesController -->
<g id="edge6" class="edge"><title>ApplicationController&#45;&gt;BeveragesController</title>
<path fill="none" stroke="black" d="M1163.35,-527.484C1157.01,-493.237 1139.95,-419.304 1103.9,-368.166 1036.3,-272.275 916.744,-195.469 859.593,-162.24"/>
</g>
<!-- ApplicationController&#45;&gt;FoamsController -->
<g id="edge8" class="edge"><title>ApplicationController&#45;&gt;FoamsController</title>
<path fill="none" stroke="black" d="M1135.91,-564.214C1085.31,-595.196 982.9,-662.716 914.921,-739.778 857.391,-804.994 812.225,-899.836 794.713,-939.464"/>
</g>
<!-- ApplicationController&#45;&gt;CountriesController -->
<g id="edge10" class="edge"><title>ApplicationController&#45;&gt;CountriesController</title>
<path fill="none" stroke="black" d="M1209.79,-563.4C1273.55,-588.687 1391.85,-635.611 1455.32,-660.782"/>
</g>
<!-- BeersController -->
<g id="node8" class="node"><title>BeersController</title>
<ellipse fill="none" stroke="black" cx="517.215" cy="-168.934" rx="87.1802" ry="18.3848"/>
<text text-anchor="middle" x="517.215" y="-165.334" font-family="Times Roman,serif" font-size="14.00">BeersController</text>
</g>
<!-- ApplicationController&#45;&gt;BeersController -->
<g id="edge12" class="edge"><title>ApplicationController&#45;&gt;BeersController</title>
<path fill="none" stroke="black" d="M1135.54,-528.255C1025.8,-464.483 655.391,-249.231 547.152,-186.331"/>
</g>
<!-- FoodsController -->
<g id="node9" class="node"><title>FoodsController</title>
<ellipse fill="none" stroke="black" cx="2078.09" cy="-193.409" rx="87.1802" ry="18.3848"/>
<text text-anchor="middle" x="2078.09" y="-189.809" font-family="Times Roman,serif" font-size="14.00">FoodsController</text>
</g>
<!-- ApplicationController&#45;&gt;FoodsController -->
<g id="edge14" class="edge"><title>ApplicationController&#45;&gt;FoodsController</title>
<path fill="none" stroke="black" d="M1233,-531.093C1305.31,-514.062 1423.82,-484.306 1523.54,-450.585 1730.89,-380.462 1964.09,-256.398 2046.89,-210.827"/>
</g>
<!-- BruschettaController -->
<g id="node10" class="node"><title>BruschettaController</title>
<ellipse fill="none" stroke="black" cx="988.301" cy="-368.125" rx="113.844" ry="18.3848"/>
<text text-anchor="middle" x="988.301" y="-364.525" font-family="Times Roman,serif" font-size="14.00">BruschettaController</text>
</g>
<!-- ApplicationController&#45;&gt;BruschettaController -->
<g id="edge16" class="edge"><title>ApplicationController&#45;&gt;BruschettaController</title>
<path fill="none" stroke="black" d="M1148.03,-527.811C1113.81,-493.6 1040.74,-420.547 1006.59,-386.411"/>
</g>
<!-- ItemstatusesController -->
<g id="node11" class="node"><title>ItemstatusesController</title>
<ellipse fill="none" stroke="black" cx="1381.24" cy="-142.156" rx="123.037" ry="18.3848"/>
<text text-anchor="middle" x="1381.24" y="-138.556" font-family="Times Roman,serif" font-size="14.00">ItemstatusesController</text>
</g>
<!-- ApplicationController&#45;&gt;ItemstatusesController -->
<g id="edge18" class="edge"><title>ApplicationController&#45;&gt;ItemstatusesController</title>
<path fill="none" stroke="black" d="M1183.21,-527.754C1211.85,-495.486 1270.5,-425.768 1306.28,-358.164 1342.68,-289.399 1367.28,-199.31 1376.82,-160.859"/>
</g>
<!-- LidsController -->
<g id="node12" class="node"><title>LidsController</title>
<ellipse fill="none" stroke="black" cx="1225.68" cy="-358.108" rx="79.196" ry="18.3848"/>
<text text-anchor="middle" x="1225.68" y="-354.508" font-family="Times Roman,serif" font-size="14.00">LidsController</text>
</g>
<!-- ApplicationController&#45;&gt;LidsController -->
<g id="edge20" class="edge"><title>ApplicationController&#45;&gt;LidsController</title>
<path fill="none" stroke="black" d="M1172.32,-527.475C1183.68,-491.422 1208.47,-412.748 1219.81,-376.755"/>
</g>
<!-- ColorsController -->
<g id="node13" class="node"><title>ColorsController</title>
<ellipse fill="none" stroke="black" cx="435.944" cy="-555.318" rx="90.0096" ry="18.3848"/>
<text text-anchor="middle" x="435.944" y="-551.718" font-family="Times Roman,serif" font-size="14.00">ColorsController</text>
</g>
<!-- ApplicationController&#45;&gt;ColorsController -->
<g id="edge22" class="edge"><title>ApplicationController&#45;&gt;ColorsController</title>
<path fill="none" stroke="black" d="M1053.61,-543.221C1012.98,-542.423 966.799,-541.831 924.728,-542.04 784.874,-542.736 622.591,-548.036 524.67,-551.725"/>
</g>
<!-- BeerstylesController -->
<g id="node14" class="node"><title>BeerstylesController</title>
<ellipse fill="none" stroke="black" cx="2098.73" cy="-560.522" rx="111.016" ry="18.3848"/>
<text text-anchor="middle" x="2098.73" y="-556.922" font-family="Times Roman,serif" font-size="14.00">BeerstylesController</text>
</g>
<!-- ApplicationController&#45;&gt;BeerstylesController -->
<g id="edge24" class="edge"><title>ApplicationController&#45;&gt;BeerstylesController</title>
<path fill="none" stroke="black" d="M1280.27,-547.947C1460.61,-550.718 1809.74,-556.082 1988.06,-558.822"/>
</g>
<!-- ContainersController -->
<g id="node15" class="node"><title>ContainersController</title>
<ellipse fill="none" stroke="black" cx="2091.41" cy="-924.392" rx="113.137" ry="18.3848"/>
<text text-anchor="middle" x="2091.41" y="-920.792" font-family="Times Roman,serif" font-size="14.00">ContainersController</text>
</g>
<!-- ApplicationController&#45;&gt;ContainersController -->
<g id="edge26" class="edge"><title>ApplicationController&#45;&gt;ContainersController</title>
<path fill="none" stroke="black" d="M1194.75,-564.213C1236.6,-590.515 1317.75,-640.353 1389.57,-677.671 1613.06,-793.79 1903.29,-876.16 2028.92,-908.822"/>
</g>
<!-- ItemsController -->
<g id="node16" class="node"><title>ItemsController</title>
<ellipse fill="none" stroke="black" cx="1224.91" cy="-964.326" rx="86.9741" ry="18.3848"/>
<text text-anchor="middle" x="1224.91" y="-960.726" font-family="Times Roman,serif" font-size="14.00">ItemsController</text>
</g>
<!-- ApplicationController&#45;&gt;ItemsController -->
<g id="edge28" class="edge"><title>ApplicationController&#45;&gt;ItemsController</title>
<path fill="none" stroke="black" d="M1168.76,-564.813C1172.6,-595.131 1180.51,-657.049 1187.75,-709.422 1200,-798.023 1215.79,-903.766 1222.12,-945.789"/>
</g>
<!-- IngredientsController -->
<g id="node17" class="node"><title>IngredientsController</title>
<ellipse fill="none" stroke="black" cx="1441.4" cy="-436.319" rx="114.759" ry="18.3848"/>
<text text-anchor="middle" x="1441.4" y="-432.719" font-family="Times Roman,serif" font-size="14.00">IngredientsController</text>
</g>
<!-- ApplicationController&#45;&gt;IngredientsController -->
<g id="edge30" class="edge"><title>ApplicationController&#45;&gt;IngredientsController</title>
<path fill="none" stroke="black" d="M1209.38,-529.029C1260.89,-508.447 1346.71,-474.157 1398.28,-453.548"/>
</g>
<!-- OrdersController -->
<g id="node18" class="node"><title>OrdersController</title>
<ellipse fill="none" stroke="black" cx="1669.89" cy="-177.877" rx="92.1303" ry="18.3848"/>
<text text-anchor="middle" x="1669.89" y="-174.277" font-family="Times Roman,serif" font-size="14.00">OrdersController</text>
</g>
<!-- ApplicationController&#45;&gt;OrdersController -->
<g id="edge32" class="edge"><title>ApplicationController&#45;&gt;OrdersController</title>
<path fill="none" stroke="black" d="M1191.39,-527.932C1277.3,-465.08 1560.13,-258.172 1645.37,-195.818"/>
</g>
<!-- LineItemsController -->
<g id="node19" class="node"><title>LineItemsController</title>
<ellipse fill="none" stroke="black" cx="717.941" cy="-686.184" rx="108.187" ry="18.3848"/>
<text text-anchor="middle" x="717.941" y="-682.584" font-family="Times Roman,serif" font-size="14.00">LineItemsController</text>
</g>
<!-- ApplicationController&#45;&gt;LineItemsController -->
<g id="edge34" class="edge"><title>ApplicationController&#45;&gt;LineItemsController</title>
<path fill="none" stroke="black" d="M1113.65,-562.667C1027.17,-589.662 856.284,-643.002 770.159,-669.885"/>
</g>
<!-- Admin::AdminController -->
<g id="node20" class="node"><title>Admin::AdminController</title>
<ellipse fill="none" stroke="black" cx="500.785" cy="-943.271" rx="127.986" ry="18.3848"/>
<text text-anchor="middle" x="500.785" y="-939.671" font-family="Times Roman,serif" font-size="14.00">Admin::AdminController</text>
</g>
<!-- ApplicationController&#45;&gt;Admin::AdminController -->
<g id="edge36" class="edge"><title>ApplicationController&#45;&gt;Admin::AdminController</title>
<path fill="none" stroke="black" d="M1136.09,-564.291C1025.2,-630.439 642.473,-858.749 531.294,-925.071"/>
</g>
<!-- FoodcategoriesController -->
<g id="node22" class="node"><title>FoodcategoriesController</title>
<ellipse fill="none" stroke="black" cx="924.465" cy="-562.14" rx="132.936" ry="18.3848"/>
<text text-anchor="middle" x="924.465" y="-558.54" font-family="Times Roman,serif" font-size="14.00">FoodcategoriesController</text>
</g>
<!-- ApplicationController&#45;&gt;FoodcategoriesController -->
<g id="edge40" class="edge"><title>ApplicationController&#45;&gt;FoodcategoriesController</title>
<path fill="none" stroke="black" d="M1060.65,-553.167C1055.43,-553.51 1050.18,-553.857 1044.93,-554.202"/>
</g>
<!-- HomeController -->
<g id="node23" class="node"><title>HomeController</title>
<ellipse fill="none" stroke="black" cx="717.403" cy="-420.814" rx="87.889" ry="18.3848"/>
<text text-anchor="middle" x="717.403" y="-417.214" font-family="Times Roman,serif" font-size="14.00">HomeController</text>
</g>
<!-- ApplicationController&#45;&gt;HomeController -->
<g id="edge42" class="edge"><title>ApplicationController&#45;&gt;HomeController</title>
<path fill="none" stroke="black" d="M1109.1,-530.19C1021.5,-505.73 855.571,-459.396 770.547,-435.654"/>
</g>
<!-- CartsController -->
<g id="node24" class="node"><title>CartsController</title>
<ellipse fill="none" stroke="black" cx="1275.35" cy="-709.438" rx="85.7684" ry="18.3848"/>
<text text-anchor="middle" x="1275.35" y="-705.838" font-family="Times Roman,serif" font-size="14.00">CartsController</text>
</g>
<!-- ApplicationController&#45;&gt;CartsController -->
<g id="edge44" class="edge"><title>ApplicationController&#45;&gt;CartsController</title>
<path fill="none" stroke="black" d="M1178.7,-564.606C1199.63,-595.958 1241.94,-659.37 1262.95,-690.846"/>
</g>
<!-- AromasController -->
<g id="node25" class="node"><title>AromasController</title>
<ellipse fill="none" stroke="black" cx="1456.1" cy="-969.787" rx="96.8736" ry="18.3848"/>
<text text-anchor="middle" x="1456.1" y="-966.187" font-family="Times Roman,serif" font-size="14.00">AromasController</text>
</g>
<!-- ApplicationController&#45;&gt;AromasController -->
<g id="edge46" class="edge"><title>ApplicationController&#45;&gt;AromasController</title>
<path fill="none" stroke="black" d="M1197.07,-564.189C1239.92,-590.806 1317.56,-644.585 1362.95,-709.455 1418.83,-789.291 1444.66,-906.209 1452.96,-951.198"/>
</g>
<!-- ManufacturersController -->
<g id="node26" class="node"><title>ManufacturersController</title>
<ellipse fill="none" stroke="black" cx="1012.87" cy="-984.311" rx="130.815" ry="18.3848"/>
<text text-anchor="middle" x="1012.87" y="-980.711" font-family="Times Roman,serif" font-size="14.00">ManufacturersController</text>
</g>
<!-- ApplicationController&#45;&gt;ManufacturersController -->
<g id="edge48" class="edge"><title>ApplicationController&#45;&gt;ManufacturersController</title>
<path fill="none" stroke="black" d="M1163.44,-564.705C1157.55,-599.59 1143.14,-677.221 1122.11,-740.1 1092.96,-827.319 1043.55,-925.709 1022.66,-965.815"/>
</g>
<!-- TastesController -->
<g id="node27" class="node"><title>TastesController</title>
<ellipse fill="none" stroke="black" cx="1104.25" cy="-129.5" rx="90.0096" ry="18.3848"/>
<text text-anchor="middle" x="1104.25" y="-125.9" font-family="Times Roman,serif" font-size="14.00">TastesController</text>
</g>
<!-- ApplicationController&#45;&gt;TastesController -->
<g id="edge50" class="edge"><title>ApplicationController&#45;&gt;TastesController</title>
<path fill="none" stroke="black" d="M1163.63,-527.483C1153.3,-458.279 1117.34,-217.282 1107.03,-148.163"/>
</g>
<!-- TrackingsController -->
<g id="node28" class="node"><title>TrackingsController</title>
<ellipse fill="none" stroke="black" cx="1717.28" cy="-907.849" rx="104.86" ry="18.3848"/>
<text text-anchor="middle" x="1717.28" y="-904.249" font-family="Times Roman,serif" font-size="14.00">TrackingsController</text>
</g>
<!-- ApplicationController&#45;&gt;TrackingsController -->
<g id="edge52" class="edge"><title>ApplicationController&#45;&gt;TrackingsController</title>
<path fill="none" stroke="black" d="M1194.11,-564.38C1288.37,-626.258 1596.02,-828.237 1689.86,-889.845"/>
</g>
<!-- StatusesController -->
<g id="node29" class="node"><title>StatusesController</title>
<ellipse fill="none" stroke="black" cx="1018.52" cy="-739.939" rx="102.03" ry="18.3848"/>
<text text-anchor="middle" x="1018.52" y="-736.339" font-family="Times Roman,serif" font-size="14.00">StatusesController</text>
</g>
<!-- ApplicationController&#45;&gt;StatusesController -->
<g id="edge54" class="edge"><title>ApplicationController&#45;&gt;StatusesController</title>
<path fill="none" stroke="black" d="M1152.24,-564.774C1123.97,-601.806 1060.89,-684.433 1032.66,-721.418"/>
</g>
<!-- Admin::UsersController -->
<g id="node21" class="node"><title>Admin::UsersController</title>
<ellipse fill="none" stroke="black" cx="125.5" cy="-841.193" rx="123.951" ry="18.3848"/>
<text text-anchor="middle" x="125.5" y="-837.593" font-family="Times Roman,serif" font-size="14.00">Admin::UsersController</text>
</g>
<!-- Admin::AdminController&#45;&gt;Admin::UsersController -->
<g id="edge38" class="edge"><title>Admin::AdminController&#45;&gt;Admin::UsersController</title>
<path fill="none" stroke="black" d="M440.489,-926.87C370.353,-907.793 255.275,-876.492 185.336,-857.468"/>
</g>
</g>
</svg>
