<?xml version="1.0" encoding="UTF-8" standalone="no"?>
<!DOCTYPE svg PUBLIC "-//W3C//DTD SVG 1.1//EN"
 "http://www.w3.org/Graphics/SVG/1.1/DTD/svg11.dtd">
<!-- Generated by graphviz version 2.26.3 (20100126.1600)
 -->
<!-- Title: models_diagram Pages: 1 -->
<svg width="1992pt" height="836pt"
 viewBox="0.00 0.00 1992.00 836.00" xmlns="http://www.w3.org/2000/svg" xmlns:xlink="http://www.w3.org/1999/xlink">
<g id="graph1" class="graph" transform="scale(1 1) rotate(0) translate(4 832)">
<title>models_diagram</title>
<polygon fill="white" stroke="white" points="-4,5 -4,-832 1989,-832 1989,5 -4,5"/>
<!-- _diagram_info -->
<g id="node1" class="node"><title>_diagram_info</title>
<text text-anchor="start" x="208" y="-723.8" font-family="Times Roman,serif" font-size="13.00">Models diagram</text>
<text text-anchor="start" x="208" y="-706.8" font-family="Times Roman,serif" font-size="13.00">Date: Apr 13 2013 &#45; 08:07</text>
<text text-anchor="start" x="208" y="-689.8" font-family="Times Roman,serif" font-size="13.00">Migration version: 20130413055332</text>
<text text-anchor="start" x="208" y="-672.8" font-family="Times Roman,serif" font-size="13.00">Generated by RailRoady 1.1.0</text>
<text text-anchor="start" x="208" y="-655.8" font-family="Times Roman,serif" font-size="13.00">http://railroady.prestonlee.com</text>
</g>
<!-- Ability -->
<g id="node2" class="node"><title>Ability</title>
<polygon fill="none" stroke="black" points="468,-667 468,-719 528,-719 528,-667 468,-667"/>
<text text-anchor="middle" x="498" y="-702.4" font-family="Times Roman,serif" font-size="14.00">Ability</text>
<polyline fill="none" stroke="black" points="468,-693 528,-693 "/>
<text text-anchor="middle" x="498" y="-676.4" font-family="Times Roman,serif" font-size="14.00"> </text>
</g>
<!-- Foam -->
<g id="node3" class="node"><title>Foam</title>
<polyline fill="none" stroke="black" points="557.5,-640 698.5,-640 "/>
<path fill="none" stroke="black" d="M698.5,-640C704.5,-640 710.5,-646 710.5,-652"/>
<polyline fill="none" stroke="black" points="710.5,-652 710.5,-734 "/>
<path fill="none" stroke="black" d="M710.5,-734C710.5,-740 704.5,-746 698.5,-746"/>
<polyline fill="none" stroke="black" points="698.5,-746 557.5,-746 "/>
<path fill="none" stroke="black" d="M557.5,-746C551.5,-746 545.5,-740 545.5,-734"/>
<polyline fill="none" stroke="black" points="545.5,-734 545.5,-652 "/>
<path fill="none" stroke="black" d="M545.5,-652C545.5,-646 551.5,-640 557.5,-640"/>
<text text-anchor="middle" x="628" y="-729.4" font-family="Times Roman,serif" font-size="14.00">Foam</text>
<polyline fill="none" stroke="black" points="545.5,-720 710.5,-720 "/>
<text text-anchor="start" x="553.5" y="-703.4" font-family="Times Roman,serif" font-size="14.00">id :integer</text>
<text text-anchor="start" x="553.5" y="-685.4" font-family="Times Roman,serif" font-size="14.00">name :string</text>
<text text-anchor="start" x="553.5" y="-667.4" font-family="Times Roman,serif" font-size="14.00">created_at :datetime</text>
<text text-anchor="start" x="553.5" y="-649.4" font-family="Times Roman,serif" font-size="14.00">updated_at :datetime</text>
</g>
<!-- Beer -->
<g id="node7" class="node"><title>Beer</title>
<polyline fill="none" stroke="black" points="517.5,-181 738.5,-181 "/>
<path fill="none" stroke="black" d="M738.5,-181C744.5,-181 750.5,-187 750.5,-193"/>
<polyline fill="none" stroke="black" points="750.5,-193 750.5,-509 "/>
<path fill="none" stroke="black" d="M750.5,-509C750.5,-515 744.5,-521 738.5,-521"/>
<polyline fill="none" stroke="black" points="738.5,-521 517.5,-521 "/>
<path fill="none" stroke="black" d="M517.5,-521C511.5,-521 505.5,-515 505.5,-509"/>
<polyline fill="none" stroke="black" points="505.5,-509 505.5,-193 "/>
<path fill="none" stroke="black" d="M505.5,-193C505.5,-187 511.5,-181 517.5,-181"/>
<text text-anchor="middle" x="628" y="-504.4" font-family="Times Roman,serif" font-size="14.00">Beer</text>
<polyline fill="none" stroke="black" points="505.5,-495 750.5,-495 "/>
<text text-anchor="start" x="513.5" y="-478.4" font-family="Times Roman,serif" font-size="14.00">id :integer</text>
<text text-anchor="start" x="513.5" y="-460.4" font-family="Times Roman,serif" font-size="14.00">name :string</text>
<text text-anchor="start" x="513.5" y="-442.4" font-family="Times Roman,serif" font-size="14.00">manufacturer_id :integer</text>
<text text-anchor="start" x="513.5" y="-424.4" font-family="Times Roman,serif" font-size="14.00">strength :decimal</text>
<text text-anchor="start" x="513.5" y="-406.4" font-family="Times Roman,serif" font-size="14.00">container_id :integer</text>
<text text-anchor="start" x="513.5" y="-388.4" font-family="Times Roman,serif" font-size="14.00">lid_id :integer</text>
<text text-anchor="start" x="513.5" y="-370.4" font-family="Times Roman,serif" font-size="14.00">added_by :integer</text>
<text text-anchor="start" x="513.5" y="-352.4" font-family="Times Roman,serif" font-size="14.00">updated_by :integer</text>
<text text-anchor="start" x="513.5" y="-334.4" font-family="Times Roman,serif" font-size="14.00">created_at :datetime</text>
<text text-anchor="start" x="513.5" y="-316.4" font-family="Times Roman,serif" font-size="14.00">updated_at :datetime</text>
<text text-anchor="start" x="513.5" y="-298.4" font-family="Times Roman,serif" font-size="14.00">volume :decimal</text>
<text text-anchor="start" x="513.5" y="-280.4" font-family="Times Roman,serif" font-size="14.00">description :text</text>
<text text-anchor="start" x="513.5" y="-262.4" font-family="Times Roman,serif" font-size="14.00">imagebeer_file_name :string</text>
<text text-anchor="start" x="513.5" y="-244.4" font-family="Times Roman,serif" font-size="14.00">imagebeer_content_type :string</text>
<text text-anchor="start" x="513.5" y="-226.4" font-family="Times Roman,serif" font-size="14.00">imagebeer_file_size :integer</text>
<text text-anchor="start" x="513.5" y="-208.4" font-family="Times Roman,serif" font-size="14.00">imagebeer_updated_at :datetime</text>
<text text-anchor="start" x="513.5" y="-190.4" font-family="Times Roman,serif" font-size="14.00">price :decimal</text>
</g>
<!-- Foam&#45;&gt;Beer -->
<g id="edge2" class="edge"><title>Foam&#45;&gt;Beer</title>
<path fill="none" stroke="#cc67dd" d="M628,-629.779C628,-601.668 628,-566.998 628,-531.773"/>
<polygon fill="#cc67dd" stroke="#cc67dd" points="628,-629.938 623.5,-639.938 628,-634.938 628,-639.938 628,-639.938 628,-639.938 628,-634.938 632.5,-639.938 628,-629.938 628,-629.938"/>
<polygon fill="#cc67dd" stroke="#cc67dd" points="628,-531.331 632.5,-521.331 628,-526.331 628,-521.331 628,-521.331 628,-521.331 628,-526.331 623.5,-521.331 628,-531.331 628,-531.331"/>
</g>
<!-- User -->
<g id="node4" class="node"><title>User</title>
<polyline fill="none" stroke="black" points="1150,-559 1380,-559 "/>
<path fill="none" stroke="black" d="M1380,-559C1386,-559 1392,-565 1392,-571"/>
<polyline fill="none" stroke="black" points="1392,-571 1392,-815 "/>
<path fill="none" stroke="black" d="M1392,-815C1392,-821 1386,-827 1380,-827"/>
<polyline fill="none" stroke="black" points="1380,-827 1150,-827 "/>
<path fill="none" stroke="black" d="M1150,-827C1144,-827 1138,-821 1138,-815"/>
<polyline fill="none" stroke="black" points="1138,-815 1138,-571 "/>
<path fill="none" stroke="black" d="M1138,-571C1138,-565 1144,-559 1150,-559"/>
<text text-anchor="middle" x="1265" y="-810.4" font-family="Times Roman,serif" font-size="14.00">User</text>
<polyline fill="none" stroke="black" points="1138,-801 1392,-801 "/>
<text text-anchor="start" x="1146" y="-784.4" font-family="Times Roman,serif" font-size="14.00">id :integer</text>
<text text-anchor="start" x="1146" y="-766.4" font-family="Times Roman,serif" font-size="14.00">email :string</text>
<text text-anchor="start" x="1146" y="-748.4" font-family="Times Roman,serif" font-size="14.00">encrypted_password :string</text>
<text text-anchor="start" x="1146" y="-730.4" font-family="Times Roman,serif" font-size="14.00">reset_password_token :string</text>
<text text-anchor="start" x="1146" y="-712.4" font-family="Times Roman,serif" font-size="14.00">reset_password_sent_at :datetime</text>
<text text-anchor="start" x="1146" y="-694.4" font-family="Times Roman,serif" font-size="14.00">remember_created_at :datetime</text>
<text text-anchor="start" x="1146" y="-676.4" font-family="Times Roman,serif" font-size="14.00">sign_in_count :integer</text>
<text text-anchor="start" x="1146" y="-658.4" font-family="Times Roman,serif" font-size="14.00">current_sign_in_at :datetime</text>
<text text-anchor="start" x="1146" y="-640.4" font-family="Times Roman,serif" font-size="14.00">last_sign_in_at :datetime</text>
<text text-anchor="start" x="1146" y="-622.4" font-family="Times Roman,serif" font-size="14.00">current_sign_in_ip :string</text>
<text text-anchor="start" x="1146" y="-604.4" font-family="Times Roman,serif" font-size="14.00">last_sign_in_ip :string</text>
<text text-anchor="start" x="1146" y="-586.4" font-family="Times Roman,serif" font-size="14.00">created_at :datetime</text>
<text text-anchor="start" x="1146" y="-568.4" font-family="Times Roman,serif" font-size="14.00">updated_at :datetime</text>
</g>
<!-- Order -->
<g id="node5" class="node"><title>Order</title>
<polyline fill="none" stroke="black" points="1103.5,-253 1244.5,-253 "/>
<path fill="none" stroke="black" d="M1244.5,-253C1250.5,-253 1256.5,-259 1256.5,-265"/>
<polyline fill="none" stroke="black" points="1256.5,-265 1256.5,-437 "/>
<path fill="none" stroke="black" d="M1256.5,-437C1256.5,-443 1250.5,-449 1244.5,-449"/>
<polyline fill="none" stroke="black" points="1244.5,-449 1103.5,-449 "/>
<path fill="none" stroke="black" d="M1103.5,-449C1097.5,-449 1091.5,-443 1091.5,-437"/>
<polyline fill="none" stroke="black" points="1091.5,-437 1091.5,-265 "/>
<path fill="none" stroke="black" d="M1091.5,-265C1091.5,-259 1097.5,-253 1103.5,-253"/>
<text text-anchor="middle" x="1174" y="-432.4" font-family="Times Roman,serif" font-size="14.00">Order</text>
<polyline fill="none" stroke="black" points="1091.5,-423 1256.5,-423 "/>
<text text-anchor="start" x="1099.5" y="-406.4" font-family="Times Roman,serif" font-size="14.00">id :integer</text>
<text text-anchor="start" x="1099.5" y="-388.4" font-family="Times Roman,serif" font-size="14.00">user_id :string</text>
<text text-anchor="start" x="1099.5" y="-370.4" font-family="Times Roman,serif" font-size="14.00">addr :text</text>
<text text-anchor="start" x="1099.5" y="-352.4" font-family="Times Roman,serif" font-size="14.00">time :datetime</text>
<text text-anchor="start" x="1099.5" y="-334.4" font-family="Times Roman,serif" font-size="14.00">status :string</text>
<text text-anchor="start" x="1099.5" y="-316.4" font-family="Times Roman,serif" font-size="14.00">info :text</text>
<text text-anchor="start" x="1099.5" y="-298.4" font-family="Times Roman,serif" font-size="14.00">created_at :datetime</text>
<text text-anchor="start" x="1099.5" y="-280.4" font-family="Times Roman,serif" font-size="14.00">updated_at :datetime</text>
<text text-anchor="start" x="1099.5" y="-262.4" font-family="Times Roman,serif" font-size="14.00">telephone :string</text>
</g>
<!-- User&#45;&gt;Order -->
<g id="edge6" class="edge"><title>User&#45;&gt;Order</title>
<path fill="none" stroke="#9a87e5" d="M1226.66,-548.901C1218.65,-518.817 1210.34,-487.593 1202.76,-459.081"/>
<polygon fill="#9a87e5" stroke="#9a87e5" points="1226.72,-549.15 1224.95,-559.971 1228.01,-553.982 1229.3,-558.814 1229.3,-558.814 1229.3,-558.814 1228.01,-553.982 1233.64,-557.657 1226.72,-549.15 1226.72,-549.15"/>
<polygon fill="#9a87e5" stroke="#9a87e5" points="1202.68,-458.779 1204.46,-447.958 1201.39,-453.947 1200.11,-449.115 1200.11,-449.115 1200.11,-449.115 1201.39,-453.947 1195.76,-450.272 1202.68,-458.779 1202.68,-458.779"/>
</g>
<!-- Role -->
<g id="node9" class="node"><title>Role</title>
<polyline fill="none" stroke="black" points="1285.5,-298 1426.5,-298 "/>
<path fill="none" stroke="black" d="M1426.5,-298C1432.5,-298 1438.5,-304 1438.5,-310"/>
<polyline fill="none" stroke="black" points="1438.5,-310 1438.5,-392 "/>
<path fill="none" stroke="black" d="M1438.5,-392C1438.5,-398 1432.5,-404 1426.5,-404"/>
<polyline fill="none" stroke="black" points="1426.5,-404 1285.5,-404 "/>
<path fill="none" stroke="black" d="M1285.5,-404C1279.5,-404 1273.5,-398 1273.5,-392"/>
<polyline fill="none" stroke="black" points="1273.5,-392 1273.5,-310 "/>
<path fill="none" stroke="black" d="M1273.5,-310C1273.5,-304 1279.5,-298 1285.5,-298"/>
<text text-anchor="middle" x="1356" y="-387.4" font-family="Times Roman,serif" font-size="14.00">Role</text>
<polyline fill="none" stroke="black" points="1273.5,-378 1438.5,-378 "/>
<text text-anchor="start" x="1281.5" y="-361.4" font-family="Times Roman,serif" font-size="14.00">id :integer</text>
<text text-anchor="start" x="1281.5" y="-343.4" font-family="Times Roman,serif" font-size="14.00">name :string</text>
<text text-anchor="start" x="1281.5" y="-325.4" font-family="Times Roman,serif" font-size="14.00">created_at :datetime</text>
<text text-anchor="start" x="1281.5" y="-307.4" font-family="Times Roman,serif" font-size="14.00">updated_at :datetime</text>
</g>
<!-- User&#45;&gt;Role -->
<g id="edge4" class="edge"><title>User&#45;&gt;Role</title>
<path fill="none" stroke="#eb9216" d="M1303.33,-548.939C1315.87,-501.834 1329.14,-451.93 1339.23,-414.015"/>
<polygon fill="#eb9216" stroke="#eb9216" points="1303.28,-549.15 1296.36,-557.657 1301.99,-553.982 1300.7,-558.814 1300.7,-558.814 1300.7,-558.814 1301.99,-553.982 1305.05,-559.971 1303.28,-549.15 1303.28,-549.15"/>
<polygon fill="#eb9216" stroke="#eb9216" points="1339.29,-413.812 1346.21,-405.306 1340.57,-408.981 1341.86,-404.149 1341.86,-404.149 1341.86,-404.149 1340.57,-408.981 1337.51,-402.992 1339.29,-413.812 1339.29,-413.812"/>
</g>
<!-- Ordercontent -->
<g id="node11" class="node"><title>Ordercontent</title>
<polyline fill="none" stroke="black" points="1285.5,-1 1426.5,-1 "/>
<path fill="none" stroke="black" d="M1426.5,-1C1432.5,-1 1438.5,-7 1438.5,-13"/>
<polyline fill="none" stroke="black" points="1438.5,-13 1438.5,-131 "/>
<path fill="none" stroke="black" d="M1438.5,-131C1438.5,-137 1432.5,-143 1426.5,-143"/>
<polyline fill="none" stroke="black" points="1426.5,-143 1285.5,-143 "/>
<path fill="none" stroke="black" d="M1285.5,-143C1279.5,-143 1273.5,-137 1273.5,-131"/>
<polyline fill="none" stroke="black" points="1273.5,-131 1273.5,-13 "/>
<path fill="none" stroke="black" d="M1273.5,-13C1273.5,-7 1279.5,-1 1285.5,-1"/>
<text text-anchor="middle" x="1356" y="-126.4" font-family="Times Roman,serif" font-size="14.00">Ordercontent</text>
<polyline fill="none" stroke="black" points="1273.5,-117 1438.5,-117 "/>
<text text-anchor="start" x="1281.5" y="-100.4" font-family="Times Roman,serif" font-size="14.00">id :integer</text>
<text text-anchor="start" x="1281.5" y="-82.4" font-family="Times Roman,serif" font-size="14.00">order_id :integer</text>
<text text-anchor="start" x="1281.5" y="-64.4" font-family="Times Roman,serif" font-size="14.00">item_id :integer</text>
<text text-anchor="start" x="1281.5" y="-46.4" font-family="Times Roman,serif" font-size="14.00">quantity :integer</text>
<text text-anchor="start" x="1281.5" y="-28.4" font-family="Times Roman,serif" font-size="14.00">created_at :datetime</text>
<text text-anchor="start" x="1281.5" y="-10.4" font-family="Times Roman,serif" font-size="14.00">updated_at :datetime</text>
</g>
<!-- Order&#45;&gt;Ordercontent -->
<g id="edge8" class="edge"><title>Order&#45;&gt;Ordercontent</title>
<path fill="none" stroke="#8307c2" d="M1225.67,-245.448C1237.74,-223.315 1251.15,-200.487 1265,-180 1271.49,-170.4 1278.69,-160.664 1286.11,-151.168"/>
<ellipse fill="none" stroke="#8307c2" cx="1223.7" cy="-249.087" rx="4.00002" ry="4.00002"/>
<polygon fill="#8307c2" stroke="#8307c2" points="1286.17,-151.092 1295.91,-146.053 1289.28,-147.174 1292.38,-143.257 1292.38,-143.257 1292.38,-143.257 1289.28,-147.174 1288.86,-140.46 1286.17,-151.092 1286.17,-151.092"/>
</g>
<!-- Sandwich -->
<g id="node6" class="node"><title>Sandwich</title>
<polyline fill="none" stroke="black" points="1709.5,-631 1850.5,-631 "/>
<path fill="none" stroke="black" d="M1850.5,-631C1856.5,-631 1862.5,-637 1862.5,-643"/>
<polyline fill="none" stroke="black" points="1862.5,-643 1862.5,-743 "/>
<path fill="none" stroke="black" d="M1862.5,-743C1862.5,-749 1856.5,-755 1850.5,-755"/>
<polyline fill="none" stroke="black" points="1850.5,-755 1709.5,-755 "/>
<path fill="none" stroke="black" d="M1709.5,-755C1703.5,-755 1697.5,-749 1697.5,-743"/>
<polyline fill="none" stroke="black" points="1697.5,-743 1697.5,-643 "/>
<path fill="none" stroke="black" d="M1697.5,-643C1697.5,-637 1703.5,-631 1709.5,-631"/>
<text text-anchor="middle" x="1780" y="-738.4" font-family="Times Roman,serif" font-size="14.00">Sandwich</text>
<polyline fill="none" stroke="black" points="1697.5,-729 1862.5,-729 "/>
<text text-anchor="start" x="1705.5" y="-712.4" font-family="Times Roman,serif" font-size="14.00">id :integer</text>
<text text-anchor="start" x="1705.5" y="-694.4" font-family="Times Roman,serif" font-size="14.00">name :string</text>
<text text-anchor="start" x="1705.5" y="-676.4" font-family="Times Roman,serif" font-size="14.00">created_at :datetime</text>
<text text-anchor="start" x="1705.5" y="-658.4" font-family="Times Roman,serif" font-size="14.00">updated_at :datetime</text>
<text text-anchor="start" x="1705.5" y="-640.4" font-family="Times Roman,serif" font-size="14.00">price :decimal</text>
</g>
<!-- Ingredient -->
<g id="node8" class="node"><title>Ingredient</title>
<polyline fill="none" stroke="black" points="1650,-253 1910,-253 "/>
<path fill="none" stroke="black" d="M1910,-253C1916,-253 1922,-259 1922,-265"/>
<polyline fill="none" stroke="black" points="1922,-265 1922,-437 "/>
<path fill="none" stroke="black" d="M1922,-437C1922,-443 1916,-449 1910,-449"/>
<polyline fill="none" stroke="black" points="1910,-449 1650,-449 "/>
<path fill="none" stroke="black" d="M1650,-449C1644,-449 1638,-443 1638,-437"/>
<polyline fill="none" stroke="black" points="1638,-437 1638,-265 "/>
<path fill="none" stroke="black" d="M1638,-265C1638,-259 1644,-253 1650,-253"/>
<text text-anchor="middle" x="1780" y="-432.4" font-family="Times Roman,serif" font-size="14.00">Ingredient</text>
<polyline fill="none" stroke="black" points="1638,-423 1922,-423 "/>
<text text-anchor="start" x="1646" y="-406.4" font-family="Times Roman,serif" font-size="14.00">id :integer</text>
<text text-anchor="start" x="1646" y="-388.4" font-family="Times Roman,serif" font-size="14.00">name :string</text>
<text text-anchor="start" x="1646" y="-370.4" font-family="Times Roman,serif" font-size="14.00">description :text</text>
<text text-anchor="start" x="1646" y="-352.4" font-family="Times Roman,serif" font-size="14.00">created_at :datetime</text>
<text text-anchor="start" x="1646" y="-334.4" font-family="Times Roman,serif" font-size="14.00">updated_at :datetime</text>
<text text-anchor="start" x="1646" y="-316.4" font-family="Times Roman,serif" font-size="14.00">ingredientimage_file_name :string</text>
<text text-anchor="start" x="1646" y="-298.4" font-family="Times Roman,serif" font-size="14.00">ingredientimage_content_type :string</text>
<text text-anchor="start" x="1646" y="-280.4" font-family="Times Roman,serif" font-size="14.00">ingredientimage_file_size :integer</text>
<text text-anchor="start" x="1646" y="-262.4" font-family="Times Roman,serif" font-size="14.00">ingredientimage_updated_at :datetime</text>
</g>
<!-- Sandwich&#45;&gt;Ingredient -->
<g id="edge10" class="edge"><title>Sandwich&#45;&gt;Ingredient</title>
<path fill="none" stroke="#a58998" d="M1780,-620.611C1780,-573.743 1780,-511.863 1780,-459.207"/>
<polygon fill="#a58998" stroke="#a58998" points="1780,-620.67 1775.5,-630.67 1780,-625.67 1780,-630.67 1780,-630.67 1780,-630.67 1780,-625.67 1784.5,-630.67 1780,-620.67 1780,-620.67"/>
<polygon fill="#a58998" stroke="#a58998" points="1780,-459.148 1784.5,-449.147 1780,-454.148 1780,-449.148 1780,-449.148 1780,-449.148 1780,-454.148 1775.5,-449.148 1780,-459.148 1780,-459.148"/>
</g>
<!-- Color -->
<g id="node10" class="node"><title>Color</title>
<polyline fill="none" stroke="black" points="11.5,-19 152.5,-19 "/>
<path fill="none" stroke="black" d="M152.5,-19C158.5,-19 164.5,-25 164.5,-31"/>
<polyline fill="none" stroke="black" points="164.5,-31 164.5,-113 "/>
<path fill="none" stroke="black" d="M164.5,-113C164.5,-119 158.5,-125 152.5,-125"/>
<polyline fill="none" stroke="black" points="152.5,-125 11.5,-125 "/>
<path fill="none" stroke="black" d="M11.5,-125C5.5,-125 -0.5,-119 -0.5,-113"/>
<polyline fill="none" stroke="black" points="-0.5,-113 -0.5,-31 "/>
<path fill="none" stroke="black" d="M-0.5,-31C-0.5,-25 5.5,-19 11.5,-19"/>
<text text-anchor="middle" x="82" y="-108.4" font-family="Times Roman,serif" font-size="14.00">Color</text>
<polyline fill="none" stroke="black" points="-0.5,-99 164.5,-99 "/>
<text text-anchor="start" x="7.5" y="-82.4" font-family="Times Roman,serif" font-size="14.00">id :integer</text>
<text text-anchor="start" x="7.5" y="-64.4" font-family="Times Roman,serif" font-size="14.00">name :string</text>
<text text-anchor="start" x="7.5" y="-46.4" font-family="Times Roman,serif" font-size="14.00">created_at :datetime</text>
<text text-anchor="start" x="7.5" y="-28.4" font-family="Times Roman,serif" font-size="14.00">updated_at :datetime</text>
</g>
<!-- Beer&#45;&gt;Color -->
<g id="edge18" class="edge"><title>Beer&#45;&gt;Color</title>
<path fill="none" stroke="#54867b" d="M495.676,-300.77C402.515,-263.048 276.475,-207.179 173,-144 166.472,-140.014 159.878,-135.626 153.382,-131.044"/>
<polygon fill="#54867b" stroke="#54867b" points="495.882,-300.853 503.474,-308.766 500.519,-302.723 505.156,-304.592 505.156,-304.592 505.156,-304.592 500.519,-302.723 506.839,-300.419 495.882,-300.853 495.882,-300.853"/>
<polygon fill="#54867b" stroke="#54867b" points="153.327,-131.004 147.852,-121.503 149.273,-128.078 145.219,-125.152 145.219,-125.152 145.219,-125.152 149.273,-128.078 142.585,-128.801 153.327,-131.004 153.327,-131.004"/>
</g>
<!-- Container -->
<g id="node12" class="node"><title>Container</title>
<polyline fill="none" stroke="black" points="193.5,-19 334.5,-19 "/>
<path fill="none" stroke="black" d="M334.5,-19C340.5,-19 346.5,-25 346.5,-31"/>
<polyline fill="none" stroke="black" points="346.5,-31 346.5,-113 "/>
<path fill="none" stroke="black" d="M346.5,-113C346.5,-119 340.5,-125 334.5,-125"/>
<polyline fill="none" stroke="black" points="334.5,-125 193.5,-125 "/>
<path fill="none" stroke="black" d="M193.5,-125C187.5,-125 181.5,-119 181.5,-113"/>
<polyline fill="none" stroke="black" points="181.5,-113 181.5,-31 "/>
<path fill="none" stroke="black" d="M181.5,-31C181.5,-25 187.5,-19 193.5,-19"/>
<text text-anchor="middle" x="264" y="-108.4" font-family="Times Roman,serif" font-size="14.00">Container</text>
<polyline fill="none" stroke="black" points="181.5,-99 346.5,-99 "/>
<text text-anchor="start" x="189.5" y="-82.4" font-family="Times Roman,serif" font-size="14.00">id :integer</text>
<text text-anchor="start" x="189.5" y="-64.4" font-family="Times Roman,serif" font-size="14.00">name :string</text>
<text text-anchor="start" x="189.5" y="-46.4" font-family="Times Roman,serif" font-size="14.00">created_at :datetime</text>
<text text-anchor="start" x="189.5" y="-28.4" font-family="Times Roman,serif" font-size="14.00">updated_at :datetime</text>
</g>
<!-- Beer&#45;&gt;Container -->
<g id="edge20" class="edge"><title>Beer&#45;&gt;Container</title>
<path fill="none" stroke="#bb9c11" d="M498.885,-253.958C453.268,-219.446 401.707,-180.179 355,-144 349.269,-139.561 343.351,-134.947 337.412,-130.295"/>
<ellipse fill="none" stroke="#bb9c11" cx="502.091" cy="-256.382" rx="4.00002" ry="4.00002"/>
<ellipse fill="#bb9c11" stroke="#bb9c11" cx="334.114" cy="-127.708" rx="4.00002" ry="4.00002"/>
</g>
<!-- Aroma -->
<g id="node13" class="node"><title>Aroma</title>
<polyline fill="none" stroke="black" points="375.5,-19 516.5,-19 "/>
<path fill="none" stroke="black" d="M516.5,-19C522.5,-19 528.5,-25 528.5,-31"/>
<polyline fill="none" stroke="black" points="528.5,-31 528.5,-113 "/>
<path fill="none" stroke="black" d="M528.5,-113C528.5,-119 522.5,-125 516.5,-125"/>
<polyline fill="none" stroke="black" points="516.5,-125 375.5,-125 "/>
<path fill="none" stroke="black" d="M375.5,-125C369.5,-125 363.5,-119 363.5,-113"/>
<polyline fill="none" stroke="black" points="363.5,-113 363.5,-31 "/>
<path fill="none" stroke="black" d="M363.5,-31C363.5,-25 369.5,-19 375.5,-19"/>
<text text-anchor="middle" x="446" y="-108.4" font-family="Times Roman,serif" font-size="14.00">Aroma</text>
<polyline fill="none" stroke="black" points="363.5,-99 528.5,-99 "/>
<text text-anchor="start" x="371.5" y="-82.4" font-family="Times Roman,serif" font-size="14.00">id :integer</text>
<text text-anchor="start" x="371.5" y="-64.4" font-family="Times Roman,serif" font-size="14.00">name :string</text>
<text text-anchor="start" x="371.5" y="-46.4" font-family="Times Roman,serif" font-size="14.00">created_at :datetime</text>
<text text-anchor="start" x="371.5" y="-28.4" font-family="Times Roman,serif" font-size="14.00">updated_at :datetime</text>
</g>
<!-- Beer&#45;&gt;Aroma -->
<g id="edge14" class="edge"><title>Beer&#45;&gt;Aroma</title>
<path fill="none" stroke="#414cac" d="M511.129,-171.84C502.338,-158.364 493.899,-145.427 486.178,-133.591"/>
<polygon fill="#414cac" stroke="#414cac" points="511.423,-172.292 513.118,-183.126 514.155,-176.48 516.887,-180.668 516.887,-180.668 516.887,-180.668 514.155,-176.48 520.656,-178.209 511.423,-172.292 511.423,-172.292"/>
<polygon fill="#414cac" stroke="#414cac" points="486.152,-133.551 484.457,-122.717 483.42,-129.363 480.688,-125.176 480.688,-125.176 480.688,-125.176 483.42,-129.363 476.919,-127.634 486.152,-133.551 486.152,-133.551"/>
</g>
<!-- Manufacturer -->
<g id="node14" class="node"><title>Manufacturer</title>
<polyline fill="none" stroke="black" points="557.5,-19 698.5,-19 "/>
<path fill="none" stroke="black" d="M698.5,-19C704.5,-19 710.5,-25 710.5,-31"/>
<polyline fill="none" stroke="black" points="710.5,-31 710.5,-113 "/>
<path fill="none" stroke="black" d="M710.5,-113C710.5,-119 704.5,-125 698.5,-125"/>
<polyline fill="none" stroke="black" points="698.5,-125 557.5,-125 "/>
<path fill="none" stroke="black" d="M557.5,-125C551.5,-125 545.5,-119 545.5,-113"/>
<polyline fill="none" stroke="black" points="545.5,-113 545.5,-31 "/>
<path fill="none" stroke="black" d="M545.5,-31C545.5,-25 551.5,-19 557.5,-19"/>
<text text-anchor="middle" x="628" y="-108.4" font-family="Times Roman,serif" font-size="14.00">Manufacturer</text>
<polyline fill="none" stroke="black" points="545.5,-99 710.5,-99 "/>
<text text-anchor="start" x="553.5" y="-82.4" font-family="Times Roman,serif" font-size="14.00">id :integer</text>
<text text-anchor="start" x="553.5" y="-64.4" font-family="Times Roman,serif" font-size="14.00">name :string</text>
<text text-anchor="start" x="553.5" y="-46.4" font-family="Times Roman,serif" font-size="14.00">created_at :datetime</text>
<text text-anchor="start" x="553.5" y="-28.4" font-family="Times Roman,serif" font-size="14.00">updated_at :datetime</text>
</g>
<!-- Beer&#45;&gt;Manufacturer -->
<g id="edge24" class="edge"><title>Beer&#45;&gt;Manufacturer</title>
<path fill="none" stroke="#d53728" d="M628,-172.301C628,-158.557 628,-145.366 628,-133.323"/>
<ellipse fill="none" stroke="#d53728" cx="628" cy="-176.668" rx="4" ry="4"/>
<ellipse fill="#d53728" stroke="#d53728" cx="628" cy="-129.176" rx="4" ry="4"/>
</g>
<!-- Lid -->
<g id="node15" class="node"><title>Lid</title>
<polyline fill="none" stroke="black" points="739.5,-19 880.5,-19 "/>
<path fill="none" stroke="black" d="M880.5,-19C886.5,-19 892.5,-25 892.5,-31"/>
<polyline fill="none" stroke="black" points="892.5,-31 892.5,-113 "/>
<path fill="none" stroke="black" d="M892.5,-113C892.5,-119 886.5,-125 880.5,-125"/>
<polyline fill="none" stroke="black" points="880.5,-125 739.5,-125 "/>
<path fill="none" stroke="black" d="M739.5,-125C733.5,-125 727.5,-119 727.5,-113"/>
<polyline fill="none" stroke="black" points="727.5,-113 727.5,-31 "/>
<path fill="none" stroke="black" d="M727.5,-31C727.5,-25 733.5,-19 739.5,-19"/>
<text text-anchor="middle" x="810" y="-108.4" font-family="Times Roman,serif" font-size="14.00">Lid</text>
<polyline fill="none" stroke="black" points="727.5,-99 892.5,-99 "/>
<text text-anchor="start" x="735.5" y="-82.4" font-family="Times Roman,serif" font-size="14.00">id :integer</text>
<text text-anchor="start" x="735.5" y="-64.4" font-family="Times Roman,serif" font-size="14.00">name :string</text>
<text text-anchor="start" x="735.5" y="-46.4" font-family="Times Roman,serif" font-size="14.00">created_at :datetime</text>
<text text-anchor="start" x="735.5" y="-28.4" font-family="Times Roman,serif" font-size="14.00">updated_at :datetime</text>
</g>
<!-- Beer&#45;&gt;Lid -->
<g id="edge22" class="edge"><title>Beer&#45;&gt;Lid</title>
<path fill="none" stroke="#bf68bf" d="M743.667,-173.687C753.256,-158.986 762.45,-144.892 770.778,-132.126"/>
<ellipse fill="none" stroke="#bf68bf" cx="741.298" cy="-177.317" rx="4.00002" ry="4.00002"/>
<ellipse fill="#bf68bf" stroke="#bf68bf" cx="773.127" cy="-128.526" rx="4.00002" ry="4.00002"/>
</g>
<!-- Taste -->
<g id="node16" class="node"><title>Taste</title>
<polyline fill="none" stroke="black" points="921.5,-19 1062.5,-19 "/>
<path fill="none" stroke="black" d="M1062.5,-19C1068.5,-19 1074.5,-25 1074.5,-31"/>
<polyline fill="none" stroke="black" points="1074.5,-31 1074.5,-113 "/>
<path fill="none" stroke="black" d="M1074.5,-113C1074.5,-119 1068.5,-125 1062.5,-125"/>
<polyline fill="none" stroke="black" points="1062.5,-125 921.5,-125 "/>
<path fill="none" stroke="black" d="M921.5,-125C915.5,-125 909.5,-119 909.5,-113"/>
<polyline fill="none" stroke="black" points="909.5,-113 909.5,-31 "/>
<path fill="none" stroke="black" d="M909.5,-31C909.5,-25 915.5,-19 921.5,-19"/>
<text text-anchor="middle" x="992" y="-108.4" font-family="Times Roman,serif" font-size="14.00">Taste</text>
<polyline fill="none" stroke="black" points="909.5,-99 1074.5,-99 "/>
<text text-anchor="start" x="917.5" y="-82.4" font-family="Times Roman,serif" font-size="14.00">id :integer</text>
<text text-anchor="start" x="917.5" y="-64.4" font-family="Times Roman,serif" font-size="14.00">name :string</text>
<text text-anchor="start" x="917.5" y="-46.4" font-family="Times Roman,serif" font-size="14.00">created_at :datetime</text>
<text text-anchor="start" x="917.5" y="-28.4" font-family="Times Roman,serif" font-size="14.00">updated_at :datetime</text>
</g>
<!-- Beer&#45;&gt;Taste -->
<g id="edge16" class="edge"><title>Beer&#45;&gt;Taste</title>
<path fill="none" stroke="#547b20" d="M758.797,-252.685C803.996,-218.483 854.866,-179.735 901,-144 906.243,-139.939 911.643,-135.731 917.072,-131.482"/>
<polygon fill="#547b20" stroke="#547b20" points="758.695,-252.763 748.004,-255.206 754.707,-255.779 750.719,-258.795 750.719,-258.795 750.719,-258.795 754.707,-255.779 753.434,-262.384 758.695,-252.763 758.695,-252.763"/>
<polygon fill="#547b20" stroke="#547b20" points="917.164,-131.41 927.81,-128.78 921.098,-128.325 925.033,-125.239 925.033,-125.239 925.033,-125.239 921.098,-128.325 922.256,-121.698 917.164,-131.41 917.164,-131.41"/>
</g>
<!-- Beerstyle -->
<g id="node18" class="node"><title>Beerstyle</title>
<polyline fill="none" stroke="black" points="1103.5,-19 1244.5,-19 "/>
<path fill="none" stroke="black" d="M1244.5,-19C1250.5,-19 1256.5,-25 1256.5,-31"/>
<polyline fill="none" stroke="black" points="1256.5,-31 1256.5,-113 "/>
<path fill="none" stroke="black" d="M1256.5,-113C1256.5,-119 1250.5,-125 1244.5,-125"/>
<polyline fill="none" stroke="black" points="1244.5,-125 1103.5,-125 "/>
<path fill="none" stroke="black" d="M1103.5,-125C1097.5,-125 1091.5,-119 1091.5,-113"/>
<polyline fill="none" stroke="black" points="1091.5,-113 1091.5,-31 "/>
<path fill="none" stroke="black" d="M1091.5,-31C1091.5,-25 1097.5,-19 1103.5,-19"/>
<text text-anchor="middle" x="1174" y="-108.4" font-family="Times Roman,serif" font-size="14.00">Beerstyle</text>
<polyline fill="none" stroke="black" points="1091.5,-99 1256.5,-99 "/>
<text text-anchor="start" x="1099.5" y="-82.4" font-family="Times Roman,serif" font-size="14.00">id :integer</text>
<text text-anchor="start" x="1099.5" y="-64.4" font-family="Times Roman,serif" font-size="14.00">name :string</text>
<text text-anchor="start" x="1099.5" y="-46.4" font-family="Times Roman,serif" font-size="14.00">created_at :datetime</text>
<text text-anchor="start" x="1099.5" y="-28.4" font-family="Times Roman,serif" font-size="14.00">updated_at :datetime</text>
</g>
<!-- Beer&#45;&gt;Beerstyle -->
<g id="edge12" class="edge"><title>Beer&#45;&gt;Beerstyle</title>
<path fill="none" stroke="#8e9743" d="M760.324,-300.77C853.485,-263.048 979.525,-207.179 1083,-144 1089.53,-140.014 1096.12,-135.626 1102.62,-131.044"/>
<polygon fill="#8e9743" stroke="#8e9743" points="760.118,-300.853 749.161,-300.419 755.481,-302.723 750.844,-304.592 750.844,-304.592 750.844,-304.592 755.481,-302.723 752.526,-308.766 760.118,-300.853 760.118,-300.853"/>
<polygon fill="#8e9743" stroke="#8e9743" points="1102.67,-131.004 1113.42,-128.801 1106.73,-128.078 1110.78,-125.152 1110.78,-125.152 1110.78,-125.152 1106.73,-128.078 1108.15,-121.503 1102.67,-131.004 1102.67,-131.004"/>
</g>
<!-- Item -->
<g id="node17" class="node"><title>Item</title>
<polyline fill="none" stroke="black" points="1467.5,-280 1608.5,-280 "/>
<path fill="none" stroke="black" d="M1608.5,-280C1614.5,-280 1620.5,-286 1620.5,-292"/>
<polyline fill="none" stroke="black" points="1620.5,-292 1620.5,-410 "/>
<path fill="none" stroke="black" d="M1620.5,-410C1620.5,-416 1614.5,-422 1608.5,-422"/>
<polyline fill="none" stroke="black" points="1608.5,-422 1467.5,-422 "/>
<path fill="none" stroke="black" d="M1467.5,-422C1461.5,-422 1455.5,-416 1455.5,-410"/>
<polyline fill="none" stroke="black" points="1455.5,-410 1455.5,-292 "/>
<path fill="none" stroke="black" d="M1455.5,-292C1455.5,-286 1461.5,-280 1467.5,-280"/>
<text text-anchor="middle" x="1538" y="-405.4" font-family="Times Roman,serif" font-size="14.00">Item</text>
<polyline fill="none" stroke="black" points="1455.5,-396 1620.5,-396 "/>
<text text-anchor="start" x="1463.5" y="-379.4" font-family="Times Roman,serif" font-size="14.00">id :integer</text>
<text text-anchor="start" x="1463.5" y="-361.4" font-family="Times Roman,serif" font-size="14.00">name :string</text>
<text text-anchor="start" x="1463.5" y="-343.4" font-family="Times Roman,serif" font-size="14.00">status :string</text>
<text text-anchor="start" x="1463.5" y="-325.4" font-family="Times Roman,serif" font-size="14.00">created_at :datetime</text>
<text text-anchor="start" x="1463.5" y="-307.4" font-family="Times Roman,serif" font-size="14.00">updated_at :datetime</text>
<text text-anchor="start" x="1463.5" y="-289.4" font-family="Times Roman,serif" font-size="14.00">iid :integer</text>
</g>
<!-- Item&#45;&gt;Ordercontent -->
<g id="edge26" class="edge"><title>Item&#45;&gt;Ordercontent</title>
<path fill="none" stroke="#f87e8f" d="M1500.45,-272.128C1485.18,-242.439 1466.54,-208.891 1447,-180 1440.51,-170.4 1433.31,-160.664 1425.89,-151.168"/>
<ellipse fill="none" stroke="#f87e8f" cx="1502.44" cy="-276.025" rx="4.00002" ry="4.00002"/>
<polygon fill="#f87e8f" stroke="#f87e8f" points="1425.83,-151.092 1423.14,-140.46 1422.72,-147.174 1419.62,-143.257 1419.62,-143.257 1419.62,-143.257 1422.72,-147.174 1416.09,-146.053 1425.83,-151.092 1425.83,-151.092"/>
</g>
<!-- AdminAbility -->
<g id="node19" class="node"><title>AdminAbility</title>
<polygon fill="none" stroke="black" points="1880,-667 1880,-719 1984,-719 1984,-667 1880,-667"/>
<text text-anchor="middle" x="1932" y="-702.4" font-family="Times Roman,serif" font-size="14.00">AdminAbility</text>
<polyline fill="none" stroke="black" points="1880,-693 1984,-693 "/>
<text text-anchor="middle" x="1932" y="-676.4" font-family="Times Roman,serif" font-size="14.00"> </text>
</g>
</g>
</svg>
