<?xml version="1.0" encoding="UTF-8" standalone="no"?>
<!DOCTYPE svg PUBLIC "-//W3C//DTD SVG 1.1//EN"
 "http://www.w3.org/Graphics/SVG/1.1/DTD/svg11.dtd">
<!-- Generated by graphviz version 2.26.3 (20100126.1600)
 -->
<!-- Title: models_diagram Pages: 1 -->
<svg width="1668pt" height="782pt"
 viewBox="0.00 0.00 1668.00 782.00" xmlns="http://www.w3.org/2000/svg" xmlns:xlink="http://www.w3.org/1999/xlink">
<g id="graph1" class="graph" transform="scale(1 1) rotate(0) translate(4 778)">
<title>models_diagram</title>
<polygon fill="white" stroke="white" points="-4,5 -4,-778 1665,-778 1665,5 -4,5"/>
<!-- _diagram_info -->
<g id="node1" class="node"><title>_diagram_info</title>
<text text-anchor="start" x="208" y="-669.8" font-family="Times Roman,serif" font-size="13.00">Models diagram</text>
<text text-anchor="start" x="208" y="-652.8" font-family="Times Roman,serif" font-size="13.00">Date: Apr 10 2013 &#45; 14:13</text>
<text text-anchor="start" x="208" y="-635.8" font-family="Times Roman,serif" font-size="13.00">Migration version: 20130410104810</text>
<text text-anchor="start" x="208" y="-618.8" font-family="Times Roman,serif" font-size="13.00">Generated by RailRoady 1.1.0</text>
<text text-anchor="start" x="208" y="-601.8" font-family="Times Roman,serif" font-size="13.00">http://railroady.prestonlee.com</text>
</g>
<!-- Ability -->
<g id="node2" class="node"><title>Ability</title>
<polygon fill="none" stroke="black" points="468,-613 468,-665 528,-665 528,-613 468,-613"/>
<text text-anchor="middle" x="498" y="-648.4" font-family="Times Roman,serif" font-size="14.00">Ability</text>
<polyline fill="none" stroke="black" points="468,-639 528,-639 "/>
<text text-anchor="middle" x="498" y="-622.4" font-family="Times Roman,serif" font-size="14.00"> </text>
</g>
<!-- Foam -->
<g id="node3" class="node"><title>Foam</title>
<polyline fill="none" stroke="black" points="557.5,-586 698.5,-586 "/>
<path fill="none" stroke="black" d="M698.5,-586C704.5,-586 710.5,-592 710.5,-598"/>
<polyline fill="none" stroke="black" points="710.5,-598 710.5,-680 "/>
<path fill="none" stroke="black" d="M710.5,-680C710.5,-686 704.5,-692 698.5,-692"/>
<polyline fill="none" stroke="black" points="698.5,-692 557.5,-692 "/>
<path fill="none" stroke="black" d="M557.5,-692C551.5,-692 545.5,-686 545.5,-680"/>
<polyline fill="none" stroke="black" points="545.5,-680 545.5,-598 "/>
<path fill="none" stroke="black" d="M545.5,-598C545.5,-592 551.5,-586 557.5,-586"/>
<text text-anchor="middle" x="628" y="-675.4" font-family="Times Roman,serif" font-size="14.00">Foam</text>
<polyline fill="none" stroke="black" points="545.5,-666 710.5,-666 "/>
<text text-anchor="start" x="553.5" y="-649.4" font-family="Times Roman,serif" font-size="14.00">id :integer</text>
<text text-anchor="start" x="553.5" y="-631.4" font-family="Times Roman,serif" font-size="14.00">name :string</text>
<text text-anchor="start" x="553.5" y="-613.4" font-family="Times Roman,serif" font-size="14.00">created_at :datetime</text>
<text text-anchor="start" x="553.5" y="-595.4" font-family="Times Roman,serif" font-size="14.00">updated_at :datetime</text>
</g>
<!-- Beer -->
<g id="node7" class="node"><title>Beer</title>
<polyline fill="none" stroke="black" points="517.5,-145 738.5,-145 "/>
<path fill="none" stroke="black" d="M738.5,-145C744.5,-145 750.5,-151 750.5,-157"/>
<polyline fill="none" stroke="black" points="750.5,-157 750.5,-455 "/>
<path fill="none" stroke="black" d="M750.5,-455C750.5,-461 744.5,-467 738.5,-467"/>
<polyline fill="none" stroke="black" points="738.5,-467 517.5,-467 "/>
<path fill="none" stroke="black" d="M517.5,-467C511.5,-467 505.5,-461 505.5,-455"/>
<polyline fill="none" stroke="black" points="505.5,-455 505.5,-157 "/>
<path fill="none" stroke="black" d="M505.5,-157C505.5,-151 511.5,-145 517.5,-145"/>
<text text-anchor="middle" x="628" y="-450.4" font-family="Times Roman,serif" font-size="14.00">Beer</text>
<polyline fill="none" stroke="black" points="505.5,-441 750.5,-441 "/>
<text text-anchor="start" x="513.5" y="-424.4" font-family="Times Roman,serif" font-size="14.00">id :integer</text>
<text text-anchor="start" x="513.5" y="-406.4" font-family="Times Roman,serif" font-size="14.00">name :string</text>
<text text-anchor="start" x="513.5" y="-388.4" font-family="Times Roman,serif" font-size="14.00">manufacturer_id :integer</text>
<text text-anchor="start" x="513.5" y="-370.4" font-family="Times Roman,serif" font-size="14.00">strength :decimal</text>
<text text-anchor="start" x="513.5" y="-352.4" font-family="Times Roman,serif" font-size="14.00">container_id :integer</text>
<text text-anchor="start" x="513.5" y="-334.4" font-family="Times Roman,serif" font-size="14.00">lid_id :integer</text>
<text text-anchor="start" x="513.5" y="-316.4" font-family="Times Roman,serif" font-size="14.00">added_by :integer</text>
<text text-anchor="start" x="513.5" y="-298.4" font-family="Times Roman,serif" font-size="14.00">updated_by :integer</text>
<text text-anchor="start" x="513.5" y="-280.4" font-family="Times Roman,serif" font-size="14.00">created_at :datetime</text>
<text text-anchor="start" x="513.5" y="-262.4" font-family="Times Roman,serif" font-size="14.00">updated_at :datetime</text>
<text text-anchor="start" x="513.5" y="-244.4" font-family="Times Roman,serif" font-size="14.00">volume :decimal</text>
<text text-anchor="start" x="513.5" y="-226.4" font-family="Times Roman,serif" font-size="14.00">description :text</text>
<text text-anchor="start" x="513.5" y="-208.4" font-family="Times Roman,serif" font-size="14.00">imagebeer_file_name :string</text>
<text text-anchor="start" x="513.5" y="-190.4" font-family="Times Roman,serif" font-size="14.00">imagebeer_content_type :string</text>
<text text-anchor="start" x="513.5" y="-172.4" font-family="Times Roman,serif" font-size="14.00">imagebeer_file_size :integer</text>
<text text-anchor="start" x="513.5" y="-154.4" font-family="Times Roman,serif" font-size="14.00">imagebeer_updated_at :datetime</text>
</g>
<!-- Foam&#45;&gt;Beer -->
<g id="edge2" class="edge"><title>Foam&#45;&gt;Beer</title>
<path fill="none" stroke="#5ae7a0" d="M628,-575.666C628,-547.448 628,-512.704 628,-477.656"/>
<polygon fill="#5ae7a0" stroke="#5ae7a0" points="628,-575.867 623.5,-585.867 628,-580.867 628,-585.867 628,-585.867 628,-585.867 628,-580.867 632.5,-585.867 628,-575.867 628,-575.867"/>
<polygon fill="#5ae7a0" stroke="#5ae7a0" points="628,-477.274 632.5,-467.274 628,-472.274 628,-467.274 628,-467.274 628,-467.274 628,-472.274 623.5,-467.274 628,-477.274 628,-477.274"/>
</g>
<!-- User -->
<g id="node4" class="node"><title>User</title>
<polyline fill="none" stroke="black" points="829,-505 1059,-505 "/>
<path fill="none" stroke="black" d="M1059,-505C1065,-505 1071,-511 1071,-517"/>
<polyline fill="none" stroke="black" points="1071,-517 1071,-761 "/>
<path fill="none" stroke="black" d="M1071,-761C1071,-767 1065,-773 1059,-773"/>
<polyline fill="none" stroke="black" points="1059,-773 829,-773 "/>
<path fill="none" stroke="black" d="M829,-773C823,-773 817,-767 817,-761"/>
<polyline fill="none" stroke="black" points="817,-761 817,-517 "/>
<path fill="none" stroke="black" d="M817,-517C817,-511 823,-505 829,-505"/>
<text text-anchor="middle" x="944" y="-756.4" font-family="Times Roman,serif" font-size="14.00">User</text>
<polyline fill="none" stroke="black" points="817,-747 1071,-747 "/>
<text text-anchor="start" x="825" y="-730.4" font-family="Times Roman,serif" font-size="14.00">id :integer</text>
<text text-anchor="start" x="825" y="-712.4" font-family="Times Roman,serif" font-size="14.00">email :string</text>
<text text-anchor="start" x="825" y="-694.4" font-family="Times Roman,serif" font-size="14.00">encrypted_password :string</text>
<text text-anchor="start" x="825" y="-676.4" font-family="Times Roman,serif" font-size="14.00">reset_password_token :string</text>
<text text-anchor="start" x="825" y="-658.4" font-family="Times Roman,serif" font-size="14.00">reset_password_sent_at :datetime</text>
<text text-anchor="start" x="825" y="-640.4" font-family="Times Roman,serif" font-size="14.00">remember_created_at :datetime</text>
<text text-anchor="start" x="825" y="-622.4" font-family="Times Roman,serif" font-size="14.00">sign_in_count :integer</text>
<text text-anchor="start" x="825" y="-604.4" font-family="Times Roman,serif" font-size="14.00">current_sign_in_at :datetime</text>
<text text-anchor="start" x="825" y="-586.4" font-family="Times Roman,serif" font-size="14.00">last_sign_in_at :datetime</text>
<text text-anchor="start" x="825" y="-568.4" font-family="Times Roman,serif" font-size="14.00">current_sign_in_ip :string</text>
<text text-anchor="start" x="825" y="-550.4" font-family="Times Roman,serif" font-size="14.00">last_sign_in_ip :string</text>
<text text-anchor="start" x="825" y="-532.4" font-family="Times Roman,serif" font-size="14.00">created_at :datetime</text>
<text text-anchor="start" x="825" y="-514.4" font-family="Times Roman,serif" font-size="14.00">updated_at :datetime</text>
</g>
<!-- Order -->
<g id="node5" class="node"><title>Order</title>
<polyline fill="none" stroke="black" points="779.5,-208 920.5,-208 "/>
<path fill="none" stroke="black" d="M920.5,-208C926.5,-208 932.5,-214 932.5,-220"/>
<polyline fill="none" stroke="black" points="932.5,-220 932.5,-392 "/>
<path fill="none" stroke="black" d="M932.5,-392C932.5,-398 926.5,-404 920.5,-404"/>
<polyline fill="none" stroke="black" points="920.5,-404 779.5,-404 "/>
<path fill="none" stroke="black" d="M779.5,-404C773.5,-404 767.5,-398 767.5,-392"/>
<polyline fill="none" stroke="black" points="767.5,-392 767.5,-220 "/>
<path fill="none" stroke="black" d="M767.5,-220C767.5,-214 773.5,-208 779.5,-208"/>
<text text-anchor="middle" x="850" y="-387.4" font-family="Times Roman,serif" font-size="14.00">Order</text>
<polyline fill="none" stroke="black" points="767.5,-378 932.5,-378 "/>
<text text-anchor="start" x="775.5" y="-361.4" font-family="Times Roman,serif" font-size="14.00">id :integer</text>
<text text-anchor="start" x="775.5" y="-343.4" font-family="Times Roman,serif" font-size="14.00">user_id :string</text>
<text text-anchor="start" x="775.5" y="-325.4" font-family="Times Roman,serif" font-size="14.00">addr :text</text>
<text text-anchor="start" x="775.5" y="-307.4" font-family="Times Roman,serif" font-size="14.00">time :datetime</text>
<text text-anchor="start" x="775.5" y="-289.4" font-family="Times Roman,serif" font-size="14.00">status :string</text>
<text text-anchor="start" x="775.5" y="-271.4" font-family="Times Roman,serif" font-size="14.00">info :text</text>
<text text-anchor="start" x="775.5" y="-253.4" font-family="Times Roman,serif" font-size="14.00">created_at :datetime</text>
<text text-anchor="start" x="775.5" y="-235.4" font-family="Times Roman,serif" font-size="14.00">updated_at :datetime</text>
<text text-anchor="start" x="775.5" y="-217.4" font-family="Times Roman,serif" font-size="14.00">telephone :string</text>
</g>
<!-- User&#45;&gt;Order -->
<g id="edge6" class="edge"><title>User&#45;&gt;Order</title>
<path fill="none" stroke="#3e240e" d="M903.372,-495.073C895.69,-467.86 887.777,-439.828 880.474,-413.956"/>
<polygon fill="#3e240e" stroke="#3e240e" points="903.456,-495.372 901.842,-506.218 904.815,-500.184 906.173,-504.996 906.173,-504.996 906.173,-504.996 904.815,-500.184 910.504,-503.773 903.456,-495.372 903.456,-495.372"/>
<polygon fill="#3e240e" stroke="#3e240e" points="880.423,-413.776 882.037,-402.93 879.065,-408.964 877.707,-404.152 877.707,-404.152 877.707,-404.152 879.065,-408.964 873.376,-405.375 880.423,-413.776 880.423,-413.776"/>
</g>
<!-- Role -->
<g id="node9" class="node"><title>Role</title>
<polyline fill="none" stroke="black" points="961.5,-253 1102.5,-253 "/>
<path fill="none" stroke="black" d="M1102.5,-253C1108.5,-253 1114.5,-259 1114.5,-265"/>
<polyline fill="none" stroke="black" points="1114.5,-265 1114.5,-347 "/>
<path fill="none" stroke="black" d="M1114.5,-347C1114.5,-353 1108.5,-359 1102.5,-359"/>
<polyline fill="none" stroke="black" points="1102.5,-359 961.5,-359 "/>
<path fill="none" stroke="black" d="M961.5,-359C955.5,-359 949.5,-353 949.5,-347"/>
<polyline fill="none" stroke="black" points="949.5,-347 949.5,-265 "/>
<path fill="none" stroke="black" d="M949.5,-265C949.5,-259 955.5,-253 961.5,-253"/>
<text text-anchor="middle" x="1032" y="-342.4" font-family="Times Roman,serif" font-size="14.00">Role</text>
<polyline fill="none" stroke="black" points="949.5,-333 1114.5,-333 "/>
<text text-anchor="start" x="957.5" y="-316.4" font-family="Times Roman,serif" font-size="14.00">id :integer</text>
<text text-anchor="start" x="957.5" y="-298.4" font-family="Times Roman,serif" font-size="14.00">name :string</text>
<text text-anchor="start" x="957.5" y="-280.4" font-family="Times Roman,serif" font-size="14.00">created_at :datetime</text>
<text text-anchor="start" x="957.5" y="-262.4" font-family="Times Roman,serif" font-size="14.00">updated_at :datetime</text>
</g>
<!-- User&#45;&gt;Role -->
<g id="edge4" class="edge"><title>User&#45;&gt;Role</title>
<path fill="none" stroke="#3bc08c" d="M982.039,-495.059C993.702,-450.924 1005.93,-404.636 1015.38,-368.908"/>
<polygon fill="#3bc08c" stroke="#3bc08c" points="981.968,-495.327 975.062,-503.846 980.69,-500.162 979.413,-504.996 979.413,-504.996 979.413,-504.996 980.69,-500.162 983.763,-506.145 981.968,-495.327 981.968,-495.327"/>
<polygon fill="#3bc08c" stroke="#3bc08c" points="1015.41,-368.789 1022.31,-360.271 1016.68,-363.955 1017.96,-359.121 1017.96,-359.121 1017.96,-359.121 1016.68,-363.955 1013.61,-357.971 1015.41,-368.789 1015.41,-368.789"/>
</g>
<!-- Sandwich -->
<g id="node6" class="node"><title>Sandwich</title>
<polyline fill="none" stroke="black" points="1203.5,-586 1344.5,-586 "/>
<path fill="none" stroke="black" d="M1344.5,-586C1350.5,-586 1356.5,-592 1356.5,-598"/>
<polyline fill="none" stroke="black" points="1356.5,-598 1356.5,-680 "/>
<path fill="none" stroke="black" d="M1356.5,-680C1356.5,-686 1350.5,-692 1344.5,-692"/>
<polyline fill="none" stroke="black" points="1344.5,-692 1203.5,-692 "/>
<path fill="none" stroke="black" d="M1203.5,-692C1197.5,-692 1191.5,-686 1191.5,-680"/>
<polyline fill="none" stroke="black" points="1191.5,-680 1191.5,-598 "/>
<path fill="none" stroke="black" d="M1191.5,-598C1191.5,-592 1197.5,-586 1203.5,-586"/>
<text text-anchor="middle" x="1274" y="-675.4" font-family="Times Roman,serif" font-size="14.00">Sandwich</text>
<polyline fill="none" stroke="black" points="1191.5,-666 1356.5,-666 "/>
<text text-anchor="start" x="1199.5" y="-649.4" font-family="Times Roman,serif" font-size="14.00">id :integer</text>
<text text-anchor="start" x="1199.5" y="-631.4" font-family="Times Roman,serif" font-size="14.00">name :string</text>
<text text-anchor="start" x="1199.5" y="-613.4" font-family="Times Roman,serif" font-size="14.00">created_at :datetime</text>
<text text-anchor="start" x="1199.5" y="-595.4" font-family="Times Roman,serif" font-size="14.00">updated_at :datetime</text>
</g>
<!-- Ingredient -->
<g id="node8" class="node"><title>Ingredient</title>
<polyline fill="none" stroke="black" points="1144,-208 1404,-208 "/>
<path fill="none" stroke="black" d="M1404,-208C1410,-208 1416,-214 1416,-220"/>
<polyline fill="none" stroke="black" points="1416,-220 1416,-392 "/>
<path fill="none" stroke="black" d="M1416,-392C1416,-398 1410,-404 1404,-404"/>
<polyline fill="none" stroke="black" points="1404,-404 1144,-404 "/>
<path fill="none" stroke="black" d="M1144,-404C1138,-404 1132,-398 1132,-392"/>
<polyline fill="none" stroke="black" points="1132,-392 1132,-220 "/>
<path fill="none" stroke="black" d="M1132,-220C1132,-214 1138,-208 1144,-208"/>
<text text-anchor="middle" x="1274" y="-387.4" font-family="Times Roman,serif" font-size="14.00">Ingredient</text>
<polyline fill="none" stroke="black" points="1132,-378 1416,-378 "/>
<text text-anchor="start" x="1140" y="-361.4" font-family="Times Roman,serif" font-size="14.00">id :integer</text>
<text text-anchor="start" x="1140" y="-343.4" font-family="Times Roman,serif" font-size="14.00">name :string</text>
<text text-anchor="start" x="1140" y="-325.4" font-family="Times Roman,serif" font-size="14.00">description :text</text>
<text text-anchor="start" x="1140" y="-307.4" font-family="Times Roman,serif" font-size="14.00">created_at :datetime</text>
<text text-anchor="start" x="1140" y="-289.4" font-family="Times Roman,serif" font-size="14.00">updated_at :datetime</text>
<text text-anchor="start" x="1140" y="-271.4" font-family="Times Roman,serif" font-size="14.00">ingredientimage_file_name :string</text>
<text text-anchor="start" x="1140" y="-253.4" font-family="Times Roman,serif" font-size="14.00">ingredientimage_content_type :string</text>
<text text-anchor="start" x="1140" y="-235.4" font-family="Times Roman,serif" font-size="14.00">ingredientimage_file_size :integer</text>
<text text-anchor="start" x="1140" y="-217.4" font-family="Times Roman,serif" font-size="14.00">ingredientimage_updated_at :datetime</text>
</g>
<!-- Sandwich&#45;&gt;Ingredient -->
<g id="edge8" class="edge"><title>Sandwich&#45;&gt;Ingredient</title>
<path fill="none" stroke="#953e0b" d="M1274,-575.839C1274,-530.354 1274,-467.85 1274,-414.451"/>
<polygon fill="#953e0b" stroke="#953e0b" points="1274,-575.867 1269.5,-585.867 1274,-580.867 1274,-585.867 1274,-585.867 1274,-585.867 1274,-580.867 1278.5,-585.867 1274,-575.867 1274,-575.867"/>
<polygon fill="#953e0b" stroke="#953e0b" points="1274,-414.247 1278.5,-404.247 1274,-409.247 1274,-404.247 1274,-404.247 1274,-404.247 1274,-409.247 1269.5,-404.247 1274,-414.247 1274,-414.247"/>
</g>
<!-- Color -->
<g id="node10" class="node"><title>Color</title>
<polyline fill="none" stroke="black" points="11.5,-1 152.5,-1 "/>
<path fill="none" stroke="black" d="M152.5,-1C158.5,-1 164.5,-7 164.5,-13"/>
<polyline fill="none" stroke="black" points="164.5,-13 164.5,-95 "/>
<path fill="none" stroke="black" d="M164.5,-95C164.5,-101 158.5,-107 152.5,-107"/>
<polyline fill="none" stroke="black" points="152.5,-107 11.5,-107 "/>
<path fill="none" stroke="black" d="M11.5,-107C5.5,-107 -0.5,-101 -0.5,-95"/>
<polyline fill="none" stroke="black" points="-0.5,-95 -0.5,-13 "/>
<path fill="none" stroke="black" d="M-0.5,-13C-0.5,-7 5.5,-1 11.5,-1"/>
<text text-anchor="middle" x="82" y="-90.4" font-family="Times Roman,serif" font-size="14.00">Color</text>
<polyline fill="none" stroke="black" points="-0.5,-81 164.5,-81 "/>
<text text-anchor="start" x="7.5" y="-64.4" font-family="Times Roman,serif" font-size="14.00">id :integer</text>
<text text-anchor="start" x="7.5" y="-46.4" font-family="Times Roman,serif" font-size="14.00">name :string</text>
<text text-anchor="start" x="7.5" y="-28.4" font-family="Times Roman,serif" font-size="14.00">created_at :datetime</text>
<text text-anchor="start" x="7.5" y="-10.4" font-family="Times Roman,serif" font-size="14.00">updated_at :datetime</text>
</g>
<!-- Beer&#45;&gt;Color -->
<g id="edge16" class="edge"><title>Beer&#45;&gt;Color</title>
<path fill="none" stroke="#821466" d="M496.026,-253.699C406.527,-217.026 285.949,-165.263 173.682,-108.241"/>
<polygon fill="#821466" stroke="#821466" points="496.123,-253.738 503.676,-261.688 500.751,-255.63 505.379,-257.523 505.379,-257.523 505.379,-257.523 500.751,-255.63 507.082,-253.357 496.123,-253.738 496.123,-253.738"/>
<polygon fill="#821466" stroke="#821466" points="173.487,-108.142 166.625,-99.5887 169.034,-105.87 164.58,-103.597 164.58,-103.597 164.58,-103.597 169.034,-105.87 162.535,-107.605 173.487,-108.142 173.487,-108.142"/>
</g>
<!-- Container -->
<g id="node11" class="node"><title>Container</title>
<polyline fill="none" stroke="black" points="193.5,-1 334.5,-1 "/>
<path fill="none" stroke="black" d="M334.5,-1C340.5,-1 346.5,-7 346.5,-13"/>
<polyline fill="none" stroke="black" points="346.5,-13 346.5,-95 "/>
<path fill="none" stroke="black" d="M346.5,-95C346.5,-101 340.5,-107 334.5,-107"/>
<polyline fill="none" stroke="black" points="334.5,-107 193.5,-107 "/>
<path fill="none" stroke="black" d="M193.5,-107C187.5,-107 181.5,-101 181.5,-95"/>
<polyline fill="none" stroke="black" points="181.5,-95 181.5,-13 "/>
<path fill="none" stroke="black" d="M181.5,-13C181.5,-7 187.5,-1 193.5,-1"/>
<text text-anchor="middle" x="264" y="-90.4" font-family="Times Roman,serif" font-size="14.00">Container</text>
<polyline fill="none" stroke="black" points="181.5,-81 346.5,-81 "/>
<text text-anchor="start" x="189.5" y="-64.4" font-family="Times Roman,serif" font-size="14.00">id :integer</text>
<text text-anchor="start" x="189.5" y="-46.4" font-family="Times Roman,serif" font-size="14.00">name :string</text>
<text text-anchor="start" x="189.5" y="-28.4" font-family="Times Roman,serif" font-size="14.00">created_at :datetime</text>
<text text-anchor="start" x="189.5" y="-10.4" font-family="Times Roman,serif" font-size="14.00">updated_at :datetime</text>
</g>
<!-- Beer&#45;&gt;Container -->
<g id="edge18" class="edge"><title>Beer&#45;&gt;Container</title>
<path fill="none" stroke="#73393a" d="M498.531,-216.367C448.269,-181.571 392.161,-142.727 347.429,-111.758"/>
<ellipse fill="none" stroke="#73393a" cx="501.985" cy="-218.759" rx="4.00002" ry="4.00002"/>
<ellipse fill="#73393a" stroke="#73393a" cx="343.921" cy="-109.33" rx="4.00002" ry="4.00002"/>
</g>
<!-- Aroma -->
<g id="node12" class="node"><title>Aroma</title>
<polyline fill="none" stroke="black" points="375.5,-1 516.5,-1 "/>
<path fill="none" stroke="black" d="M516.5,-1C522.5,-1 528.5,-7 528.5,-13"/>
<polyline fill="none" stroke="black" points="528.5,-13 528.5,-95 "/>
<path fill="none" stroke="black" d="M528.5,-95C528.5,-101 522.5,-107 516.5,-107"/>
<polyline fill="none" stroke="black" points="516.5,-107 375.5,-107 "/>
<path fill="none" stroke="black" d="M375.5,-107C369.5,-107 363.5,-101 363.5,-95"/>
<polyline fill="none" stroke="black" points="363.5,-95 363.5,-13 "/>
<path fill="none" stroke="black" d="M363.5,-13C363.5,-7 369.5,-1 375.5,-1"/>
<text text-anchor="middle" x="446" y="-90.4" font-family="Times Roman,serif" font-size="14.00">Aroma</text>
<polyline fill="none" stroke="black" points="363.5,-81 528.5,-81 "/>
<text text-anchor="start" x="371.5" y="-64.4" font-family="Times Roman,serif" font-size="14.00">id :integer</text>
<text text-anchor="start" x="371.5" y="-46.4" font-family="Times Roman,serif" font-size="14.00">name :string</text>
<text text-anchor="start" x="371.5" y="-28.4" font-family="Times Roman,serif" font-size="14.00">created_at :datetime</text>
<text text-anchor="start" x="371.5" y="-10.4" font-family="Times Roman,serif" font-size="14.00">updated_at :datetime</text>
</g>
<!-- Beer&#45;&gt;Aroma -->
<g id="edge12" class="edge"><title>Beer&#45;&gt;Aroma</title>
<path fill="none" stroke="#9839dc" d="M505.681,-136.636C500.455,-129.399 495.386,-122.38 490.555,-115.691"/>
<polygon fill="#9839dc" stroke="#9839dc" points="505.851,-136.871 508.058,-147.613 508.779,-140.924 511.706,-144.978 511.706,-144.978 511.706,-144.978 508.779,-140.924 515.354,-142.343 505.851,-136.871 505.851,-136.871"/>
<polygon fill="#9839dc" stroke="#9839dc" points="490.425,-115.511 488.218,-104.769 487.497,-111.458 484.57,-107.404 484.57,-107.404 484.57,-107.404 487.497,-111.458 480.922,-110.039 490.425,-115.511 490.425,-115.511"/>
</g>
<!-- Manufacturer -->
<g id="node13" class="node"><title>Manufacturer</title>
<polyline fill="none" stroke="black" points="557.5,-1 698.5,-1 "/>
<path fill="none" stroke="black" d="M698.5,-1C704.5,-1 710.5,-7 710.5,-13"/>
<polyline fill="none" stroke="black" points="710.5,-13 710.5,-95 "/>
<path fill="none" stroke="black" d="M710.5,-95C710.5,-101 704.5,-107 698.5,-107"/>
<polyline fill="none" stroke="black" points="698.5,-107 557.5,-107 "/>
<path fill="none" stroke="black" d="M557.5,-107C551.5,-107 545.5,-101 545.5,-95"/>
<polyline fill="none" stroke="black" points="545.5,-95 545.5,-13 "/>
<path fill="none" stroke="black" d="M545.5,-13C545.5,-7 551.5,-1 557.5,-1"/>
<text text-anchor="middle" x="628" y="-90.4" font-family="Times Roman,serif" font-size="14.00">Manufacturer</text>
<polyline fill="none" stroke="black" points="545.5,-81 710.5,-81 "/>
<text text-anchor="start" x="553.5" y="-64.4" font-family="Times Roman,serif" font-size="14.00">id :integer</text>
<text text-anchor="start" x="553.5" y="-46.4" font-family="Times Roman,serif" font-size="14.00">name :string</text>
<text text-anchor="start" x="553.5" y="-28.4" font-family="Times Roman,serif" font-size="14.00">created_at :datetime</text>
<text text-anchor="start" x="553.5" y="-10.4" font-family="Times Roman,serif" font-size="14.00">updated_at :datetime</text>
</g>
<!-- Beer&#45;&gt;Manufacturer -->
<g id="edge22" class="edge"><title>Beer&#45;&gt;Manufacturer</title>
<path fill="none" stroke="#d585ec" d="M628,-136.942C628,-129.627 628,-122.533 628,-115.775"/>
<ellipse fill="none" stroke="#d585ec" cx="628" cy="-140.978" rx="4" ry="4"/>
<ellipse fill="#d585ec" stroke="#d585ec" cx="628" cy="-111.404" rx="4" ry="4"/>
</g>
<!-- Lid -->
<g id="node14" class="node"><title>Lid</title>
<polyline fill="none" stroke="black" points="739.5,-1 880.5,-1 "/>
<path fill="none" stroke="black" d="M880.5,-1C886.5,-1 892.5,-7 892.5,-13"/>
<polyline fill="none" stroke="black" points="892.5,-13 892.5,-95 "/>
<path fill="none" stroke="black" d="M892.5,-95C892.5,-101 886.5,-107 880.5,-107"/>
<polyline fill="none" stroke="black" points="880.5,-107 739.5,-107 "/>
<path fill="none" stroke="black" d="M739.5,-107C733.5,-107 727.5,-101 727.5,-95"/>
<polyline fill="none" stroke="black" points="727.5,-95 727.5,-13 "/>
<path fill="none" stroke="black" d="M727.5,-13C727.5,-7 733.5,-1 739.5,-1"/>
<text text-anchor="middle" x="810" y="-90.4" font-family="Times Roman,serif" font-size="14.00">Lid</text>
<polyline fill="none" stroke="black" points="727.5,-81 892.5,-81 "/>
<text text-anchor="start" x="735.5" y="-64.4" font-family="Times Roman,serif" font-size="14.00">id :integer</text>
<text text-anchor="start" x="735.5" y="-46.4" font-family="Times Roman,serif" font-size="14.00">name :string</text>
<text text-anchor="start" x="735.5" y="-28.4" font-family="Times Roman,serif" font-size="14.00">created_at :datetime</text>
<text text-anchor="start" x="735.5" y="-10.4" font-family="Times Roman,serif" font-size="14.00">updated_at :datetime</text>
</g>
<!-- Beer&#45;&gt;Lid -->
<g id="edge20" class="edge"><title>Beer&#45;&gt;Lid</title>
<path fill="none" stroke="#33fa37" d="M748.991,-138.475C755.049,-130.085 760.909,-121.973 766.443,-114.31"/>
<ellipse fill="none" stroke="#33fa37" cx="746.636" cy="-141.735" rx="4.00002" ry="4.00002"/>
<ellipse fill="#33fa37" stroke="#33fa37" cx="769.088" cy="-110.647" rx="4.00002" ry="4.00002"/>
</g>
<!-- Taste -->
<g id="node15" class="node"><title>Taste</title>
<polyline fill="none" stroke="black" points="921.5,-1 1062.5,-1 "/>
<path fill="none" stroke="black" d="M1062.5,-1C1068.5,-1 1074.5,-7 1074.5,-13"/>
<polyline fill="none" stroke="black" points="1074.5,-13 1074.5,-95 "/>
<path fill="none" stroke="black" d="M1074.5,-95C1074.5,-101 1068.5,-107 1062.5,-107"/>
<polyline fill="none" stroke="black" points="1062.5,-107 921.5,-107 "/>
<path fill="none" stroke="black" d="M921.5,-107C915.5,-107 909.5,-101 909.5,-95"/>
<polyline fill="none" stroke="black" points="909.5,-95 909.5,-13 "/>
<path fill="none" stroke="black" d="M909.5,-13C909.5,-7 915.5,-1 921.5,-1"/>
<text text-anchor="middle" x="992" y="-90.4" font-family="Times Roman,serif" font-size="14.00">Taste</text>
<polyline fill="none" stroke="black" points="909.5,-81 1074.5,-81 "/>
<text text-anchor="start" x="917.5" y="-64.4" font-family="Times Roman,serif" font-size="14.00">id :integer</text>
<text text-anchor="start" x="917.5" y="-46.4" font-family="Times Roman,serif" font-size="14.00">name :string</text>
<text text-anchor="start" x="917.5" y="-28.4" font-family="Times Roman,serif" font-size="14.00">created_at :datetime</text>
<text text-anchor="start" x="917.5" y="-10.4" font-family="Times Roman,serif" font-size="14.00">updated_at :datetime</text>
</g>
<!-- Beer&#45;&gt;Taste -->
<g id="edge14" class="edge"><title>Beer&#45;&gt;Taste</title>
<path fill="none" stroke="#58c640" d="M759.493,-144.194C813.654,-112.65 840.921,-129.813 900.072,-107.996"/>
<polygon fill="#58c640" stroke="#58c640" points="759.391,-144.257 748.515,-145.654 755.13,-146.873 750.869,-149.489 750.869,-149.489 750.869,-149.489 755.13,-146.873 753.224,-153.324 759.391,-144.257 759.391,-144.257"/>
<polygon fill="#58c640" stroke="#58c640" points="900.133,-107.972 911.086,-108.504 904.787,-106.144 909.441,-104.316 909.441,-104.316 909.441,-104.316 904.787,-106.144 907.796,-100.127 900.133,-107.972 900.133,-107.972"/>
</g>
<!-- Beerstyle -->
<g id="node17" class="node"><title>Beerstyle</title>
<polyline fill="none" stroke="black" points="1103.5,-1 1244.5,-1 "/>
<path fill="none" stroke="black" d="M1244.5,-1C1250.5,-1 1256.5,-7 1256.5,-13"/>
<polyline fill="none" stroke="black" points="1256.5,-13 1256.5,-95 "/>
<path fill="none" stroke="black" d="M1256.5,-95C1256.5,-101 1250.5,-107 1244.5,-107"/>
<polyline fill="none" stroke="black" points="1244.5,-107 1103.5,-107 "/>
<path fill="none" stroke="black" d="M1103.5,-107C1097.5,-107 1091.5,-101 1091.5,-95"/>
<polyline fill="none" stroke="black" points="1091.5,-95 1091.5,-13 "/>
<path fill="none" stroke="black" d="M1091.5,-13C1091.5,-7 1097.5,-1 1103.5,-1"/>
<text text-anchor="middle" x="1174" y="-90.4" font-family="Times Roman,serif" font-size="14.00">Beerstyle</text>
<polyline fill="none" stroke="black" points="1091.5,-81 1256.5,-81 "/>
<text text-anchor="start" x="1099.5" y="-64.4" font-family="Times Roman,serif" font-size="14.00">id :integer</text>
<text text-anchor="start" x="1099.5" y="-46.4" font-family="Times Roman,serif" font-size="14.00">name :string</text>
<text text-anchor="start" x="1099.5" y="-28.4" font-family="Times Roman,serif" font-size="14.00">created_at :datetime</text>
<text text-anchor="start" x="1099.5" y="-10.4" font-family="Times Roman,serif" font-size="14.00">updated_at :datetime</text>
</g>
<!-- Beer&#45;&gt;Beerstyle -->
<g id="edge10" class="edge"><title>Beer&#45;&gt;Beerstyle</title>
<path fill="none" stroke="#e0880a" d="M759.571,-144.161C885.782,-79.507 945.852,-149.531 1081.47,-108.111"/>
<polygon fill="#e0880a" stroke="#e0880a" points="759.382,-144.261 748.44,-144.977 754.966,-146.606 750.55,-148.951 750.55,-148.951 750.55,-148.951 754.966,-146.606 752.661,-152.925 759.382,-144.261 759.382,-144.261"/>
<polygon fill="#e0880a" stroke="#e0880a" points="1081.85,-107.99 1092.75,-109.217 1086.61,-106.462 1091.37,-104.933 1091.37,-104.933 1091.37,-104.933 1086.61,-106.462 1090,-100.648 1081.85,-107.99 1081.85,-107.99"/>
</g>
<!-- Item -->
<g id="node16" class="node"><title>Item</title>
<polyline fill="none" stroke="black" points="1385.5,-568 1526.5,-568 "/>
<path fill="none" stroke="black" d="M1526.5,-568C1532.5,-568 1538.5,-574 1538.5,-580"/>
<polyline fill="none" stroke="black" points="1538.5,-580 1538.5,-698 "/>
<path fill="none" stroke="black" d="M1538.5,-698C1538.5,-704 1532.5,-710 1526.5,-710"/>
<polyline fill="none" stroke="black" points="1526.5,-710 1385.5,-710 "/>
<path fill="none" stroke="black" d="M1385.5,-710C1379.5,-710 1373.5,-704 1373.5,-698"/>
<polyline fill="none" stroke="black" points="1373.5,-698 1373.5,-580 "/>
<path fill="none" stroke="black" d="M1373.5,-580C1373.5,-574 1379.5,-568 1385.5,-568"/>
<text text-anchor="middle" x="1456" y="-693.4" font-family="Times Roman,serif" font-size="14.00">Item</text>
<polyline fill="none" stroke="black" points="1373.5,-684 1538.5,-684 "/>
<text text-anchor="start" x="1381.5" y="-667.4" font-family="Times Roman,serif" font-size="14.00">id :integer</text>
<text text-anchor="start" x="1381.5" y="-649.4" font-family="Times Roman,serif" font-size="14.00">name :string</text>
<text text-anchor="start" x="1381.5" y="-631.4" font-family="Times Roman,serif" font-size="14.00">status :string</text>
<text text-anchor="start" x="1381.5" y="-613.4" font-family="Times Roman,serif" font-size="14.00">created_at :datetime</text>
<text text-anchor="start" x="1381.5" y="-595.4" font-family="Times Roman,serif" font-size="14.00">updated_at :datetime</text>
<text text-anchor="start" x="1381.5" y="-577.4" font-family="Times Roman,serif" font-size="14.00">iid :integer</text>
</g>
<!-- AdminAbility -->
<g id="node18" class="node"><title>AdminAbility</title>
<polygon fill="none" stroke="black" points="1556,-613 1556,-665 1660,-665 1660,-613 1556,-613"/>
<text text-anchor="middle" x="1608" y="-648.4" font-family="Times Roman,serif" font-size="14.00">AdminAbility</text>
<polyline fill="none" stroke="black" points="1556,-639 1660,-639 "/>
<text text-anchor="middle" x="1608" y="-622.4" font-family="Times Roman,serif" font-size="14.00"> </text>
</g>
</g>
</svg>
