<?xml version="1.0" encoding="UTF-8" standalone="no"?>
<!DOCTYPE svg PUBLIC "-//W3C//DTD SVG 1.1//EN"
 "http://www.w3.org/Graphics/SVG/1.1/DTD/svg11.dtd">
<!-- Generated by graphviz version 2.26.3 (20100126.1600)
 -->
<!-- Title: models_diagram Pages: 1 -->
<svg width="2102pt" height="324pt"
 viewBox="0.00 0.00 2102.00 324.00" xmlns="http://www.w3.org/2000/svg" xmlns:xlink="http://www.w3.org/1999/xlink">
<g id="graph1" class="graph" transform="scale(1 1) rotate(0) translate(4 320)">
<title>models_diagram</title>
<polygon fill="white" stroke="white" points="-4,5 -4,-320 2099,-320 2099,5 -4,5"/>
<!-- _diagram_info -->
<g id="node1" class="node"><title>_diagram_info</title>
<text text-anchor="start" x="8" y="-299.8" font-family="Times Roman,serif" font-size="13.00">Models diagram</text>
<text text-anchor="start" x="8" y="-282.8" font-family="Times Roman,serif" font-size="13.00">Date: Aug 21 2013 &#45; 16:15</text>
<text text-anchor="start" x="8" y="-265.8" font-family="Times Roman,serif" font-size="13.00">Migration version: 20130602104513</text>
<text text-anchor="start" x="8" y="-248.8" font-family="Times Roman,serif" font-size="13.00">Generated by RailRoady 1.1.0</text>
<text text-anchor="start" x="8" y="-231.8" font-family="Times Roman,serif" font-size="13.00">http://railroady.prestonlee.com</text>
</g>
<!-- Ability -->
<g id="node2" class="node"><title>Ability</title>
<polygon fill="none" stroke="black" points="328,-287 268,-287 268,-251 328,-251 328,-287"/>
<text text-anchor="middle" x="298" y="-265.4" font-family="Times Roman,serif" font-size="14.00">Ability</text>
</g>
<!-- Foam -->
<g id="node3" class="node"><title>Foam</title>
<ellipse fill="none" stroke="black" cx="384" cy="-269" rx="38.1838" ry="18.3848"/>
<text text-anchor="middle" x="384" y="-265.4" font-family="Times Roman,serif" font-size="14.00">Foam</text>
</g>
<!-- Beer -->
<g id="node8" class="node"><title>Beer</title>
<ellipse fill="none" stroke="black" cx="384" cy="-167" rx="34.1461" ry="18.3848"/>
<text text-anchor="middle" x="384" y="-163.4" font-family="Times Roman,serif" font-size="14.00">Beer</text>
</g>
<!-- Foam&#45;&gt;Beer -->
<g id="edge2" class="edge"><title>Foam&#45;&gt;Beer</title>
<path fill="none" stroke="#560a9c" d="M384,-240.054C384,-226.256 384,-209.791 384,-195.987"/>
<polygon fill="#560a9c" stroke="#560a9c" points="384,-240.292 379.5,-250.292 384,-245.292 384,-250.292 384,-250.292 384,-250.292 384,-245.292 388.5,-250.292 384,-240.292 384,-240.292"/>
<polygon fill="#560a9c" stroke="#560a9c" points="384,-195.59 388.5,-185.59 384,-190.59 384,-185.59 384,-185.59 384,-185.59 384,-190.59 379.5,-185.59 384,-195.59 384,-195.59"/>
</g>
<!-- User -->
<g id="node4" class="node"><title>User</title>
<ellipse fill="none" stroke="black" cx="586" cy="-269" rx="33.9411" ry="18.3848"/>
<text text-anchor="middle" x="586" y="-265.4" font-family="Times Roman,serif" font-size="14.00">User</text>
</g>
<!-- Role -->
<g id="node11" class="node"><title>Role</title>
<ellipse fill="none" stroke="black" cx="586" cy="-167" rx="32.0265" ry="18.3848"/>
<text text-anchor="middle" x="586" y="-163.4" font-family="Times Roman,serif" font-size="14.00">Role</text>
</g>
<!-- User&#45;&gt;Role -->
<g id="edge4" class="edge"><title>User&#45;&gt;Role</title>
<path fill="none" stroke="#5be12d" d="M586,-240.054C586,-226.256 586,-209.791 586,-195.987"/>
<polygon fill="#5be12d" stroke="#5be12d" points="586,-240.292 581.5,-250.292 586,-245.292 586,-250.292 586,-250.292 586,-250.292 586,-245.292 590.5,-250.292 586,-240.292 586,-240.292"/>
<polygon fill="#5be12d" stroke="#5be12d" points="586,-195.59 590.5,-185.59 586,-190.59 586,-185.59 586,-185.59 586,-185.59 586,-190.59 581.5,-185.59 586,-195.59 586,-195.59"/>
</g>
<!-- Status -->
<g id="node5" class="node"><title>Status</title>
<ellipse fill="none" stroke="black" cx="666" cy="-93" rx="43.8406" ry="18.3848"/>
<text text-anchor="middle" x="666" y="-89.4" font-family="Times Roman,serif" font-size="14.00">Status</text>
</g>
<!-- Tracking -->
<g id="node16" class="node"><title>Tracking</title>
<ellipse fill="none" stroke="black" cx="702" cy="-19" rx="51.8276" ry="18.3848"/>
<text text-anchor="middle" x="702" y="-15.4" font-family="Times Roman,serif" font-size="14.00">Tracking</text>
</g>
<!-- Status&#45;&gt;Tracking -->
<g id="edge6" class="edge"><title>Status&#45;&gt;Tracking</title>
<path fill="none" stroke="#6660bb" d="M678.441,-67.427C681.752,-60.6209 685.341,-53.2428 688.697,-46.3459"/>
<ellipse fill="none" stroke="#6660bb" cx="676.649" cy="-71.1109" rx="4.00002" ry="4.00002"/>
<polygon fill="#6660bb" stroke="#6660bb" points="688.704,-46.3305 697.125,-39.3068 690.891,-41.8344 693.079,-37.3382 693.079,-37.3382 693.079,-37.3382 690.891,-41.8344 689.032,-35.3696 688.704,-46.3305 688.704,-46.3305"/>
</g>
<!-- Order -->
<g id="node6" class="node"><title>Order</title>
<ellipse fill="none" stroke="black" cx="738" cy="-167" rx="39.0967" ry="18.3848"/>
<text text-anchor="middle" x="738" y="-163.4" font-family="Times Roman,serif" font-size="14.00">Order</text>
</g>
<!-- Order&#45;&gt;Status -->
<g id="edge12" class="edge"><title>Order&#45;&gt;Status</title>
<path fill="none" stroke="#cb3ac3" d="M714.159,-142.497C706.475,-134.599 697.953,-125.841 690.24,-117.914"/>
<polygon fill="#cb3ac3" stroke="#cb3ac3" points="714.327,-142.67 718.076,-152.975 717.814,-146.253 721.301,-149.837 721.301,-149.837 721.301,-149.837 717.814,-146.253 724.526,-146.699 714.327,-142.67 714.327,-142.67"/>
<polygon fill="#cb3ac3" stroke="#cb3ac3" points="689.832,-117.494 686.083,-107.188 686.345,-113.91 682.858,-110.326 682.858,-110.326 682.858,-110.326 686.345,-113.91 679.633,-113.464 689.832,-117.494 689.832,-117.494"/>
</g>
<!-- Ordercontent -->
<g id="node15" class="node"><title>Ordercontent</title>
<ellipse fill="none" stroke="black" cx="843" cy="-93" rx="77.0746" ry="18.3848"/>
<text text-anchor="middle" x="843" y="-89.4" font-family="Times Roman,serif" font-size="14.00">Ordercontent</text>
</g>
<!-- Order&#45;&gt;Ordercontent -->
<g id="edge8" class="edge"><title>Order&#45;&gt;Ordercontent</title>
<path fill="none" stroke="#6d871e" d="M766.651,-146.808C779.977,-137.417 795.905,-126.191 809.757,-116.428"/>
<ellipse fill="none" stroke="#6d871e" cx="763.281" cy="-149.183" rx="4.00002" ry="4.00002"/>
<polygon fill="#6d871e" stroke="#6d871e" points="809.898,-116.329 820.664,-114.247 813.985,-113.449 818.072,-110.568 818.072,-110.568 818.072,-110.568 813.985,-113.449 815.479,-106.89 809.898,-116.329 809.898,-116.329"/>
</g>
<!-- Order&#45;&gt;Tracking -->
<g id="edge10" class="edge"><title>Order&#45;&gt;Tracking</title>
<path fill="none" stroke="#49df75" d="M733.263,-140.284C729.776,-121.61 724.671,-96.1506 719,-74 716.737,-65.1621 713.927,-55.6341 711.247,-47.0318"/>
<ellipse fill="none" stroke="#49df75" cx="734.023" cy="-144.416" rx="4.00001" ry="4.00001"/>
<polygon fill="#49df75" stroke="#49df75" points="711.232,-46.9852 712.49,-36.0917 709.717,-42.2203 708.201,-37.4555 708.201,-37.4555 708.201,-37.4555 709.717,-42.2203 703.913,-38.8193 711.232,-46.9852 711.232,-46.9852"/>
</g>
<!-- Sandwich -->
<g id="node7" class="node"><title>Sandwich</title>
<ellipse fill="none" stroke="black" cx="1384" cy="-269" rx="58.1882" ry="18.3848"/>
<text text-anchor="middle" x="1384" y="-265.4" font-family="Times Roman,serif" font-size="14.00">Sandwich</text>
</g>
<!-- Ingredient -->
<g id="node10" class="node"><title>Ingredient</title>
<ellipse fill="none" stroke="black" cx="1460" cy="-167" rx="61.0181" ry="18.3848"/>
<text text-anchor="middle" x="1460" y="-163.4" font-family="Times Roman,serif" font-size="14.00">Ingredient</text>
</g>
<!-- Sandwich&#45;&gt;Ingredient -->
<g id="edge14" class="edge"><title>Sandwich&#45;&gt;Ingredient</title>
<path fill="none" stroke="#c97f0e" d="M1403.83,-242.392C1415.06,-227.311 1429.07,-208.508 1440.29,-193.452"/>
<polygon fill="#c97f0e" stroke="#c97f0e" points="1403.56,-242.746 1393.98,-248.076 1400.57,-246.755 1397.59,-250.764 1397.59,-250.764 1397.59,-250.764 1400.57,-246.755 1401.2,-253.453 1403.56,-242.746 1403.56,-242.746"/>
<polygon fill="#c97f0e" stroke="#c97f0e" points="1440.56,-193.097 1450.14,-187.766 1443.54,-189.087 1446.53,-185.078 1446.53,-185.078 1446.53,-185.078 1443.54,-189.087 1442.92,-182.389 1440.56,-193.097 1440.56,-193.097"/>
</g>
<!-- Color -->
<g id="node13" class="node"><title>Color</title>
<ellipse fill="none" stroke="black" cx="237" cy="-93" rx="36.977" ry="18.3848"/>
<text text-anchor="middle" x="237" y="-89.4" font-family="Times Roman,serif" font-size="14.00">Color</text>
</g>
<!-- Beer&#45;&gt;Color -->
<g id="edge22" class="edge"><title>Beer&#45;&gt;Color</title>
<path fill="none" stroke="#3b4fbc" d="M349.5,-149.633C326.376,-137.992 296.002,-122.702 272.644,-110.943"/>
<polygon fill="#3b4fbc" stroke="#3b4fbc" points="349.798,-149.782 356.706,-158.298 354.264,-152.031 358.73,-154.279 358.73,-154.279 358.73,-154.279 354.264,-152.031 360.753,-150.26 349.798,-149.782 349.798,-149.782"/>
<polygon fill="#3b4fbc" stroke="#3b4fbc" points="272.359,-110.8 265.45,-102.284 267.893,-108.551 263.427,-106.303 263.427,-106.303 263.427,-106.303 267.893,-108.551 261.403,-110.323 272.359,-110.8 272.359,-110.8"/>
</g>
<!-- Aroma -->
<g id="node20" class="node"><title>Aroma</title>
<ellipse fill="none" stroke="black" cx="335" cy="-93" rx="43.1335" ry="18.3848"/>
<text text-anchor="middle" x="335" y="-89.4" font-family="Times Roman,serif" font-size="14.00">Aroma</text>
</g>
<!-- Beer&#45;&gt;Aroma -->
<g id="edge18" class="edge"><title>Beer&#45;&gt;Aroma</title>
<path fill="none" stroke="#1fd488" d="M366.845,-141.092C362.205,-134.085 357.178,-126.493 352.518,-119.456"/>
<polygon fill="#1fd488" stroke="#1fd488" points="366.867,-141.125 368.636,-151.947 369.627,-145.294 372.388,-149.463 372.388,-149.463 372.388,-149.463 369.627,-145.294 376.14,-146.979 366.867,-141.125 366.867,-141.125"/>
<polygon fill="#1fd488" stroke="#1fd488" points="352.39,-119.263 350.621,-108.441 349.63,-115.094 346.869,-110.925 346.869,-110.925 346.869,-110.925 349.63,-115.094 343.117,-113.41 352.39,-119.263 352.39,-119.263"/>
</g>
<!-- Taste -->
<g id="node24" class="node"><title>Taste</title>
<ellipse fill="none" stroke="black" cx="433" cy="-93" rx="36.7696" ry="18.3848"/>
<text text-anchor="middle" x="433" y="-89.4" font-family="Times Roman,serif" font-size="14.00">Taste</text>
</g>
<!-- Beer&#45;&gt;Taste -->
<g id="edge20" class="edge"><title>Beer&#45;&gt;Taste</title>
<path fill="none" stroke="#d2e198" d="M401.198,-141.028C405.874,-133.965 410.941,-126.313 415.627,-119.236"/>
<polygon fill="#d2e198" stroke="#d2e198" points="401.133,-141.125 391.86,-146.979 398.373,-145.294 395.612,-149.463 395.612,-149.463 395.612,-149.463 398.373,-145.294 399.364,-151.947 401.133,-141.125 401.133,-141.125"/>
<polygon fill="#d2e198" stroke="#d2e198" points="415.78,-119.005 425.053,-113.152 418.541,-114.836 421.301,-110.668 421.301,-110.668 421.301,-110.668 418.541,-114.836 417.549,-108.183 415.78,-119.005 415.78,-119.005"/>
</g>
<!-- Beerstyle -->
<g id="node26" class="node"><title>Beerstyle</title>
<ellipse fill="none" stroke="black" cx="546" cy="-93" rx="57.9828" ry="18.3848"/>
<text text-anchor="middle" x="546" y="-89.4" font-family="Times Roman,serif" font-size="14.00">Beerstyle</text>
</g>
<!-- Beer&#45;&gt;Beerstyle -->
<g id="edge16" class="edge"><title>Beer&#45;&gt;Beerstyle</title>
<path fill="none" stroke="#23821e" d="M419.715,-150.686C444.381,-139.419 477.301,-124.381 503.345,-112.484"/>
<polygon fill="#23821e" stroke="#23821e" points="419.485,-150.791 408.519,-150.853 414.937,-152.868 410.389,-154.946 410.389,-154.946 410.389,-154.946 414.937,-152.868 412.258,-159.039 419.485,-150.791 419.485,-150.791"/>
<polygon fill="#23821e" stroke="#23821e" points="503.506,-112.411 514.471,-112.349 508.054,-110.334 512.602,-108.256 512.602,-108.256 512.602,-108.256 508.054,-110.334 510.732,-104.163 503.506,-112.411 503.506,-112.411"/>
</g>
<!-- Foodcategory -->
<g id="node9" class="node"><title>Foodcategory</title>
<ellipse fill="none" stroke="black" cx="1616" cy="-167" rx="77.0746" ry="18.3848"/>
<text text-anchor="middle" x="1616" y="-163.4" font-family="Times Roman,serif" font-size="14.00">Foodcategory</text>
</g>
<!-- Food -->
<g id="node18" class="node"><title>Food</title>
<ellipse fill="none" stroke="black" cx="1538" cy="-93" rx="34.1461" ry="18.3848"/>
<text text-anchor="middle" x="1538" y="-89.4" font-family="Times Roman,serif" font-size="14.00">Food</text>
</g>
<!-- Foodcategory&#45;&gt;Food -->
<g id="edge24" class="edge"><title>Foodcategory&#45;&gt;Food</title>
<path fill="none" stroke="#328050" d="M1590.79,-143.079C1581.62,-134.385 1571.29,-124.584 1562.22,-115.974"/>
<ellipse fill="none" stroke="#328050" cx="1593.82" cy="-145.955" rx="4.00002" ry="4.00002"/>
<polygon fill="#328050" stroke="#328050" points="1562.19,-115.954 1558.04,-105.807 1558.57,-112.512 1554.94,-109.071 1554.94,-109.071 1554.94,-109.071 1558.57,-112.512 1551.84,-112.336 1562.19,-115.954 1562.19,-115.954"/>
</g>
<!-- Beverage -->
<g id="node12" class="node"><title>Beverage</title>
<ellipse fill="none" stroke="black" cx="1281" cy="-93" rx="57.9828" ry="18.3848"/>
<text text-anchor="middle" x="1281" y="-89.4" font-family="Times Roman,serif" font-size="14.00">Beverage</text>
</g>
<!-- Ingredient&#45;&gt;Beverage -->
<g id="edge28" class="edge"><title>Ingredient&#45;&gt;Beverage</title>
<path fill="none" stroke="#488491" d="M1414.25,-148.088C1387.2,-136.905 1353.08,-122.798 1326.13,-111.659"/>
<polygon fill="#488491" stroke="#488491" points="1414.54,-148.204 1422.06,-156.184 1419.16,-150.115 1423.78,-152.025 1423.78,-152.025 1423.78,-152.025 1419.16,-150.115 1425.5,-147.866 1414.54,-148.204 1414.54,-148.204"/>
<polygon fill="#488491" stroke="#488491" points="1325.8,-111.521 1318.28,-103.542 1321.18,-109.61 1316.56,-107.7 1316.56,-107.7 1316.56,-107.7 1321.18,-109.61 1314.84,-111.859 1325.8,-111.521 1325.8,-111.521"/>
</g>
<!-- Ingredient&#45;&gt;Food -->
<g id="edge26" class="edge"><title>Ingredient&#45;&gt;Food</title>
<path fill="none" stroke="#077466" d="M1486.45,-141.907C1495.16,-133.642 1504.81,-124.489 1513.38,-116.359"/>
<polygon fill="#077466" stroke="#077466" points="1486.14,-142.204 1475.78,-145.822 1482.51,-145.645 1478.88,-149.087 1478.88,-149.087 1478.88,-149.087 1482.51,-145.645 1481.98,-152.351 1486.14,-142.204 1486.14,-142.204"/>
<polygon fill="#077466" stroke="#077466" points="1513.63,-116.117 1523.99,-112.498 1517.26,-112.675 1520.89,-109.234 1520.89,-109.234 1520.89,-109.234 1517.26,-112.675 1517.79,-105.969 1513.63,-116.117 1513.63,-116.117"/>
</g>
<!-- LineItem -->
<g id="node14" class="node"><title>LineItem</title>
<ellipse fill="none" stroke="black" cx="992" cy="-93" rx="53.9477" ry="18.3848"/>
<text text-anchor="middle" x="992" y="-89.4" font-family="Times Roman,serif" font-size="14.00">LineItem</text>
</g>
<!-- Itemstatus -->
<g id="node17" class="node"><title>Itemstatus</title>
<ellipse fill="none" stroke="black" cx="875" cy="-269" rx="63.8479" ry="18.3848"/>
<text text-anchor="middle" x="875" y="-265.4" font-family="Times Roman,serif" font-size="14.00">Itemstatus</text>
</g>
<!-- Item -->
<g id="node25" class="node"><title>Item</title>
<ellipse fill="none" stroke="black" cx="875" cy="-167" rx="33.9411" ry="18.3848"/>
<text text-anchor="middle" x="875" y="-163.4" font-family="Times Roman,serif" font-size="14.00">Item</text>
</g>
<!-- Itemstatus&#45;&gt;Item -->
<g id="edge30" class="edge"><title>Itemstatus&#45;&gt;Item</title>
<path fill="none" stroke="#bf0276" d="M875,-240.054C875,-226.256 875,-209.791 875,-195.987"/>
<polygon fill="#bf0276" stroke="#bf0276" points="875,-240.292 870.5,-250.292 875,-245.292 875,-250.292 875,-250.292 875,-250.292 875,-245.292 879.5,-250.292 875,-240.292 875,-240.292"/>
<polygon fill="#bf0276" stroke="#bf0276" points="875,-195.59 879.5,-185.59 875,-190.59 875,-185.59 875,-185.59 875,-185.59 875,-190.59 870.5,-185.59 875,-195.59 875,-195.59"/>
</g>
<!-- Container -->
<g id="node19" class="node"><title>Container</title>
<ellipse fill="none" stroke="black" cx="1103" cy="-167" rx="60.1041" ry="18.3848"/>
<text text-anchor="middle" x="1103" y="-163.4" font-family="Times Roman,serif" font-size="14.00">Container</text>
</g>
<!-- Container&#45;&gt;Beverage -->
<g id="edge32" class="edge"><title>Container&#45;&gt;Beverage</title>
<path fill="none" stroke="#898563" d="M1148.49,-148.088C1175.39,-136.905 1209.32,-122.798 1236.12,-111.659"/>
<polygon fill="#898563" stroke="#898563" points="1148.25,-148.186 1137.29,-147.87 1143.64,-150.106 1139.02,-152.025 1139.02,-152.025 1139.02,-152.025 1143.64,-150.106 1140.75,-156.18 1148.25,-148.186 1148.25,-148.186"/>
<polygon fill="#898563" stroke="#898563" points="1236.41,-111.539 1247.37,-111.855 1241.02,-109.62 1245.64,-107.7 1245.64,-107.7 1245.64,-107.7 1241.02,-109.62 1243.91,-103.545 1236.41,-111.539 1236.41,-111.539"/>
</g>
<!-- Manufacturer -->
<g id="node21" class="node"><title>Manufacturer</title>
<ellipse fill="none" stroke="black" cx="1705" cy="-269" rx="77.0746" ry="18.3848"/>
<text text-anchor="middle" x="1705" y="-265.4" font-family="Times Roman,serif" font-size="14.00">Manufacturer</text>
</g>
<!-- Cart -->
<g id="node22" class="node"><title>Cart</title>
<ellipse fill="none" stroke="black" cx="992" cy="-167" rx="33.234" ry="18.3848"/>
<text text-anchor="middle" x="992" y="-163.4" font-family="Times Roman,serif" font-size="14.00">Cart</text>
</g>
<!-- Cart&#45;&gt;LineItem -->
<g id="edge34" class="edge"><title>Cart&#45;&gt;LineItem</title>
<path fill="none" stroke="#a5a8ba" d="M992,-140.309C992,-134.377 992,-128.061 992,-122.04"/>
<ellipse fill="none" stroke="#a5a8ba" cx="992" cy="-144.327" rx="4" ry="4"/>
<polygon fill="#a5a8ba" stroke="#a5a8ba" points="992,-121.667 996.5,-111.667 992,-116.667 992,-111.667 992,-111.667 992,-111.667 992,-116.667 987.5,-111.667 992,-121.667 992,-121.667"/>
</g>
<!-- Lid -->
<g id="node23" class="node"><title>Lid</title>
<ellipse fill="none" stroke="black" cx="1827" cy="-269" rx="27" ry="18.3848"/>
<text text-anchor="middle" x="1827" y="-265.4" font-family="Times Roman,serif" font-size="14.00">Lid</text>
</g>
<!-- Item&#45;&gt;LineItem -->
<g id="edge38" class="edge"><title>Item&#45;&gt;LineItem</title>
<path fill="none" stroke="#a8e059" d="M904.272,-148.486C920.461,-138.247 940.669,-125.466 957.608,-114.752"/>
<ellipse fill="none" stroke="#a8e059" cx="900.663" cy="-150.769" rx="4.00002" ry="4.00002"/>
<polygon fill="#a8e059" stroke="#a8e059" points="957.678,-114.708 968.535,-113.166 961.903,-112.035 966.129,-109.363 966.129,-109.363 966.129,-109.363 961.903,-112.035 963.724,-105.56 957.678,-114.708 957.678,-114.708"/>
</g>
<!-- Item&#45;&gt;Ordercontent -->
<g id="edge36" class="edge"><title>Item&#45;&gt;Ordercontent</title>
<path fill="none" stroke="#0f9eaa" d="M863.841,-141.195C861.009,-134.646 857.954,-127.58 855.078,-120.931"/>
<ellipse fill="none" stroke="#0f9eaa" cx="865.502" cy="-145.036" rx="4.00002" ry="4.00002"/>
<polygon fill="#0f9eaa" stroke="#0f9eaa" points="855.011,-120.774 855.172,-109.81 853.026,-116.185 851.041,-111.596 851.041,-111.596 851.041,-111.596 853.026,-116.185 846.911,-113.382 855.011,-120.774 855.011,-120.774"/>
</g>
<!-- AdminAbility -->
<g id="node27" class="node"><title>AdminAbility</title>
<polygon fill="none" stroke="black" points="1974,-287 1872,-287 1872,-251 1974,-251 1974,-287"/>
<text text-anchor="middle" x="1923" y="-265.4" font-family="Times Roman,serif" font-size="14.00">AdminAbility</text>
</g>
<!-- Bruschettum -->
<g id="node28" class="node"><title>Bruschettum</title>
<ellipse fill="none" stroke="black" cx="1535" cy="-269" rx="74.9533" ry="18.3848"/>
<text text-anchor="middle" x="1535" y="-265.4" font-family="Times Roman,serif" font-size="14.00">Bruschettum</text>
</g>
<!-- Bruschettum&#45;&gt;Ingredient -->
<g id="edge40" class="edge"><title>Bruschettum&#45;&gt;Ingredient</title>
<path fill="none" stroke="#d51625" d="M1515.44,-242.392C1504.35,-227.311 1490.52,-208.508 1479.45,-193.452"/>
<polygon fill="#d51625" stroke="#d51625" points="1515.67,-242.708 1517.97,-253.43 1518.63,-246.736 1521.59,-250.764 1521.59,-250.764 1521.59,-250.764 1518.63,-246.736 1525.22,-248.099 1515.67,-242.708 1515.67,-242.708"/>
<polygon fill="#d51625" stroke="#d51625" points="1479.22,-193.134 1476.92,-182.412 1476.25,-189.106 1473.29,-185.078 1473.29,-185.078 1473.29,-185.078 1476.25,-189.106 1469.67,-187.743 1479.22,-193.134 1479.22,-193.134"/>
</g>
<!-- Country -->
<g id="node29" class="node"><title>Country</title>
<ellipse fill="none" stroke="black" cx="2043" cy="-269" rx="51.1176" ry="18.3848"/>
<text text-anchor="middle" x="2043" y="-265.4" font-family="Times Roman,serif" font-size="14.00">Country</text>
</g>
<!-- Beveragecategory -->
<g id="node30" class="node"><title>Beveragecategory</title>
<ellipse fill="none" stroke="black" cx="1281" cy="-167" rx="99.9096" ry="18.3848"/>
<text text-anchor="middle" x="1281" y="-163.4" font-family="Times Roman,serif" font-size="14.00">Beveragecategory</text>
</g>
<!-- Beveragecategory&#45;&gt;Beverage -->
<g id="edge42" class="edge"><title>Beveragecategory&#45;&gt;Beverage</title>
<path fill="none" stroke="#565f04" d="M1281,-138.282C1281,-132.836 1281,-127.138 1281,-121.693"/>
<polygon fill="#565f04" stroke="#565f04" points="1281,-138.327 1276.5,-148.327 1281,-143.327 1281,-148.327 1281,-148.327 1281,-148.327 1281,-143.327 1285.5,-148.327 1281,-138.327 1281,-138.327"/>
<polygon fill="#565f04" stroke="#565f04" points="1281,-121.667 1285.5,-111.667 1281,-116.667 1281,-111.667 1281,-111.667 1281,-111.667 1281,-116.667 1276.5,-111.667 1281,-121.667 1281,-121.667"/>
</g>
</g>
</svg>
