<?xml version="1.0" encoding="UTF-8" standalone="no"?>
<!DOCTYPE svg PUBLIC "-//W3C//DTD SVG 1.1//EN"
 "http://www.w3.org/Graphics/SVG/1.1/DTD/svg11.dtd">
<!-- Generated by graphviz version 2.26.3 (20100126.1600)
 -->
<!-- Title: models_diagram Pages: 1 -->
<svg width="980pt" height="250pt"
 viewBox="0.00 0.00 980.00 250.00" xmlns="http://www.w3.org/2000/svg" xmlns:xlink="http://www.w3.org/1999/xlink">
<g id="graph1" class="graph" transform="scale(1 1) rotate(0) translate(4 246)">
<title>models_diagram</title>
<polygon fill="white" stroke="white" points="-4,5 -4,-246 977,-246 977,5 -4,5"/>
<!-- _diagram_info -->
<g id="node1" class="node"><title>_diagram_info</title>
<text text-anchor="start" x="39" y="-225.8" font-family="Times Roman,serif" font-size="13.00">Models diagram</text>
<text text-anchor="start" x="39" y="-208.8" font-family="Times Roman,serif" font-size="13.00">Date: Apr 10 2013 &#45; 14:14</text>
<text text-anchor="start" x="39" y="-191.8" font-family="Times Roman,serif" font-size="13.00">Migration version: 20130410104810</text>
<text text-anchor="start" x="39" y="-174.8" font-family="Times Roman,serif" font-size="13.00">Generated by RailRoady 1.1.0</text>
<text text-anchor="start" x="39" y="-157.8" font-family="Times Roman,serif" font-size="13.00">http://railroady.prestonlee.com</text>
</g>
<!-- Ability -->
<g id="node2" class="node"><title>Ability</title>
<polygon fill="none" stroke="black" points="359,-213 299,-213 299,-177 359,-177 359,-213"/>
<text text-anchor="middle" x="329" y="-191.4" font-family="Times Roman,serif" font-size="14.00">Ability</text>
</g>
<!-- Foam -->
<g id="node3" class="node"><title>Foam</title>
<ellipse fill="none" stroke="black" cx="414" cy="-195" rx="36.977" ry="18.3848"/>
<text text-anchor="middle" x="414" y="-191.4" font-family="Times Roman,serif" font-size="14.00">Foam</text>
</g>
<!-- Beer -->
<g id="node7" class="node"><title>Beer</title>
<ellipse fill="none" stroke="black" cx="414" cy="-93" rx="34.1461" ry="18.3848"/>
<text text-anchor="middle" x="414" y="-89.4" font-family="Times Roman,serif" font-size="14.00">Beer</text>
</g>
<!-- Foam&#45;&gt;Beer -->
<g id="edge2" class="edge"><title>Foam&#45;&gt;Beer</title>
<path fill="none" stroke="#a10e22" d="M414,-166.054C414,-152.256 414,-135.791 414,-121.987"/>
<polygon fill="#a10e22" stroke="#a10e22" points="414,-166.292 409.5,-176.292 414,-171.292 414,-176.292 414,-176.292 414,-176.292 414,-171.292 418.5,-176.292 414,-166.292 414,-166.292"/>
<polygon fill="#a10e22" stroke="#a10e22" points="414,-121.59 418.5,-111.59 414,-116.59 414,-111.59 414,-111.59 414,-111.59 414,-116.59 409.5,-111.59 414,-121.59 414,-121.59"/>
</g>
<!-- User -->
<g id="node4" class="node"><title>User</title>
<ellipse fill="none" stroke="black" cx="550" cy="-195" rx="33.9411" ry="18.3848"/>
<text text-anchor="middle" x="550" y="-191.4" font-family="Times Roman,serif" font-size="14.00">User</text>
</g>
<!-- Order -->
<g id="node5" class="node"><title>Order</title>
<ellipse fill="none" stroke="black" cx="505" cy="-93" rx="39.0967" ry="18.3848"/>
<text text-anchor="middle" x="505" y="-89.4" font-family="Times Roman,serif" font-size="14.00">Order</text>
</g>
<!-- User&#45;&gt;Order -->
<g id="edge6" class="edge"><title>User&#45;&gt;Order</title>
<path fill="none" stroke="#c4e37a" d="M537.852,-167.464C531.479,-153.02 523.691,-135.365 517.296,-120.872"/>
<polygon fill="#c4e37a" stroke="#c4e37a" points="537.918,-167.615 537.838,-178.581 539.937,-172.19 541.955,-176.764 541.955,-176.764 541.955,-176.764 539.937,-172.19 546.072,-174.948 537.918,-167.615 537.918,-167.615"/>
<polygon fill="#c4e37a" stroke="#c4e37a" points="517.164,-120.571 517.244,-109.605 515.145,-115.996 513.127,-111.422 513.127,-111.422 513.127,-111.422 515.145,-115.996 509.01,-113.238 517.164,-120.571 517.164,-120.571"/>
</g>
<!-- Role -->
<g id="node9" class="node"><title>Role</title>
<ellipse fill="none" stroke="black" cx="594" cy="-93" rx="32.0265" ry="18.3848"/>
<text text-anchor="middle" x="594" y="-89.4" font-family="Times Roman,serif" font-size="14.00">Role</text>
</g>
<!-- User&#45;&gt;Role -->
<g id="edge4" class="edge"><title>User&#45;&gt;Role</title>
<path fill="none" stroke="#196070" d="M561.905,-167.403C568.178,-152.86 575.85,-135.075 582.12,-120.541"/>
<polygon fill="#196070" stroke="#196070" points="561.827,-167.582 553.734,-174.982 559.847,-172.173 557.866,-176.764 557.866,-176.764 557.866,-176.764 559.847,-172.173 561.998,-178.547 561.827,-167.582 561.827,-167.582"/>
<polygon fill="#196070" stroke="#196070" points="582.241,-120.26 590.334,-112.86 584.221,-115.669 586.202,-111.078 586.202,-111.078 586.202,-111.078 584.221,-115.669 582.07,-109.295 582.241,-120.26 582.241,-120.26"/>
</g>
<!-- Sandwich -->
<g id="node6" class="node"><title>Sandwich</title>
<ellipse fill="none" stroke="black" cx="706" cy="-195" rx="58.1882" ry="18.3848"/>
<text text-anchor="middle" x="706" y="-191.4" font-family="Times Roman,serif" font-size="14.00">Sandwich</text>
</g>
<!-- Ingredient -->
<g id="node8" class="node"><title>Ingredient</title>
<ellipse fill="none" stroke="black" cx="706" cy="-93" rx="62.2254" ry="18.3848"/>
<text text-anchor="middle" x="706" y="-89.4" font-family="Times Roman,serif" font-size="14.00">Ingredient</text>
</g>
<!-- Sandwich&#45;&gt;Ingredient -->
<g id="edge8" class="edge"><title>Sandwich&#45;&gt;Ingredient</title>
<path fill="none" stroke="#c26fc7" d="M706,-166.054C706,-152.256 706,-135.791 706,-121.987"/>
<polygon fill="#c26fc7" stroke="#c26fc7" points="706,-166.292 701.5,-176.292 706,-171.292 706,-176.292 706,-176.292 706,-176.292 706,-171.292 710.5,-176.292 706,-166.292 706,-166.292"/>
<polygon fill="#c26fc7" stroke="#c26fc7" points="706,-121.59 710.5,-111.59 706,-116.59 706,-111.59 706,-111.59 706,-111.59 706,-116.59 701.5,-111.59 706,-121.59 706,-121.59"/>
</g>
<!-- Color -->
<g id="node10" class="node"><title>Color</title>
<ellipse fill="none" stroke="black" cx="37" cy="-19" rx="36.977" ry="18.3848"/>
<text text-anchor="middle" x="37" y="-15.4" font-family="Times Roman,serif" font-size="14.00">Color</text>
</g>
<!-- Beer&#45;&gt;Color -->
<g id="edge16" class="edge"><title>Beer&#45;&gt;Color</title>
<path fill="none" stroke="#c098a6" d="M369.935,-88.8942C305.834,-82.2026 183.549,-66.7151 83,-38 80.022,-37.1495 76.9761,-36.1647 73.9397,-35.0999"/>
<polygon fill="#c098a6" stroke="#c098a6" points="370.137,-88.9148 379.628,-94.4075 375.112,-89.4228 380.086,-89.9308 380.086,-89.9308 380.086,-89.9308 375.112,-89.4228 380.543,-85.454 370.137,-88.9148 370.137,-88.9148"/>
<polygon fill="#c098a6" stroke="#c098a6" points="73.7262,-35.0195 65.9558,-27.2818 69.0475,-33.2561 64.3687,-31.4927 64.3687,-31.4927 64.3687,-31.4927 69.0475,-33.2561 62.7817,-35.7036 73.7262,-35.0195 73.7262,-35.0195"/>
</g>
<!-- Container -->
<g id="node11" class="node"><title>Container</title>
<ellipse fill="none" stroke="black" cx="152" cy="-19" rx="60.1041" ry="18.3848"/>
<text text-anchor="middle" x="152" y="-15.4" font-family="Times Roman,serif" font-size="14.00">Container</text>
</g>
<!-- Beer&#45;&gt;Container -->
<g id="edge18" class="edge"><title>Beer&#45;&gt;Container</title>
<path fill="none" stroke="#0dda32" d="M375.769,-82.2018C330.531,-69.4249 254.978,-48.0854 204.335,-33.7817"/>
<ellipse fill="none" stroke="#0dda32" cx="379.84" cy="-83.3517" rx="4.00001" ry="4.00001"/>
<ellipse fill="#0dda32" stroke="#0dda32" cx="200.279" cy="-32.6361" rx="4.00001" ry="4.00001"/>
</g>
<!-- Aroma -->
<g id="node12" class="node"><title>Aroma</title>
<ellipse fill="none" stroke="black" cx="274" cy="-19" rx="43.8406" ry="18.3848"/>
<text text-anchor="middle" x="274" y="-15.4" font-family="Times Roman,serif" font-size="14.00">Aroma</text>
</g>
<!-- Beer&#45;&gt;Aroma -->
<g id="edge12" class="edge"><title>Beer&#45;&gt;Aroma</title>
<path fill="none" stroke="#5c4b0f" d="M380.189,-75.1283C359.187,-64.0275 332.191,-49.758 310.674,-38.3849"/>
<polygon fill="#5c4b0f" stroke="#5c4b0f" points="380.452,-75.2675 387.19,-83.9191 384.873,-77.6041 389.293,-79.9406 389.293,-79.9406 389.293,-79.9406 384.873,-77.6041 391.396,-75.9622 380.452,-75.2675 380.452,-75.2675"/>
<polygon fill="#5c4b0f" stroke="#5c4b0f" points="310.663,-38.3789 303.925,-29.7273 306.242,-36.0423 301.822,-33.7057 301.822,-33.7057 301.822,-33.7057 306.242,-36.0423 299.719,-37.6842 310.663,-38.3789 310.663,-38.3789"/>
</g>
<!-- Manufacturer -->
<g id="node13" class="node"><title>Manufacturer</title>
<ellipse fill="none" stroke="black" cx="414" cy="-19" rx="77.7817" ry="18.3848"/>
<text text-anchor="middle" x="414" y="-15.4" font-family="Times Roman,serif" font-size="14.00">Manufacturer</text>
</g>
<!-- Beer&#45;&gt;Manufacturer -->
<g id="edge22" class="edge"><title>Beer&#45;&gt;Manufacturer</title>
<path fill="none" stroke="#41479d" d="M414,-66.309C414,-59.6354 414,-52.4756 414,-45.7969"/>
<ellipse fill="none" stroke="#41479d" cx="414" cy="-70.3267" rx="4" ry="4"/>
<ellipse fill="#41479d" stroke="#41479d" cx="414" cy="-41.6674" rx="4" ry="4"/>
</g>
<!-- Lid -->
<g id="node14" class="node"><title>Lid</title>
<ellipse fill="none" stroke="black" cx="537" cy="-19" rx="27" ry="18.3848"/>
<text text-anchor="middle" x="537" y="-15.4" font-family="Times Roman,serif" font-size="14.00">Lid</text>
</g>
<!-- Beer&#45;&gt;Lid -->
<g id="edge20" class="edge"><title>Beer&#45;&gt;Lid</title>
<path fill="none" stroke="#32ef86" d="M443.841,-75.047C463.834,-63.0184 489.965,-47.2972 509.462,-35.5674"/>
<ellipse fill="none" stroke="#32ef86" cx="440.275" cy="-77.1925" rx="4.00002" ry="4.00002"/>
<ellipse fill="#32ef86" stroke="#32ef86" cx="512.894" cy="-33.5028" rx="4.00002" ry="4.00002"/>
</g>
<!-- Taste -->
<g id="node15" class="node"><title>Taste</title>
<ellipse fill="none" stroke="black" cx="619" cy="-19" rx="36.977" ry="18.3848"/>
<text text-anchor="middle" x="619" y="-15.4" font-family="Times Roman,serif" font-size="14.00">Taste</text>
</g>
<!-- Beer&#45;&gt;Taste -->
<g id="edge14" class="edge"><title>Beer&#45;&gt;Taste</title>
<path fill="none" stroke="#40ef19" d="M449.653,-76.8733C452.127,-75.8697 454.593,-74.902 457,-74 507.549,-55.06 522.224,-56.3228 573,-38 575.743,-37.0102 578.562,-35.9511 581.39,-34.8582"/>
<polygon fill="#40ef19" stroke="#40ef19" points="449.398,-76.9804 438.436,-76.711 444.79,-78.9196 440.181,-80.8588 440.181,-80.8588 440.181,-80.8588 444.79,-78.9196 441.926,-85.0065 449.398,-76.9804 449.398,-76.9804"/>
<polygon fill="#40ef19" stroke="#40ef19" points="581.645,-34.7569 592.6,-35.2459 586.292,-32.9104 590.938,-31.064 590.938,-31.064 590.938,-31.064 586.292,-32.9104 589.277,-26.882 581.645,-34.7569 581.645,-34.7569"/>
</g>
<!-- Beerstyle -->
<g id="node17" class="node"><title>Beerstyle</title>
<ellipse fill="none" stroke="black" cx="732" cy="-19" rx="57.9828" ry="18.3848"/>
<text text-anchor="middle" x="732" y="-15.4" font-family="Times Roman,serif" font-size="14.00">Beerstyle</text>
</g>
<!-- Beer&#45;&gt;Beerstyle -->
<g id="edge10" class="edge"><title>Beer&#45;&gt;Beerstyle</title>
<path fill="none" stroke="#e7cb0b" d="M449.045,-76.6876C451.71,-75.703 454.381,-74.7923 457,-74 546.801,-46.8379 573.522,-58.8267 665,-38 669.76,-36.9163 674.685,-35.7019 679.604,-34.4249"/>
<polygon fill="#e7cb0b" stroke="#e7cb0b" points="448.816,-76.7793 437.86,-76.3187 444.175,-78.6378 439.533,-80.4963 439.533,-80.4963 439.533,-80.4963 444.175,-78.6378 441.205,-84.6739 448.816,-76.7793 448.816,-76.7793"/>
<polygon fill="#e7cb0b" stroke="#e7cb0b" points="679.981,-34.3242 690.804,-36.0845 684.811,-33.0309 689.641,-31.7376 689.641,-31.7376 689.641,-31.7376 684.811,-33.0309 688.477,-27.3907 679.981,-34.3242 679.981,-34.3242"/>
</g>
<!-- Item -->
<g id="node16" class="node"><title>Item</title>
<ellipse fill="none" stroke="black" cx="816" cy="-195" rx="33.9411" ry="18.3848"/>
<text text-anchor="middle" x="816" y="-191.4" font-family="Times Roman,serif" font-size="14.00">Item</text>
</g>
<!-- AdminAbility -->
<g id="node18" class="node"><title>AdminAbility</title>
<polygon fill="none" stroke="black" points="972,-213 868,-213 868,-177 972,-177 972,-213"/>
<text text-anchor="middle" x="920" y="-191.4" font-family="Times Roman,serif" font-size="14.00">AdminAbility</text>
</g>
</g>
</svg>
