<?xml version="1.0" encoding="UTF-8" standalone="no"?>
<!DOCTYPE svg PUBLIC "-//W3C//DTD SVG 1.1//EN"
 "http://www.w3.org/Graphics/SVG/1.1/DTD/svg11.dtd">
<!-- Generated by graphviz version 2.26.3 (20100126.1600)
 -->
<!-- Title: models_diagram Pages: 1 -->
<svg width="1274pt" height="250pt"
 viewBox="0.00 0.00 1274.00 250.00" xmlns="http://www.w3.org/2000/svg" xmlns:xlink="http://www.w3.org/1999/xlink">
<g id="graph1" class="graph" transform="scale(1 1) rotate(0) translate(4 246)">
<title>models_diagram</title>
<polygon fill="white" stroke="white" points="-4,5 -4,-246 1271,-246 1271,5 -4,5"/>
<!-- _diagram_info -->
<g id="node1" class="node"><title>_diagram_info</title>
<text text-anchor="start" x="39" y="-225.8" font-family="Times Roman,serif" font-size="13.00">Models diagram</text>
<text text-anchor="start" x="39" y="-208.8" font-family="Times Roman,serif" font-size="13.00">Date: Apr 13 2013 &#45; 08:07</text>
<text text-anchor="start" x="39" y="-191.8" font-family="Times Roman,serif" font-size="13.00">Migration version: 20130413055332</text>
<text text-anchor="start" x="39" y="-174.8" font-family="Times Roman,serif" font-size="13.00">Generated by RailRoady 1.1.0</text>
<text text-anchor="start" x="39" y="-157.8" font-family="Times Roman,serif" font-size="13.00">http://railroady.prestonlee.com</text>
</g>
<!-- Ability -->
<g id="node2" class="node"><title>Ability</title>
<polygon fill="none" stroke="black" points="359,-213 299,-213 299,-177 359,-177 359,-213"/>
<text text-anchor="middle" x="329" y="-191.4" font-family="Times Roman,serif" font-size="14.00">Ability</text>
</g>
<!-- Foam -->
<g id="node3" class="node"><title>Foam</title>
<ellipse fill="none" stroke="black" cx="414" cy="-195" rx="36.977" ry="18.3848"/>
<text text-anchor="middle" x="414" y="-191.4" font-family="Times Roman,serif" font-size="14.00">Foam</text>
</g>
<!-- Beer -->
<g id="node7" class="node"><title>Beer</title>
<ellipse fill="none" stroke="black" cx="414" cy="-93" rx="34.1461" ry="18.3848"/>
<text text-anchor="middle" x="414" y="-89.4" font-family="Times Roman,serif" font-size="14.00">Beer</text>
</g>
<!-- Foam&#45;&gt;Beer -->
<g id="edge2" class="edge"><title>Foam&#45;&gt;Beer</title>
<path fill="none" stroke="#a7f8d6" d="M414,-166.054C414,-152.256 414,-135.791 414,-121.987"/>
<polygon fill="#a7f8d6" stroke="#a7f8d6" points="414,-166.292 409.5,-176.292 414,-171.292 414,-176.292 414,-176.292 414,-176.292 414,-171.292 418.5,-176.292 414,-166.292 414,-166.292"/>
<polygon fill="#a7f8d6" stroke="#a7f8d6" points="414,-121.59 418.5,-111.59 414,-116.59 414,-111.59 414,-111.59 414,-111.59 414,-116.59 409.5,-111.59 414,-121.59 414,-121.59"/>
</g>
<!-- User -->
<g id="node4" class="node"><title>User</title>
<ellipse fill="none" stroke="black" cx="844" cy="-195" rx="33.9411" ry="18.3848"/>
<text text-anchor="middle" x="844" y="-191.4" font-family="Times Roman,serif" font-size="14.00">User</text>
</g>
<!-- Order -->
<g id="node5" class="node"><title>Order</title>
<ellipse fill="none" stroke="black" cx="799" cy="-93" rx="39.0967" ry="18.3848"/>
<text text-anchor="middle" x="799" y="-89.4" font-family="Times Roman,serif" font-size="14.00">Order</text>
</g>
<!-- User&#45;&gt;Order -->
<g id="edge6" class="edge"><title>User&#45;&gt;Order</title>
<path fill="none" stroke="#7c33a9" d="M831.852,-167.464C825.479,-153.02 817.691,-135.365 811.296,-120.872"/>
<polygon fill="#7c33a9" stroke="#7c33a9" points="831.918,-167.615 831.838,-178.581 833.937,-172.19 835.955,-176.764 835.955,-176.764 835.955,-176.764 833.937,-172.19 840.072,-174.948 831.918,-167.615 831.918,-167.615"/>
<polygon fill="#7c33a9" stroke="#7c33a9" points="811.164,-120.571 811.244,-109.605 809.145,-115.996 807.127,-111.422 807.127,-111.422 807.127,-111.422 809.145,-115.996 803.01,-113.238 811.164,-120.571 811.164,-120.571"/>
</g>
<!-- Role -->
<g id="node9" class="node"><title>Role</title>
<ellipse fill="none" stroke="black" cx="888" cy="-93" rx="32.0265" ry="18.3848"/>
<text text-anchor="middle" x="888" y="-89.4" font-family="Times Roman,serif" font-size="14.00">Role</text>
</g>
<!-- User&#45;&gt;Role -->
<g id="edge4" class="edge"><title>User&#45;&gt;Role</title>
<path fill="none" stroke="#c06d53" d="M855.905,-167.403C862.178,-152.86 869.85,-135.075 876.12,-120.541"/>
<polygon fill="#c06d53" stroke="#c06d53" points="855.827,-167.582 847.734,-174.982 853.847,-172.173 851.866,-176.764 851.866,-176.764 851.866,-176.764 853.847,-172.173 855.998,-178.547 855.827,-167.582 855.827,-167.582"/>
<polygon fill="#c06d53" stroke="#c06d53" points="876.241,-120.26 884.334,-112.86 878.221,-115.669 880.202,-111.078 880.202,-111.078 880.202,-111.078 878.221,-115.669 876.07,-109.295 876.241,-120.26 876.241,-120.26"/>
</g>
<!-- Ordercontent -->
<g id="node11" class="node"><title>Ordercontent</title>
<ellipse fill="none" stroke="black" cx="886" cy="-19" rx="77.7817" ry="18.3848"/>
<text text-anchor="middle" x="886" y="-15.4" font-family="Times Roman,serif" font-size="14.00">Ordercontent</text>
</g>
<!-- Order&#45;&gt;Ordercontent -->
<g id="edge8" class="edge"><title>Order&#45;&gt;Ordercontent</title>
<path fill="none" stroke="#e2d860" d="M824.746,-71.1007C834.947,-62.4243 846.72,-52.4105 857.202,-43.4947"/>
<ellipse fill="none" stroke="#e2d860" cx="821.355" cy="-73.9854" rx="4.00002" ry="4.00002"/>
<polygon fill="#e2d860" stroke="#e2d860" points="857.302,-43.4101 867.834,-40.3588 861.11,-40.1706 864.919,-36.931 864.919,-36.931 864.919,-36.931 861.11,-40.1706 862.003,-33.5033 857.302,-43.4101 857.302,-43.4101"/>
</g>
<!-- Sandwich -->
<g id="node6" class="node"><title>Sandwich</title>
<ellipse fill="none" stroke="black" cx="1086" cy="-195" rx="58.1882" ry="18.3848"/>
<text text-anchor="middle" x="1086" y="-191.4" font-family="Times Roman,serif" font-size="14.00">Sandwich</text>
</g>
<!-- Ingredient -->
<g id="node8" class="node"><title>Ingredient</title>
<ellipse fill="none" stroke="black" cx="1086" cy="-93" rx="62.2254" ry="18.3848"/>
<text text-anchor="middle" x="1086" y="-89.4" font-family="Times Roman,serif" font-size="14.00">Ingredient</text>
</g>
<!-- Sandwich&#45;&gt;Ingredient -->
<g id="edge10" class="edge"><title>Sandwich&#45;&gt;Ingredient</title>
<path fill="none" stroke="#bc33b3" d="M1086,-166.054C1086,-152.256 1086,-135.791 1086,-121.987"/>
<polygon fill="#bc33b3" stroke="#bc33b3" points="1086,-166.292 1081.5,-176.292 1086,-171.292 1086,-176.292 1086,-176.292 1086,-176.292 1086,-171.292 1090.5,-176.292 1086,-166.292 1086,-166.292"/>
<polygon fill="#bc33b3" stroke="#bc33b3" points="1086,-121.59 1090.5,-111.59 1086,-116.59 1086,-111.59 1086,-111.59 1086,-111.59 1086,-116.59 1081.5,-111.59 1086,-121.59 1086,-121.59"/>
</g>
<!-- Color -->
<g id="node10" class="node"><title>Color</title>
<ellipse fill="none" stroke="black" cx="37" cy="-19" rx="36.977" ry="18.3848"/>
<text text-anchor="middle" x="37" y="-15.4" font-family="Times Roman,serif" font-size="14.00">Color</text>
</g>
<!-- Beer&#45;&gt;Color -->
<g id="edge18" class="edge"><title>Beer&#45;&gt;Color</title>
<path fill="none" stroke="#05feda" d="M369.935,-88.8942C305.834,-82.2026 183.549,-66.7151 83,-38 80.022,-37.1495 76.9761,-36.1647 73.9397,-35.0999"/>
<polygon fill="#05feda" stroke="#05feda" points="370.137,-88.9148 379.628,-94.4075 375.112,-89.4228 380.086,-89.9308 380.086,-89.9308 380.086,-89.9308 375.112,-89.4228 380.543,-85.454 370.137,-88.9148 370.137,-88.9148"/>
<polygon fill="#05feda" stroke="#05feda" points="73.7262,-35.0195 65.9558,-27.2818 69.0475,-33.2561 64.3687,-31.4927 64.3687,-31.4927 64.3687,-31.4927 69.0475,-33.2561 62.7817,-35.7036 73.7262,-35.0195 73.7262,-35.0195"/>
</g>
<!-- Container -->
<g id="node12" class="node"><title>Container</title>
<ellipse fill="none" stroke="black" cx="152" cy="-19" rx="60.1041" ry="18.3848"/>
<text text-anchor="middle" x="152" y="-15.4" font-family="Times Roman,serif" font-size="14.00">Container</text>
</g>
<!-- Beer&#45;&gt;Container -->
<g id="edge20" class="edge"><title>Beer&#45;&gt;Container</title>
<path fill="none" stroke="#962f97" d="M375.769,-82.2018C330.531,-69.4249 254.978,-48.0854 204.335,-33.7817"/>
<ellipse fill="none" stroke="#962f97" cx="379.84" cy="-83.3517" rx="4.00001" ry="4.00001"/>
<ellipse fill="#962f97" stroke="#962f97" cx="200.279" cy="-32.6361" rx="4.00001" ry="4.00001"/>
</g>
<!-- Aroma -->
<g id="node13" class="node"><title>Aroma</title>
<ellipse fill="none" stroke="black" cx="274" cy="-19" rx="43.8406" ry="18.3848"/>
<text text-anchor="middle" x="274" y="-15.4" font-family="Times Roman,serif" font-size="14.00">Aroma</text>
</g>
<!-- Beer&#45;&gt;Aroma -->
<g id="edge14" class="edge"><title>Beer&#45;&gt;Aroma</title>
<path fill="none" stroke="#3af3f5" d="M380.189,-75.1283C359.187,-64.0275 332.191,-49.758 310.674,-38.3849"/>
<polygon fill="#3af3f5" stroke="#3af3f5" points="380.452,-75.2675 387.19,-83.9191 384.873,-77.6041 389.293,-79.9406 389.293,-79.9406 389.293,-79.9406 384.873,-77.6041 391.396,-75.9622 380.452,-75.2675 380.452,-75.2675"/>
<polygon fill="#3af3f5" stroke="#3af3f5" points="310.663,-38.3789 303.925,-29.7273 306.242,-36.0423 301.822,-33.7057 301.822,-33.7057 301.822,-33.7057 306.242,-36.0423 299.719,-37.6842 310.663,-38.3789 310.663,-38.3789"/>
</g>
<!-- Manufacturer -->
<g id="node14" class="node"><title>Manufacturer</title>
<ellipse fill="none" stroke="black" cx="414" cy="-19" rx="77.7817" ry="18.3848"/>
<text text-anchor="middle" x="414" y="-15.4" font-family="Times Roman,serif" font-size="14.00">Manufacturer</text>
</g>
<!-- Beer&#45;&gt;Manufacturer -->
<g id="edge24" class="edge"><title>Beer&#45;&gt;Manufacturer</title>
<path fill="none" stroke="#319bc8" d="M414,-66.309C414,-59.6354 414,-52.4756 414,-45.7969"/>
<ellipse fill="none" stroke="#319bc8" cx="414" cy="-70.3267" rx="4" ry="4"/>
<ellipse fill="#319bc8" stroke="#319bc8" cx="414" cy="-41.6674" rx="4" ry="4"/>
</g>
<!-- Lid -->
<g id="node15" class="node"><title>Lid</title>
<ellipse fill="none" stroke="black" cx="537" cy="-19" rx="27" ry="18.3848"/>
<text text-anchor="middle" x="537" y="-15.4" font-family="Times Roman,serif" font-size="14.00">Lid</text>
</g>
<!-- Beer&#45;&gt;Lid -->
<g id="edge22" class="edge"><title>Beer&#45;&gt;Lid</title>
<path fill="none" stroke="#8a8a63" d="M443.841,-75.047C463.834,-63.0184 489.965,-47.2972 509.462,-35.5674"/>
<ellipse fill="none" stroke="#8a8a63" cx="440.275" cy="-77.1925" rx="4.00002" ry="4.00002"/>
<ellipse fill="#8a8a63" stroke="#8a8a63" cx="512.894" cy="-33.5028" rx="4.00002" ry="4.00002"/>
</g>
<!-- Taste -->
<g id="node16" class="node"><title>Taste</title>
<ellipse fill="none" stroke="black" cx="619" cy="-19" rx="36.977" ry="18.3848"/>
<text text-anchor="middle" x="619" y="-15.4" font-family="Times Roman,serif" font-size="14.00">Taste</text>
</g>
<!-- Beer&#45;&gt;Taste -->
<g id="edge16" class="edge"><title>Beer&#45;&gt;Taste</title>
<path fill="none" stroke="#6728b8" d="M452.732,-80.3094C485.069,-69.5453 532.283,-53.4358 573,-38 575.563,-37.0285 578.197,-36.006 580.845,-34.9602"/>
<polygon fill="#6728b8" stroke="#6728b8" points="452.689,-80.3235 441.781,-79.2004 447.944,-81.8976 443.198,-83.4716 443.198,-83.4716 443.198,-83.4716 447.944,-81.8976 444.615,-87.7428 452.689,-80.3235 452.689,-80.3235"/>
<polygon fill="#6728b8" stroke="#6728b8" points="581.116,-34.851 592.073,-35.2946 585.755,-32.9853 590.394,-31.1196 590.394,-31.1196 590.394,-31.1196 585.755,-32.9853 588.715,-26.9446 581.116,-34.851 581.116,-34.851"/>
</g>
<!-- Beerstyle -->
<g id="node18" class="node"><title>Beerstyle</title>
<ellipse fill="none" stroke="black" cx="732" cy="-19" rx="57.9828" ry="18.3848"/>
<text text-anchor="middle" x="732" y="-15.4" font-family="Times Roman,serif" font-size="14.00">Beerstyle</text>
</g>
<!-- Beer&#45;&gt;Beerstyle -->
<g id="edge12" class="edge"><title>Beer&#45;&gt;Beerstyle</title>
<path fill="none" stroke="#6a50be" d="M456.047,-84.5987C506.049,-74.4207 591.937,-56.3468 665,-38 669.665,-36.8286 674.498,-35.5624 679.334,-34.2593"/>
<polygon fill="#6a50be" stroke="#6a50be" points="456.04,-84.6 445.345,-82.1771 451.14,-85.5937 446.239,-86.5874 446.239,-86.5874 446.239,-86.5874 451.14,-85.5937 447.134,-90.9976 456.04,-84.6 456.04,-84.6"/>
<polygon fill="#6a50be" stroke="#6a50be" points="679.569,-34.195 690.403,-35.8907 684.391,-32.873 689.213,-31.5509 689.213,-31.5509 689.213,-31.5509 684.391,-32.873 688.023,-27.211 679.569,-34.195 679.569,-34.195"/>
</g>
<!-- Item -->
<g id="node17" class="node"><title>Item</title>
<ellipse fill="none" stroke="black" cx="972" cy="-93" rx="33.9411" ry="18.3848"/>
<text text-anchor="middle" x="972" y="-89.4" font-family="Times Roman,serif" font-size="14.00">Item</text>
</g>
<!-- Item&#45;&gt;Ordercontent -->
<g id="edge26" class="edge"><title>Item&#45;&gt;Ordercontent</title>
<path fill="none" stroke="#51895b" d="M947.352,-71.7916C937.168,-63.0285 925.293,-52.8106 914.719,-43.7113"/>
<ellipse fill="none" stroke="#51895b" cx="950.73" cy="-74.6975" rx="4.00002" ry="4.00002"/>
<polygon fill="#51895b" stroke="#51895b" points="914.515,-43.5362 909.87,-33.6027 910.725,-40.2749 906.935,-37.0137 906.935,-37.0137 906.935,-37.0137 910.725,-40.2749 904,-40.4248 914.515,-43.5362 914.515,-43.5362"/>
</g>
<!-- AdminAbility -->
<g id="node19" class="node"><title>AdminAbility</title>
<polygon fill="none" stroke="black" points="1266,-213 1162,-213 1162,-177 1266,-177 1266,-213"/>
<text text-anchor="middle" x="1214" y="-191.4" font-family="Times Roman,serif" font-size="14.00">AdminAbility</text>
</g>
</g>
</svg>
