<?xml version="1.0" encoding="UTF-8" standalone="no"?>
<!DOCTYPE svg PUBLIC "-//W3C//DTD SVG 1.1//EN"
 "http://www.w3.org/Graphics/SVG/1.1/DTD/svg11.dtd">
<!-- Generated by graphviz version 2.26.3 (20100126.1600)
 -->
<!-- Title: models_diagram Pages: 1 -->
<svg width="2228pt" height="324pt"
 viewBox="0.00 0.00 2228.00 324.00" xmlns="http://www.w3.org/2000/svg" xmlns:xlink="http://www.w3.org/1999/xlink">
<g id="graph1" class="graph" transform="scale(1 1) rotate(0) translate(4 320)">
<title>models_diagram</title>
<polygon fill="white" stroke="white" points="-4,5 -4,-320 2225,-320 2225,5 -4,5"/>
<!-- _diagram_info -->
<g id="node1" class="node"><title>_diagram_info</title>
<text text-anchor="start" x="8" y="-299.8" font-family="Times Roman,serif" font-size="13.00">Models diagram</text>
<text text-anchor="start" x="8" y="-282.8" font-family="Times Roman,serif" font-size="13.00">Date: Aug 28 2013 &#45; 09:37</text>
<text text-anchor="start" x="8" y="-265.8" font-family="Times Roman,serif" font-size="13.00">Migration version: 20130602104513</text>
<text text-anchor="start" x="8" y="-248.8" font-family="Times Roman,serif" font-size="13.00">Generated by RailRoady 1.1.1</text>
<text text-anchor="start" x="8" y="-231.8" font-family="Times Roman,serif" font-size="13.00">http://railroady.prestonlee.com</text>
</g>
<!-- Ability -->
<g id="node2" class="node"><title>Ability</title>
<polygon fill="none" stroke="black" points="291,-185 231,-185 231,-149 291,-149 291,-185"/>
<text text-anchor="middle" x="261" y="-163.4" font-family="Times Roman,serif" font-size="14.00">Ability</text>
</g>
<!-- Foam -->
<g id="node3" class="node"><title>Foam</title>
<ellipse fill="none" stroke="black" cx="1212" cy="-167" rx="38.1838" ry="18.3848"/>
<text text-anchor="middle" x="1212" y="-163.4" font-family="Times Roman,serif" font-size="14.00">Foam</text>
</g>
<!-- Beer -->
<g id="node8" class="node"><title>Beer</title>
<ellipse fill="none" stroke="black" cx="1191" cy="-93" rx="34.1461" ry="18.3848"/>
<text text-anchor="middle" x="1191" y="-89.4" font-family="Times Roman,serif" font-size="14.00">Beer</text>
</g>
<!-- Foam&#45;&gt;Beer -->
<g id="edge4" class="edge"><title>Foam&#45;&gt;Beer</title>
<path fill="none" stroke="#895ec0" d="M1203.91,-138.495C1202.3,-132.813 1200.61,-126.848 1199,-121.177"/>
<polygon fill="#895ec0" stroke="#895ec0" points="1203.97,-138.707 1202.37,-149.555 1205.34,-143.517 1206.7,-148.327 1206.7,-148.327 1206.7,-148.327 1205.34,-143.517 1211.03,-147.098 1203.97,-138.707 1203.97,-138.707"/>
<polygon fill="#895ec0" stroke="#895ec0" points="1198.95,-121.031 1200.55,-110.182 1197.59,-116.221 1196.22,-111.411 1196.22,-111.411 1196.22,-111.411 1197.59,-116.221 1191.9,-112.64 1198.95,-121.031 1198.95,-121.031"/>
</g>
<!-- User -->
<g id="node4" class="node"><title>User</title>
<ellipse fill="none" stroke="black" cx="463" cy="-167" rx="33.9411" ry="18.3848"/>
<text text-anchor="middle" x="463" y="-163.4" font-family="Times Roman,serif" font-size="14.00">User</text>
</g>
<!-- Role -->
<g id="node11" class="node"><title>Role</title>
<ellipse fill="none" stroke="black" cx="483" cy="-93" rx="32.0265" ry="18.3848"/>
<text text-anchor="middle" x="483" y="-89.4" font-family="Times Roman,serif" font-size="14.00">Role</text>
</g>
<!-- User&#45;&gt;Role -->
<g id="edge8" class="edge"><title>User&#45;&gt;Role</title>
<path fill="none" stroke="#c84a0e" d="M470.704,-138.495C472.24,-132.813 473.852,-126.848 475.385,-121.177"/>
<polygon fill="#c84a0e" stroke="#c84a0e" points="470.656,-138.673 463.703,-147.153 469.351,-143.5 468.047,-148.327 468.047,-148.327 468.047,-148.327 469.351,-143.5 472.391,-149.501 470.656,-138.673 470.656,-138.673"/>
<polygon fill="#c84a0e" stroke="#c84a0e" points="475.415,-121.065 482.368,-112.585 476.719,-116.238 478.024,-111.411 478.024,-111.411 478.024,-111.411 476.719,-116.238 473.68,-110.237 475.415,-121.065 475.415,-121.065"/>
</g>
<!-- Status -->
<g id="node5" class="node"><title>Status</title>
<ellipse fill="none" stroke="black" cx="635" cy="-93" rx="43.8406" ry="18.3848"/>
<text text-anchor="middle" x="635" y="-89.4" font-family="Times Roman,serif" font-size="14.00">Status</text>
</g>
<!-- Tracking -->
<g id="node16" class="node"><title>Tracking</title>
<ellipse fill="none" stroke="black" cx="635" cy="-19" rx="51.8276" ry="18.3848"/>
<text text-anchor="middle" x="635" y="-15.4" font-family="Times Roman,serif" font-size="14.00">Tracking</text>
</g>
<!-- Status&#45;&gt;Tracking -->
<g id="edge12" class="edge"><title>Status&#45;&gt;Tracking</title>
<path fill="none" stroke="#b59f7e" d="M635,-66.309C635,-60.3769 635,-54.0606 635,-48.0396"/>
<ellipse fill="none" stroke="#b59f7e" cx="635" cy="-70.3267" rx="4" ry="4"/>
<polygon fill="#b59f7e" stroke="#b59f7e" points="635,-47.6674 639.5,-37.6673 635,-42.6674 635,-37.6674 635,-37.6674 635,-37.6674 635,-42.6674 630.5,-37.6674 635,-47.6674 635,-47.6674"/>
</g>
<!-- Order -->
<g id="node6" class="node"><title>Order</title>
<ellipse fill="none" stroke="black" cx="705" cy="-167" rx="39.0967" ry="18.3848"/>
<text text-anchor="middle" x="705" y="-163.4" font-family="Times Roman,serif" font-size="14.00">Order</text>
</g>
<!-- Order&#45;&gt;Status -->
<g id="edge20" class="edge"><title>Order&#45;&gt;Status</title>
<path fill="none" stroke="#98c877" d="M681.821,-142.497C674.351,-134.599 666.065,-125.841 658.567,-117.914"/>
<polygon fill="#98c877" stroke="#98c877" points="681.893,-142.572 685.496,-152.929 685.329,-146.205 688.765,-149.837 688.765,-149.837 688.765,-149.837 685.329,-146.205 692.034,-146.745 681.893,-142.572 681.893,-142.572"/>
<polygon fill="#98c877" stroke="#98c877" points="658.262,-117.591 654.659,-107.234 654.826,-113.959 651.39,-110.326 651.39,-110.326 651.39,-110.326 654.826,-113.959 648.121,-113.419 658.262,-117.591 658.262,-117.591"/>
</g>
<!-- Ordercontent -->
<g id="node15" class="node"><title>Ordercontent</title>
<ellipse fill="none" stroke="black" cx="783" cy="-19" rx="77.0746" ry="18.3848"/>
<text text-anchor="middle" x="783" y="-15.4" font-family="Times Roman,serif" font-size="14.00">Ordercontent</text>
</g>
<!-- Order&#45;&gt;Ordercontent -->
<g id="edge16" class="edge"><title>Order&#45;&gt;Ordercontent</title>
<path fill="none" stroke="#aa51e6" d="M718.49,-141.404C732.409,-114.993 754.053,-73.9256 768.375,-46.7495"/>
<ellipse fill="none" stroke="#aa51e6" cx="716.429" cy="-145.314" rx="4.00002" ry="4.00002"/>
<polygon fill="#aa51e6" stroke="#aa51e6" points="768.449,-46.6097 777.092,-39.8612 770.78,-42.1864 773.111,-37.7631 773.111,-37.7631 773.111,-37.7631 770.78,-42.1864 769.13,-35.665 768.449,-46.6097 768.449,-46.6097"/>
</g>
<!-- Order&#45;&gt;Tracking -->
<g id="edge18" class="edge"><title>Order&#45;&gt;Tracking</title>
<path fill="none" stroke="#fbb8df" d="M704.187,-140.075C702.652,-120.757 698.569,-94.6101 688,-74 682.091,-62.477 672.978,-51.7418 663.965,-42.8702"/>
<ellipse fill="none" stroke="#fbb8df" cx="704.454" cy="-144.17" rx="4" ry="4"/>
<polygon fill="#fbb8df" stroke="#fbb8df" points="663.794,-42.7104 659.563,-32.5932 660.142,-39.2952 656.49,-35.88 656.49,-35.88 656.49,-35.88 660.142,-39.2952 653.416,-39.1667 663.794,-42.7104 663.794,-42.7104"/>
</g>
<!-- Sandwich -->
<g id="node7" class="node"><title>Sandwich</title>
<ellipse fill="none" stroke="black" cx="1516" cy="-167" rx="58.1882" ry="18.3848"/>
<text text-anchor="middle" x="1516" y="-163.4" font-family="Times Roman,serif" font-size="14.00">Sandwich</text>
</g>
<!-- Ingredient -->
<g id="node10" class="node"><title>Ingredient</title>
<ellipse fill="none" stroke="black" cx="1797" cy="-93" rx="61.0181" ry="18.3848"/>
<text text-anchor="middle" x="1797" y="-89.4" font-family="Times Roman,serif" font-size="14.00">Ingredient</text>
</g>
<!-- Sandwich&#45;&gt;Ingredient -->
<g id="edge24" class="edge"><title>Sandwich&#45;&gt;Ingredient</title>
<path fill="none" stroke="#288e8e" d="M1568.93,-151.859C1573.68,-150.539 1578.43,-149.236 1583,-148 1612.31,-140.079 1687.2,-120.924 1740.09,-107.457"/>
<polygon fill="#288e8e" stroke="#288e8e" points="1568.84,-151.885 1557.99,-150.244 1564.02,-153.231 1559.21,-154.578 1559.21,-154.578 1559.21,-154.578 1564.02,-153.231 1560.42,-158.912 1568.84,-151.885 1568.84,-151.885"/>
<polygon fill="#288e8e" stroke="#288e8e" points="1740.33,-107.395 1751.13,-109.29 1745.18,-106.162 1750.02,-104.929 1750.02,-104.929 1750.02,-104.929 1745.18,-106.162 1748.91,-100.568 1740.33,-107.395 1740.33,-107.395"/>
</g>
<!-- Color -->
<g id="node13" class="node"><title>Color</title>
<ellipse fill="none" stroke="black" cx="1064" cy="-19" rx="36.977" ry="18.3848"/>
<text text-anchor="middle" x="1064" y="-15.4" font-family="Times Roman,serif" font-size="14.00">Color</text>
</g>
<!-- Beer&#45;&gt;Color -->
<g id="edge34" class="edge"><title>Beer&#45;&gt;Color</title>
<path fill="none" stroke="#08ab76" d="M1158.78,-74.2276C1139.91,-63.2284 1116.11,-49.3642 1097.09,-38.2787"/>
<polygon fill="#08ab76" stroke="#08ab76" points="1159.07,-74.3927 1165.44,-83.3154 1163.39,-76.91 1167.71,-79.4273 1167.71,-79.4273 1167.71,-79.4273 1163.39,-76.91 1169.97,-75.5391 1159.07,-74.3927 1159.07,-74.3927"/>
<polygon fill="#08ab76" stroke="#08ab76" points="1097.08,-38.2778 1090.71,-29.3552 1092.76,-35.7606 1088.44,-33.2433 1088.44,-33.2433 1088.44,-33.2433 1092.76,-35.7606 1086.18,-37.1314 1097.08,-38.2778 1097.08,-38.2778"/>
</g>
<!-- Aroma -->
<g id="node20" class="node"><title>Aroma</title>
<ellipse fill="none" stroke="black" cx="1162" cy="-19" rx="43.1335" ry="18.3848"/>
<text text-anchor="middle" x="1162" y="-15.4" font-family="Times Roman,serif" font-size="14.00">Aroma</text>
</g>
<!-- Beer&#45;&gt;Aroma -->
<g id="edge30" class="edge"><title>Beer&#45;&gt;Aroma</title>
<path fill="none" stroke="#636451" d="M1180.17,-65.3728C1177.82,-59.376 1175.34,-53.0275 1172.98,-47.0159"/>
<polygon fill="#636451" stroke="#636451" points="1180.18,-65.3973 1179.64,-76.3498 1182.01,-70.0526 1183.83,-74.7079 1183.83,-74.7079 1183.83,-74.7079 1182.01,-70.0526 1188.02,-73.0659 1180.18,-65.3973 1180.18,-65.3973"/>
<polygon fill="#636451" stroke="#636451" points="1172.84,-46.6487 1173.38,-35.6962 1171.01,-41.9935 1169.19,-37.3382 1169.19,-37.3382 1169.19,-37.3382 1171.01,-41.9935 1165,-38.9801 1172.84,-46.6487 1172.84,-46.6487"/>
</g>
<!-- Taste -->
<g id="node24" class="node"><title>Taste</title>
<ellipse fill="none" stroke="black" cx="1260" cy="-19" rx="36.7696" ry="18.3848"/>
<text text-anchor="middle" x="1260" y="-15.4" font-family="Times Roman,serif" font-size="14.00">Taste</text>
</g>
<!-- Beer&#45;&gt;Taste -->
<g id="edge32" class="edge"><title>Beer&#45;&gt;Taste</title>
<path fill="none" stroke="#129ae4" d="M1213.61,-68.753C1221.18,-60.6315 1229.63,-51.576 1237.21,-43.4399"/>
<polygon fill="#129ae4" stroke="#129ae4" points="1213.48,-68.8944 1203.37,-73.1394 1210.07,-72.5513 1206.66,-76.2083 1206.66,-76.2083 1206.66,-76.2083 1210.07,-72.5513 1209.95,-79.2771 1213.48,-68.8944 1213.48,-68.8944"/>
<polygon fill="#129ae4" stroke="#129ae4" points="1237.35,-43.2953 1247.46,-39.0503 1240.76,-39.6384 1244.17,-35.9814 1244.17,-35.9814 1244.17,-35.9814 1240.76,-39.6384 1240.87,-32.9126 1237.35,-43.2953 1237.35,-43.2953"/>
</g>
<!-- Beerstyle -->
<g id="node26" class="node"><title>Beerstyle</title>
<ellipse fill="none" stroke="black" cx="1373" cy="-19" rx="57.9828" ry="18.3848"/>
<text text-anchor="middle" x="1373" y="-15.4" font-family="Times Roman,serif" font-size="14.00">Beerstyle</text>
</g>
<!-- Beer&#45;&gt;Beerstyle -->
<g id="edge28" class="edge"><title>Beer&#45;&gt;Beerstyle</title>
<path fill="none" stroke="#0e416c" d="M1227.66,-78.0953C1256.42,-66.401 1296.61,-50.0597 1327.44,-37.5244"/>
<polygon fill="#0e416c" stroke="#0e416c" points="1227.51,-78.1549 1216.55,-77.7528 1222.88,-80.0382 1218.25,-81.9215 1218.25,-81.9215 1218.25,-81.9215 1222.88,-80.0382 1219.94,-86.0901 1227.51,-78.1549 1227.51,-78.1549"/>
<polygon fill="#0e416c" stroke="#0e416c" points="1327.83,-37.3655 1338.79,-37.7676 1332.46,-35.4822 1337.09,-33.599 1337.09,-33.599 1337.09,-33.599 1332.46,-35.4822 1335.4,-29.4304 1327.83,-37.3655 1327.83,-37.3655"/>
</g>
<!-- Foodcategory -->
<g id="node9" class="node"><title>Foodcategory</title>
<ellipse fill="none" stroke="black" cx="1985" cy="-93" rx="77.0746" ry="18.3848"/>
<text text-anchor="middle" x="1985" y="-89.4" font-family="Times Roman,serif" font-size="14.00">Foodcategory</text>
</g>
<!-- Food -->
<g id="node18" class="node"><title>Food</title>
<ellipse fill="none" stroke="black" cx="1985" cy="-19" rx="34.1461" ry="18.3848"/>
<text text-anchor="middle" x="1985" y="-15.4" font-family="Times Roman,serif" font-size="14.00">Food</text>
</g>
<!-- Foodcategory&#45;&gt;Food -->
<g id="edge38" class="edge"><title>Foodcategory&#45;&gt;Food</title>
<path fill="none" stroke="#1a985c" d="M1985,-66.309C1985,-60.3769 1985,-54.0606 1985,-48.0396"/>
<ellipse fill="none" stroke="#1a985c" cx="1985" cy="-70.3267" rx="4" ry="4"/>
<polygon fill="#1a985c" stroke="#1a985c" points="1985,-47.6674 1989.5,-37.6673 1985,-42.6674 1985,-37.6674 1985,-37.6674 1985,-37.6674 1985,-42.6674 1980.5,-37.6674 1985,-47.6674 1985,-47.6674"/>
</g>
<!-- Beverage -->
<g id="node12" class="node"><title>Beverage</title>
<ellipse fill="none" stroke="black" cx="1644" cy="-19" rx="57.9828" ry="18.3848"/>
<text text-anchor="middle" x="1644" y="-15.4" font-family="Times Roman,serif" font-size="14.00">Beverage</text>
</g>
<!-- Ingredient&#45;&gt;Beverage -->
<g id="edge44" class="edge"><title>Ingredient&#45;&gt;Beverage</title>
<path fill="none" stroke="#1427e2" d="M1755.33,-72.8464C1733.6,-62.3379 1707.11,-49.5244 1685.42,-39.0336"/>
<polygon fill="#1427e2" stroke="#1427e2" points="1755.55,-72.9524 1762.59,-81.3576 1760.05,-75.1294 1764.55,-77.3065 1764.55,-77.3065 1764.55,-77.3065 1760.05,-75.1294 1766.51,-73.2554 1755.55,-72.9524 1755.55,-72.9524"/>
<polygon fill="#1427e2" stroke="#1427e2" points="1685.14,-38.898 1678.1,-30.4928 1680.64,-36.7209 1676.14,-34.5438 1676.14,-34.5438 1676.14,-34.5438 1680.64,-36.7209 1674.18,-38.5949 1685.14,-38.898 1685.14,-38.898"/>
</g>
<!-- Ingredient&#45;&gt;Food -->
<g id="edge42" class="edge"><title>Ingredient&#45;&gt;Food</title>
<path fill="none" stroke="#907b94" d="M1844.3,-74.3826C1876.31,-61.7837 1918,-45.3724 1947.67,-33.6929"/>
<polygon fill="#907b94" stroke="#907b94" points="1843.9,-74.5401 1832.94,-74.0155 1839.25,-76.3715 1834.59,-78.2028 1834.59,-78.2028 1834.59,-78.2028 1839.25,-76.3715 1836.24,-82.3902 1843.9,-74.5401 1843.9,-74.5401"/>
<polygon fill="#907b94" stroke="#907b94" points="1947.94,-33.5885 1958.89,-34.1131 1952.59,-31.7571 1957.24,-29.9258 1957.24,-29.9258 1957.24,-29.9258 1952.59,-31.7571 1955.59,-25.7385 1947.94,-33.5885 1947.94,-33.5885"/>
</g>
<!-- LineItem -->
<g id="node14" class="node"><title>LineItem</title>
<ellipse fill="none" stroke="black" cx="948" cy="-19" rx="53.9477" ry="18.3848"/>
<text text-anchor="middle" x="948" y="-15.4" font-family="Times Roman,serif" font-size="14.00">LineItem</text>
</g>
<!-- Itemstatus -->
<g id="node17" class="node"><title>Itemstatus</title>
<ellipse fill="none" stroke="black" cx="902" cy="-167" rx="63.8479" ry="18.3848"/>
<text text-anchor="middle" x="902" y="-163.4" font-family="Times Roman,serif" font-size="14.00">Itemstatus</text>
</g>
<!-- Item -->
<g id="node25" class="node"><title>Item</title>
<ellipse fill="none" stroke="black" cx="866" cy="-93" rx="33.9411" ry="18.3848"/>
<text text-anchor="middle" x="866" y="-89.4" font-family="Times Roman,serif" font-size="14.00">Item</text>
</g>
<!-- Itemstatus&#45;&gt;Item -->
<g id="edge60" class="edge"><title>Itemstatus&#45;&gt;Item</title>
<path fill="none" stroke="#bc745c" d="M888.491,-139.231C885.463,-133.007 882.254,-126.411 879.237,-120.21"/>
<polygon fill="#bc745c" stroke="#bc745c" points="888.541,-139.334 888.869,-150.295 890.728,-143.83 892.916,-148.327 892.916,-148.327 892.916,-148.327 890.728,-143.83 896.962,-146.358 888.541,-139.334 888.541,-139.334"/>
<polygon fill="#bc745c" stroke="#bc745c" points="879.084,-119.894 878.755,-108.933 876.896,-115.398 874.709,-110.902 874.709,-110.902 874.709,-110.902 876.896,-115.398 870.662,-112.87 879.084,-119.894 879.084,-119.894"/>
</g>
<!-- Container -->
<g id="node19" class="node"><title>Container</title>
<ellipse fill="none" stroke="black" cx="1402" cy="-93" rx="60.1041" ry="18.3848"/>
<text text-anchor="middle" x="1402" y="-89.4" font-family="Times Roman,serif" font-size="14.00">Container</text>
</g>
<!-- Container&#45;&gt;Beverage -->
<g id="edge66" class="edge"><title>Container&#45;&gt;Beverage</title>
<path fill="none" stroke="#839fda" d="M1454.41,-76.9723C1495.29,-64.4744 1551.75,-47.21 1592.41,-34.7766"/>
<polygon fill="#839fda" stroke="#839fda" points="1454.27,-77.0164 1443.39,-75.6373 1449.49,-78.4785 1444.71,-79.9406 1444.71,-79.9406 1444.71,-79.9406 1449.49,-78.4785 1446.02,-84.2439 1454.27,-77.0164 1454.27,-77.0164"/>
<polygon fill="#839fda" stroke="#839fda" points="1592.56,-34.7293 1603.44,-36.1083 1597.34,-33.2671 1602.12,-31.805 1602.12,-31.805 1602.12,-31.805 1597.34,-33.2671 1600.81,-27.5017 1592.56,-34.7293 1592.56,-34.7293"/>
</g>
<!-- Manufacturer -->
<g id="node21" class="node"><title>Manufacturer</title>
<ellipse fill="none" stroke="black" cx="1875" cy="-167" rx="77.0746" ry="18.3848"/>
<text text-anchor="middle" x="1875" y="-163.4" font-family="Times Roman,serif" font-size="14.00">Manufacturer</text>
</g>
<!-- Cart -->
<g id="node22" class="node"><title>Cart</title>
<ellipse fill="none" stroke="black" cx="1009" cy="-93" rx="33.234" ry="18.3848"/>
<text text-anchor="middle" x="1009" y="-89.4" font-family="Times Roman,serif" font-size="14.00">Cart</text>
</g>
<!-- Cart&#45;&gt;LineItem -->
<g id="edge74" class="edge"><title>Cart&#45;&gt;LineItem</title>
<path fill="none" stroke="#9a2ed1" d="M989.636,-69.5093C983.097,-61.5765 975.766,-52.6835 969.099,-44.596"/>
<ellipse fill="none" stroke="#9a2ed1" cx="992.308" cy="-72.7504" rx="4.00002" ry="4.00002"/>
<polygon fill="#9a2ed1" stroke="#9a2ed1" points="969.069,-44.5589 966.18,-33.9802 965.888,-40.7007 962.708,-36.8426 962.708,-36.8426 962.708,-36.8426 965.888,-40.7007 959.236,-39.7049 969.069,-44.5589 969.069,-44.5589"/>
</g>
<!-- Lid -->
<g id="node23" class="node"><title>Lid</title>
<ellipse fill="none" stroke="black" cx="1997" cy="-167" rx="27" ry="18.3848"/>
<text text-anchor="middle" x="1997" y="-163.4" font-family="Times Roman,serif" font-size="14.00">Lid</text>
</g>
<!-- Item&#45;&gt;LineItem -->
<g id="edge84" class="edge"><title>Item&#45;&gt;LineItem</title>
<path fill="none" stroke="#3179d6" d="M889.998,-71.3436C899.751,-62.5418 911.064,-52.3322 921.096,-43.2793"/>
<ellipse fill="none" stroke="#3179d6" cx="886.762" cy="-74.2632" rx="4.00002" ry="4.00002"/>
<polygon fill="#3179d6" stroke="#3179d6" points="921.388,-43.0158 931.827,-39.6569 925.1,-39.666 928.812,-36.3161 928.812,-36.3161 928.812,-36.3161 925.1,-39.666 925.797,-32.9754 921.388,-43.0158 921.388,-43.0158"/>
</g>
<!-- Item&#45;&gt;Ordercontent -->
<g id="edge82" class="edge"><title>Item&#45;&gt;Ordercontent</title>
<path fill="none" stroke="#89cca8" d="M841.849,-71.4677C832.201,-62.8661 821.028,-52.9045 811.026,-43.9871"/>
<ellipse fill="none" stroke="#89cca8" cx="845.005" cy="-74.2812" rx="4.00002" ry="4.00002"/>
<polygon fill="#89cca8" stroke="#89cca8" points="810.772,-43.7602 806.302,-33.7465 807.039,-40.4328 803.307,-37.1054 803.307,-37.1054 803.307,-37.1054 807.039,-40.4328 800.313,-40.4643 810.772,-43.7602 810.772,-43.7602"/>
</g>
<!-- AdminAbility -->
<g id="node27" class="node"><title>AdminAbility</title>
<polygon fill="none" stroke="black" points="411,-185 309,-185 309,-149 411,-149 411,-185"/>
<text text-anchor="middle" x="360" y="-163.4" font-family="Times Roman,serif" font-size="14.00">AdminAbility</text>
</g>
<!-- Bruschettum -->
<g id="node28" class="node"><title>Bruschettum</title>
<ellipse fill="none" stroke="black" cx="1667" cy="-167" rx="74.9533" ry="18.3848"/>
<text text-anchor="middle" x="1667" y="-163.4" font-family="Times Roman,serif" font-size="14.00">Bruschettum</text>
</g>
<!-- Bruschettum&#45;&gt;Ingredient -->
<g id="edge92" class="edge"><title>Bruschettum&#45;&gt;Ingredient</title>
<path fill="none" stroke="#28a018" d="M1705.72,-144.96C1722.63,-135.332 1742.4,-124.078 1759.21,-114.51"/>
<polygon fill="#28a018" stroke="#28a018" points="1705.52,-145.076 1694.6,-146.112 1701.17,-147.549 1696.82,-150.023 1696.82,-150.023 1696.82,-150.023 1701.17,-147.549 1699.05,-153.934 1705.52,-145.076 1705.52,-145.076"/>
<polygon fill="#28a018" stroke="#28a018" points="1759.52,-114.336 1770.43,-113.3 1763.86,-111.863 1768.21,-109.389 1768.21,-109.389 1768.21,-109.389 1763.86,-111.863 1765.98,-105.478 1759.52,-114.336 1759.52,-114.336"/>
</g>
<!-- Country -->
<g id="node29" class="node"><title>Country</title>
<ellipse fill="none" stroke="black" cx="2169" cy="-167" rx="51.1176" ry="18.3848"/>
<text text-anchor="middle" x="2169" y="-163.4" font-family="Times Roman,serif" font-size="14.00">Country</text>
</g>
<!-- Beveragecategory -->
<g id="node30" class="node"><title>Beveragecategory</title>
<ellipse fill="none" stroke="black" cx="1580" cy="-93" rx="99.9096" ry="18.3848"/>
<text text-anchor="middle" x="1580" y="-89.4" font-family="Times Roman,serif" font-size="14.00">Beveragecategory</text>
</g>
<!-- Beveragecategory&#45;&gt;Beverage -->
<g id="edge98" class="edge"><title>Beveragecategory&#45;&gt;Beverage</title>
<path fill="none" stroke="#e90973" d="M1602.42,-67.0762C1608.58,-59.9574 1615.26,-52.236 1621.42,-45.1069"/>
<polygon fill="#e90973" stroke="#e90973" points="1602.36,-67.1442 1592.42,-71.7642 1599.09,-70.926 1595.82,-74.7079 1595.82,-74.7079 1595.82,-74.7079 1599.09,-70.926 1599.22,-77.6516 1602.36,-67.1442 1602.36,-67.1442"/>
<polygon fill="#e90973" stroke="#e90973" points="1621.82,-44.6454 1631.77,-40.0254 1625.09,-40.8636 1628.36,-37.0817 1628.36,-37.0817 1628.36,-37.0817 1625.09,-40.8636 1624.96,-34.138 1621.82,-44.6454 1621.82,-44.6454"/>
</g>
<!-- Object -->
<g id="node31" class="node"><title>Object</title>
<ellipse fill="none" stroke="black" cx="311" cy="-269" rx="43.1335" ry="18.3848"/>
<text text-anchor="middle" x="311" y="-265.4" font-family="Times Roman,serif" font-size="14.00">Object</text>
</g>
<!-- Object&#45;&gt;Ability -->
<g id="edge2" class="edge"><title>Object&#45;&gt;Ability</title>
<path fill="none" stroke="black" d="M302.061,-250.764C292.96,-232.198 278.935,-203.586 269.862,-185.078"/>
</g>
<!-- Object&#45;&gt;AdminAbility -->
<g id="edge90" class="edge"><title>Object&#45;&gt;AdminAbility</title>
<path fill="none" stroke="black" d="M319.76,-250.764C328.679,-232.198 342.424,-203.586 351.316,-185.078"/>
</g>
<!-- ActiveRecord::Base -->
<g id="node34" class="node"><title>ActiveRecord::Base</title>
<ellipse fill="none" stroke="black" cx="1212" cy="-269" rx="103.945" ry="18.3848"/>
<text text-anchor="middle" x="1212" y="-265.4" font-family="Times Roman,serif" font-size="14.00">ActiveRecord::Base</text>
</g>
<!-- ActiveRecord::Base&#45;&gt;Foam -->
<g id="edge6" class="edge"><title>ActiveRecord::Base&#45;&gt;Foam</title>
<path fill="none" stroke="black" d="M1212,-250.292C1212,-231.888 1212,-203.953 1212,-185.59"/>
</g>
<!-- ActiveRecord::Base&#45;&gt;User -->
<g id="edge10" class="edge"><title>ActiveRecord::Base&#45;&gt;User</title>
<path fill="none" stroke="black" d="M1110.09,-265.193C972.316,-258.185 719.827,-238.74 511,-186 503.788,-184.178 496.206,-181.541 489.254,-178.808"/>
</g>
<!-- ActiveRecord::Base&#45;&gt;Status -->
<g id="edge14" class="edge"><title>ActiveRecord::Base&#45;&gt;Status</title>
<path fill="none" stroke="black" d="M1118.59,-260.739C969.339,-246.705 690.416,-216.725 657,-186 636.482,-167.134 633.419,-132.978 633.738,-111.725"/>
</g>
<!-- ActiveRecord::Base&#45;&gt;Order -->
<g id="edge22" class="edge"><title>ActiveRecord::Base&#45;&gt;Order</title>
<path fill="none" stroke="black" d="M1128.25,-257.879C1036.45,-244.723 885.291,-220.206 758,-186 750.542,-183.996 742.64,-181.419 735.278,-178.815"/>
</g>
<!-- ActiveRecord::Base&#45;&gt;Sandwich -->
<g id="edge26" class="edge"><title>ActiveRecord::Base&#45;&gt;Sandwich</title>
<path fill="none" stroke="black" d="M1260.84,-252.612C1320.59,-232.564 1420.61,-199.005 1476.01,-180.417"/>
</g>
<!-- ActiveRecord::Base&#45;&gt;Beer -->
<g id="edge36" class="edge"><title>ActiveRecord::Base&#45;&gt;Beer</title>
<path fill="none" stroke="black" d="M1197.75,-250.448C1186.38,-234.387 1171.33,-210.02 1165,-186 1160.7,-169.668 1161.3,-164.479 1165,-148 1167.96,-134.809 1174.46,-121.059 1180.22,-110.607"/>
</g>
<!-- ActiveRecord::Base&#45;&gt;Foodcategory -->
<g id="edge40" class="edge"><title>ActiveRecord::Base&#45;&gt;Foodcategory</title>
<path fill="none" stroke="black" d="M1314.79,-266.16C1524.43,-259.303 1985.65,-238.373 2033,-186 2053.23,-163.626 2027.04,-131.164 2006.13,-111.105"/>
</g>
<!-- ActiveRecord::Base&#45;&gt;Ingredient -->
<g id="edge46" class="edge"><title>ActiveRecord::Base&#45;&gt;Ingredient</title>
<path fill="none" stroke="black" d="M1312.98,-264.429C1449.32,-256.438 1683.07,-235.754 1751,-186 1775.56,-168.013 1787.74,-133.245 1793.18,-111.69"/>
</g>
<!-- ActiveRecord::Base&#45;&gt;Role -->
<g id="edge48" class="edge"><title>ActiveRecord::Base&#45;&gt;Role</title>
<path fill="none" stroke="black" d="M1109.2,-266.124C947.144,-259.95 641.21,-241.157 549,-186 519.946,-168.621 500.258,-132.964 490.387,-111.202"/>
</g>
<!-- ActiveRecord::Base&#45;&gt;Beverage -->
<g id="edge50" class="edge"><title>ActiveRecord::Base&#45;&gt;Beverage</title>
<path fill="none" stroke="black" d="M1259.41,-252.364C1298.93,-237.552 1356.01,-213.939 1402,-186 1424.96,-172.054 1424.41,-158.816 1449,-148 1498.37,-126.286 1653.81,-152.865 1689,-112 1708.55,-89.3025 1683.44,-56.6418 1663.62,-36.6757"/>
</g>
<!-- ActiveRecord::Base&#45;&gt;Color -->
<g id="edge52" class="edge"><title>ActiveRecord::Base&#45;&gt;Color</title>
<path fill="none" stroke="black" d="M1193.76,-250.733C1178.37,-234.654 1156.45,-210.109 1141,-186 1108.62,-135.462 1082.27,-69.0875 1070.56,-37.3918"/>
</g>
<!-- ActiveRecord::Base&#45;&gt;LineItem -->
<g id="edge54" class="edge"><title>ActiveRecord::Base&#45;&gt;LineItem</title>
<path fill="none" stroke="black" d="M1159.06,-252.996C1119.71,-239.378 1066.13,-217.06 1026,-186 992.737,-160.253 984.814,-150.105 967,-112 955.694,-87.8158 951.089,-56.9977 949.231,-37.6264"/>
</g>
<!-- ActiveRecord::Base&#45;&gt;Ordercontent -->
<g id="edge56" class="edge"><title>ActiveRecord::Base&#45;&gt;Ordercontent</title>
<path fill="none" stroke="black" d="M1118.13,-260.95C1015.28,-250.17 859.376,-227.419 818,-186 777.803,-145.762 778.214,-71.9434 780.932,-37.5491"/>
</g>
<!-- ActiveRecord::Base&#45;&gt;Tracking -->
<g id="edge58" class="edge"><title>ActiveRecord::Base&#45;&gt;Tracking</title>
<path fill="none" stroke="black" d="M1111.25,-264.217C967.143,-255.771 710.951,-234.316 633,-186 586.511,-157.185 561.538,-124.724 582,-74 588.152,-58.751 600.779,-45.3704 612.165,-35.6259"/>
</g>
<!-- ActiveRecord::Base&#45;&gt;Itemstatus -->
<g id="edge62" class="edge"><title>ActiveRecord::Base&#45;&gt;Itemstatus</title>
<path fill="none" stroke="black" d="M1162.54,-252.725C1102.19,-232.871 1001.21,-199.645 944.314,-180.923"/>
</g>
<!-- ActiveRecord::Base&#45;&gt;Food -->
<g id="edge64" class="edge"><title>ActiveRecord::Base&#45;&gt;Food</title>
<path fill="none" stroke="black" d="M1314.2,-265.249C1525.33,-256.596 1994.59,-232.339 2050,-186 2088.85,-153.509 2095.32,-118.423 2071,-74 2058.91,-51.9254 2033.78,-37.4175 2013.78,-28.8739"/>
</g>
<!-- ActiveRecord::Base&#45;&gt;Container -->
<g id="edge68" class="edge"><title>ActiveRecord::Base&#45;&gt;Container</title>
<path fill="none" stroke="black" d="M1242.22,-251.286C1267.23,-235.826 1302.92,-211.864 1330,-186 1354.22,-162.869 1376.95,-131.208 1390.17,-111.438"/>
</g>
<!-- ActiveRecord::Base&#45;&gt;Aroma -->
<g id="edge70" class="edge"><title>ActiveRecord::Base&#45;&gt;Aroma</title>
<path fill="none" stroke="black" d="M1196.13,-250.608C1183.31,-234.644 1165.97,-210.33 1157,-186 1139.73,-139.143 1141.79,-123.551 1148,-74 1149.56,-61.5836 1153.01,-47.9506 1156.1,-37.3639"/>
</g>
<!-- ActiveRecord::Base&#45;&gt;Manufacturer -->
<g id="edge72" class="edge"><title>ActiveRecord::Base&#45;&gt;Manufacturer</title>
<path fill="none" stroke="black" d="M1297.06,-258.325C1409.02,-243.894 1611.82,-216.437 1784,-186 1794.97,-184.061 1806.63,-181.788 1817.82,-179.5"/>
</g>
<!-- ActiveRecord::Base&#45;&gt;Cart -->
<g id="edge76" class="edge"><title>ActiveRecord::Base&#45;&gt;Cart</title>
<path fill="none" stroke="black" d="M1164.16,-252.511C1130.51,-238.946 1086.26,-216.906 1056,-186 1034.99,-164.543 1021.46,-131.809 1014.55,-111.445"/>
</g>
<!-- ActiveRecord::Base&#45;&gt;Lid -->
<g id="edge78" class="edge"><title>ActiveRecord::Base&#45;&gt;Lid</title>
<path fill="none" stroke="black" d="M1309.92,-262.712C1484.35,-250.757 1841.72,-222.636 1961,-186 1966.27,-184.382 1971.67,-181.986 1976.63,-179.436"/>
</g>
<!-- ActiveRecord::Base&#45;&gt;Taste -->
<g id="edge80" class="edge"><title>ActiveRecord::Base&#45;&gt;Taste</title>
<path fill="none" stroke="black" d="M1226.21,-250.438C1237.56,-234.371 1252.6,-210.001 1259,-186 1272.93,-133.753 1267.1,-68.9987 1262.9,-37.69"/>
</g>
<!-- ActiveRecord::Base&#45;&gt;Item -->
<g id="edge86" class="edge"><title>ActiveRecord::Base&#45;&gt;Item</title>
<path fill="none" stroke="black" d="M1115.96,-261.691C1014.51,-251.74 864.397,-229.89 829,-186 810.455,-163.006 832.856,-129.54 850,-109.65"/>
</g>
<!-- ActiveRecord::Base&#45;&gt;Beerstyle -->
<g id="edge88" class="edge"><title>ActiveRecord::Base&#45;&gt;Beerstyle</title>
<path fill="none" stroke="black" d="M1227.79,-250.61C1241.43,-234.255 1261.22,-209.377 1276,-186 1305.85,-138.791 1303.82,-121.623 1333,-74 1340.83,-61.215 1350.74,-47.5791 1358.73,-37.0831"/>
</g>
<!-- ActiveRecord::Base&#45;&gt;Bruschettum -->
<g id="edge94" class="edge"><title>ActiveRecord::Base&#45;&gt;Bruschettum</title>
<path fill="none" stroke="black" d="M1277.02,-254.503C1351.1,-237.974 1475.79,-210.118 1583,-186 1592.19,-183.933 1601.94,-181.732 1611.43,-179.589"/>
</g>
<!-- ActiveRecord::Base&#45;&gt;Country -->
<g id="edge96" class="edge"><title>ActiveRecord::Base&#45;&gt;Country</title>
<path fill="none" stroke="black" d="M1314.56,-265.836C1481.4,-259.265 1821.37,-239.94 2104,-186 2112.78,-184.325 2122.07,-181.97 2130.8,-179.486"/>
</g>
<!-- ActiveRecord::Base&#45;&gt;Beveragecategory -->
<g id="edge100" class="edge"><title>ActiveRecord::Base&#45;&gt;Beveragecategory</title>
<path fill="none" stroke="black" d="M1245.38,-251.331C1275.69,-235.044 1321.41,-209.854 1360,-186 1385.58,-170.185 1389.05,-161.35 1416,-148 1449.91,-131.205 1490.17,-117.619 1522.31,-108.152"/>
</g>
</g>
</svg>
